
<svg xmlns="http://www.w3.org/2000/svg" xmlns:xlink="http://www.w3.org/1999/xlink" fill="none" version="1.1" width="32" height="32" viewBox="0 0 32 32"><defs><filter id="master_svg0_3047_31469" filterUnits="objectBoundingBox" color-interpolation-filters="sRGB" x="0" y="0" width="28.444442749023438" height="18.962963104248047"><feFlood flood-opacity="0" result="BackgroundImageFix"/><feBlend mode="normal" in="SourceGraphic" in2="BackgroundImageFix" result="shape"/><feColorMatrix in="SourceAlpha" type="matrix" result="hardAlpha" values="0 0 0 0 0 0 0 0 0 0 0 0 0 0 0 0 0 0 127 0"/><feOffset dy="2.370370388031006" dx="0"/><feGaussianBlur stdDeviation="2.9629628658294678"/><feComposite in2="hardAlpha" operator="arithmetic" k2="-1" k3="1"/><feColorMatrix type="matrix" values="0 0 0 0 1 0 0 0 0 1 0 0 0 0 1 0 0 0 0.6000000238418579 0"/><feBlend mode="normal" in2="shape" result="effect1_innerShadow"/></filter></defs><g style="mix-blend-mode:passthrough"><g style="mix-blend-mode:passthrough"></g><g style="mix-blend-mode:passthrough"><path d="M11.202968437500001,22.0614851503125L20.684948437499997,22.0626220703125L23.2607484375,27.9363020703125L8.0146484375,27.9363020703125L11.202968437500001,22.0614851503125Z" fill="#3870E0" fill-opacity="1"/></g><g style="opacity:0.800000011920929;mix-blend-mode:passthrough" filter="url(#master_svg0_3047_31469)"><rect x="1.77734375" y="4.740740776062012" width="28.444442749023438" height="18.962963104248047" rx="0" fill="#DBE7FF" fill-opacity="1"/></g><g style="mix-blend-mode:passthrough"><ellipse cx="19.347113609313965" cy="9.048773765563965" rx="1.7777776718139648" ry="1.7777776718139648" fill="#3870E0" fill-opacity="1"/></g><g style="mix-blend-mode:passthrough"><path d="M5.7998046875,12.551699628906249L11.6386746875,12.551699628906249L11.6386746875,13.301699628906249L10.9567946875,12.98937962890625L13.1572646875,8.18511962890625L19.138704687500002,8.18511962890625L19.138704687500002,9.68511962890625L13.6386746875,9.68511962890625L13.6386746875,8.93511962890625L14.3205546875,9.24743662890625L12.1200846875,14.051699628906249L5.7998046875,14.051699628906249L5.7998046875,12.551699628906249Z" fill="#3870E0" fill-opacity="0.30000001192092896"/></g><g style="mix-blend-mode:passthrough" transform="matrix(-1,0,0,1,41.1484375,0)"><path d="M20.58121282,17.663785L25.98062875,17.714145L25.97362875,18.464115L25.43484875,17.942375L27.74669875,15.554971L31.86101875,15.515659L31.875318749999998,17.015591L28.074548749999998,17.051907L28.06737875,16.3019409L28.606168750000002,16.823678L26.28850875,19.217085L20.56722468,19.163725L20.58121282,17.663785Z" fill="#B0C8F6" fill-opacity="1"/></g><g style="mix-blend-mode:passthrough"><path d="M16.3271484375,12.9864501953125L22.8369184375,12.9864501953125L22.8369184375,14.4864501953125L16.3271484375,14.4864501953125L16.3271484375,12.9864501953125Z" fill="#3870E0" fill-opacity="0.30000001192092896"/></g><g style="mix-blend-mode:passthrough"><ellipse cx="23.185004234313965" cy="13.564459800720215" rx="1.7777776718139648" ry="1.7777776718139648" fill="#3870E0" fill-opacity="1"/></g><g style="mix-blend-mode:passthrough"><ellipse cx="20.049262046813965" cy="18.229865074157715" rx="1.7777776718139648" ry="1.7777776718139648" fill="#3870E0" fill-opacity="1"/></g></g></svg>
