
<svg xmlns="http://www.w3.org/2000/svg" xmlns:xlink="http://www.w3.org/1999/xlink" fill="none" version="1.1" width="32" height="32" viewBox="0 0 32 32"><g style="mix-blend-mode:passthrough"><g style="mix-blend-mode:passthrough"></g><g style="mix-blend-mode:passthrough"><path d="M14.0205078125,4.88385009765625L15.3046878125,4.88385009765625L15.3281278125,11.54572009765625L14.0439453125,11.54572009765625L14.0205078125,4.88385009765625ZM19.0332078125,22.76945009765625L17.7490278125,22.76945009765625L17.7490278125,13.45691009765625L21.4160178125,11.13220009765625L21.4160178125,8.08722009765625L22.7001978125,8.08722009765625L22.7001978125,11.838680097656251L19.0332078125,14.16339009765625L19.0332078125,22.76945009765625Z" fill="#B0C8F6" fill-opacity="1"/></g><g style="mix-blend-mode:passthrough"><path d="M17.9750346875,11.29297619140625C16.783524687499998,11.29121619140625,15.8971946875,10.19095619140625,16.1491746875,9.02638619140625C16.4011546875,7.86181619140625,17.6630446875,7.22636619140625,18.748704687500002,7.71733619140625C19.834374687500002,8.20829619140625,20.1905946875,9.575516191406251,19.4825446875,10.53383619140625C19.1303746875,11.01341619140625,18.570034687499998,11.295586191406251,17.9750346875,11.29297619140625ZM21.9941646875,8.67367619140625C20.5833846875,8.68511619140625,19.6608246875,7.19917619140625,20.2968446875,5.93984619140625C20.9328646875,4.68050619140625,22.6763546875,4.54102819140625,23.5044546875,5.68323119140625C24.3326546875,6.82543619140625,23.658054687499998,8.43914619140625,22.2633646875,8.65213619140625C22.1742646875,8.66574619140625,22.084294687499998,8.67294619140625,21.9941646875,8.67367619140625ZM14.4996846875,14.54758619140625C13.3162086875,14.54627619140625,12.4357446875,13.45330619140625,12.6864205875,12.296676191406249C12.9370986875,11.140046191406249,14.191064687499999,10.50967619140625,15.2688846875,10.99846619140625C16.3467146875,11.48724619140625,16.6986846875,12.84589619140625,15.9937446875,13.79651619140625C15.6432346875,14.26990619140625,15.0887146875,14.54866619140625,14.4996846875,14.54758619140625Z" fill="#3870E0" fill-opacity="1"/></g><g style="mix-blend-mode:passthrough"><path d="M16.018555625,26.4321072265625L14.672855625,26.4321072265625L14.673225625,19.3915072265625L9.291015625,15.4355372265625L9.291015625,9.3424072265625L10.636715625,9.3424072265625L10.636565625,14.756037226562501L16.018775625,18.7119572265625L16.018555625,26.4321072265625Z" fill="#B0C8F6" fill-opacity="1"/></g><g style="mix-blend-mode:passthrough"><path d="M10.0441715625,9.72618623046875C8.7769175625,9.72735623046875,7.8762105625,8.493286230468751,8.2636835625,7.28672623046875C8.6511565625,6.08015623046875,10.1019615625,5.60124623046875,11.1315915625,6.34003623046875C12.1612215625,7.07881623046875,12.1721915625,8.60658623046875,11.1532715625,9.36007623046875C10.8322015625,9.597506230468749,10.4435015625,9.72581623046875,10.0441715625,9.72618623046875ZM14.6824615625,5.9897162304687495C13.2716715625,6.00115623046875,12.3491115625,4.51521623046875,12.985131562500001,3.25588623046875C13.6211515625,1.99654623046875,15.3646215625,1.85706823046875,16.1927615625,2.99927123046875C17.0209115625,4.14147623046875,16.346321562500002,5.75518623046875,14.9516615625,5.96817623046875C14.8625515625,5.9817862304687495,14.7725915625,5.9889862304687504,14.6824615625,5.9897162304687495Z" fill="#3870E0" fill-opacity="1"/></g><g style="mix-blend-mode:passthrough"><path d="M24.3021953125,10.0025006015625L23.7370953125,9.8638916015625L23.7372953125,16.6545416015625L24.3017953125,16.5116616015625C27.7562953125,15.658681601562499,29.6610953125,14.7326616015625,29.6609953125,13.6681716015625C29.6609953125,12.1456116015625,27.7588953125,10.8554776015625,24.3021953125,10.0025006015625ZM7.6840253125,10.0025006015625C4.2294653125,10.8554776015625,2.3251953125,12.158401601562499,2.3251953125,13.6639016015625C2.3251953125,14.750181601562499,4.2270853125,15.643851601562499,7.6816453125,16.4968216015625L8.2470753125,16.6354416015625L8.246995312500001,9.8702886515625L7.6840253125,10.0025006015625Z" fill="#3870E0" fill-opacity="1"/></g><g style="opacity:0.800000011920929;mix-blend-mode:passthrough"><path d="M2.333984375,25.5587126953125C2.333984375,28.5186126953125,9.390244375,30.1158126953125,16.000784375000002,30.1158126953125C22.619884375,30.1158126953125,29.661284375,28.5186126953125,29.659084375,25.5587126953125L29.659084375,13.7130126953125C29.659084375,14.0012946953125,29.487384375,14.2949956953125,29.166284375,14.5842546953125L29.166284375,14.4678956953125L28.901484375,14.7975026953125C27.037084375,16.154592695312502,21.942984375,17.3573626953125,15.992284375,17.3573626953125C8.475424375,17.3573626953125,2.333984375,15.4381626953125,2.333984375,13.7130126953125L2.333984375,25.5587126953125ZM3.236008375,15.4382526953125L3.2361823750000003,15.4383126953125L3.236008375,15.4381626953125L3.236008375,15.4382526953125ZM17.079884375,18.2539726953125C16.719784375,18.2632526953125,16.359684375,18.2679126953125,16.000784375000002,18.2679126953125C13.979184375,18.2679126953125,11.915114375,18.1201526953125,10.023704375000001,17.8298026953125L10.101564374999999,17.8572426953125Q11.958984375,18.1578326953125,14.612284375,18.2451826953125Q15.924184375,18.2883626953125,17.079884375,18.2539726953125Z" fill-rule="evenodd" fill="#DBE7FF" fill-opacity="1"/></g></g></svg>
