<svg xmlns="http://www.w3.org/2000/svg" width="32" height="32" fill="none"><defs><filter id="a" width="23.751" height="26.097" x="0" y="0" color-interpolation-filters="sRGB" filterUnits="objectBoundingBox"><feFlood flood-opacity="0" result="BackgroundImageFix"/><feBlend in="SourceGraphic" in2="BackgroundImageFix" result="shape"/><feColorMatrix in="SourceAlpha" result="hardAlpha" values="0 0 0 0 0 0 0 0 0 0 0 0 0 0 0 0 0 0 127 0"/><feOffset dy="2.37"/><feGaussianBlur stdDeviation="2.963"/><feComposite in2="hardAlpha" k2="-1" k3="1" operator="arithmetic"/><feColorMatrix values="0 0 0 0 1 0 0 0 0 1 0 0 0 0 1 0 0 0 0.6000000238418579 0"/><feBlend in2="shape" result="effect1_innerShadow"/></filter></defs><g style="mix-blend-mode:passthrough"><path fill="#3870E0" fill-rule="evenodd" d="M27.936 11.888a7.407 7.407 0 1 0-1.63 2.504l2.09 1.648q.185.146.412.21.227.064.461.036.234-.028.44-.143.206-.115.352-.3l.374-.475q.146-.186.21-.413.064-.226.037-.46-.028-.235-.143-.44-.115-.206-.3-.352l-2.303-1.815ZM24.18 6.042q1.302 1.302 1.302 3.143 0 1.841-1.302 3.143-1.302 1.302-3.143 1.302-1.84 0-3.143-1.302-1.301-1.302-1.301-3.143 0-1.84 1.301-3.143 1.302-1.301 3.143-1.301 1.841 0 3.143 1.301Z" style="mix-blend-mode:passthrough"/><g filter="url(#a)" style="opacity:.800000011920929;mix-blend-mode:passthrough"><path fill="#DBE7FF" d="M1.824 18.982q-.055.087-.045.166.062.53 3.008.723-.094 5.408 1.834 5.61 1.928.203 5.23 0l-.056 4.168 9.491-1.797.047-4.722q4.195-2.093 4.195-9.778c0-7.684-5.423-10.069-11.852-9.778-6.429.292-8.52 5.089-8.889 7.704-.368 2.616-2.54 7.036-2.963 7.704Z"/></g></g></svg>