<svg xmlns="http://www.w3.org/2000/svg" width="32" height="32" fill="none"><defs><linearGradient id="b" x1=".5" x2=".5" y1="0" y2="1"><stop offset="0%" stop-color="#FFF"/><stop offset="100%" stop-color="#A2E7FC"/></linearGradient><linearGradient id="d" x1=".5" x2=".5" y1="0" y2="1"><stop offset="0%" stop-color="#FFF"/><stop offset="100%" stop-color="#C9F1FD"/></linearGradient><clipPath id="a"><rect width="32" height="32" rx="0"/></clipPath><filter id="c" width="9.333" height="14.952" x="0" y="0" color-interpolation-filters="sRGB" filterUnits="objectBoundingBox"><feFlood flood-opacity="0" result="BackgroundImageFix"/><feBlend in="SourceGraphic" in2="BackgroundImageFix" result="shape"/><feColorMatrix in="SourceAlpha" result="hardAlpha" values="0 0 0 0 0 0 0 0 0 0 0 0 0 0 0 0 0 0 127 0"/><feOffset dx="1" dy="1"/><feGaussianBlur stdDeviation=".5"/><feComposite in2="hardAlpha" k2="-1" k3="1" operator="arithmetic"/><feColorMatrix values="0 0 0 0 1 0 0 0 0 1 0 0 0 0 1 0 0 0 0.5899999737739563 0"/><feBlend in2="shape" result="effect1_innerShadow"/><feGaussianBlur in="BackgroundImage" stdDeviation="1"/><feComposite in2="SourceAlpha" operator="in" result="effect2_foregroundBlur"/><feBlend in="SourceGraphic" in2="effect2_foregroundBlur" result="shape"/></filter></defs><g clip-path="url(#a)"><path fill="url(#b)" fill-rule="evenodd" d="m8.468 2.764-.116-.006a2.407 2.407 0 0 0-2.396 2.188l-.01.212.001 19.862.004.087-.104.044-1.345-.044-.152.01a1.123 1.123 0 0 0-.014 2.223l.156.012h11.887v-2.246l-8.033-.001.089.03-.085-.023c-.098-.033-.138-.074-.153-.127l-.006-.06V5.163l.009-.05a.16.16 0 0 1 .058-.081l.034-.019 10.094 2.129.116.018.117.006a.16.16 0 0 1 .155.117l.007.062v2.412h2.244v-2.43l-.008-.209a2.412 2.412 0 0 0-2.06-2.173l-.218-.023-10.156-2.14-.115-.019Zm-.175 2.25.04.002-.026-.01-.014.008Zm6.716 7.94-.155-.011h-2.578l-.152.01a1.123 1.123 0 0 0-.013 2.223l.155.012h2.577l.152-.01a1.123 1.123 0 0 0 .014-2.223Zm0 5.776-.155-.012h-2.578l-.152.01a1.123 1.123 0 0 0-.013 2.223l.155.012h2.577l.152-.01a1.123 1.123 0 0 0 .014-2.223Z"/><g filter="url(#c)" style="mix-blend-mode:passthrough"><path fill="#6FABFF" fill-opacity=".85" d="M18.089 25.85a1.5 1.5 0 0 0 1.5 1.5h6.333a1.5 1.5 0 0 0 1.5-1.5V15.415a1.5 1.5 0 0 0-1.22-1.474l-6.333-1.205a1.5 1.5 0 0 0-1.78 1.473v11.64Z"/></g><rect width="4.978" height="1.621" x="20.267" y="17.976" fill="url(#d)" rx=".811" style="mix-blend-mode:passthrough"/></g></svg>