<svg xmlns="http://www.w3.org/2000/svg" width="32" height="32" fill="none"><defs><linearGradient id="a" x1=".5" x2=".5" y1="0" y2="1"><stop offset="0%" stop-color="#FFF"/><stop offset="100%" stop-color="#A2E7FC"/></linearGradient><linearGradient id="b" x1=".5" x2=".5" y1="0" y2="1"><stop offset="0%" stop-color="#FFF"/><stop offset="100%" stop-color="#A2E7FC"/></linearGradient><linearGradient id="d" x1=".5" x2=".5" y1="0" y2="1"><stop offset="0%" stop-color="#FFF"/><stop offset="100%" stop-color="#C9F1FD"/></linearGradient><filter id="c" width="11.42" height="11.42" x="0" y="0" color-interpolation-filters="sRGB" filterUnits="objectBoundingBox"><feFlood flood-opacity="0" result="BackgroundImageFix"/><feBlend in="SourceGraphic" in2="BackgroundImageFix" result="shape"/><feColorMatrix in="SourceAlpha" result="hardAlpha" values="0 0 0 0 0 0 0 0 0 0 0 0 0 0 0 0 0 0 127 0"/><feOffset dx="1" dy="1"/><feGaussianBlur stdDeviation=".5"/><feComposite in2="hardAlpha" k2="-1" k3="1" operator="arithmetic"/><feColorMatrix values="0 0 0 0 1 0 0 0 0 1 0 0 0 0 1 0 0 0 0.5899999737739563 0"/><feBlend in2="shape" result="effect1_innerShadow"/><feGaussianBlur in="BackgroundImage" stdDeviation="1"/><feComposite in2="SourceAlpha" operator="in" result="effect2_foregroundBlur"/><feBlend in="SourceGraphic" in2="effect2_foregroundBlur" result="shape"/></filter></defs><path fill="url(#a)" fill-rule="evenodd" d="M14.751 29.143H6.856A2.856 2.856 0 0 1 4 26.287V6.859A2.856 2.856 0 0 1 6.856 4H20.57a2.858 2.858 0 0 1 2.858 2.856v7.43l-.006.033c.007.67.005.904.003 1.265-.001.23-.003.513-.003.994h-2.279v-9.72a.57.57 0 0 0-.571-.573H6.856a.571.571 0 0 0-.57.573v19.428a.57.57 0 0 0 .57.571h7.895v2.285Zm8.677-12.564v-.007l-.001.007h.001ZM9.348 8.67a.996.996 0 0 0 0 1.991h3.98a.996.996 0 0 0 0-1.99h-3.98Zm0 3.484a.996.996 0 1 0 0 1.991h5.97a.996.996 0 0 0 0-1.991h-5.97Z"/><g style="mix-blend-mode:passthrough"><rect width="4.099" height="2.244" x="26" y="27" fill="url(#b)" rx="1" transform="rotate(39.67 26 27)"/><g filter="url(#c)" style="mix-blend-mode:passthrough"><circle cx="21.71" cy="24.71" r="5.71" fill="#6FABFF" fill-opacity=".85"/></g><circle cx="21.71" cy="24.71" r="3.053" fill="url(#d)" style="mix-blend-mode:passthrough"/></g></svg>