<svg xmlns="http://www.w3.org/2000/svg" width="32" height="32" fill="none"><defs><linearGradient id="a" x1=".5" x2=".5" y1="0" y2="1"><stop offset="0%" stop-color="#FFF"/><stop offset="100%" stop-color="#A2E7FC"/></linearGradient><linearGradient id="c" x1=".5" x2=".5" y1="0" y2="1"><stop offset="0%" stop-color="#FFF"/><stop offset="100%" stop-color="#C9F1FD"/></linearGradient><filter id="b" width="10.17" height="8.52" x="0" y="0" color-interpolation-filters="sRGB" filterUnits="objectBoundingBox"><feFlood flood-opacity="0" result="BackgroundImageFix"/><feBlend in="SourceGraphic" in2="BackgroundImageFix" result="shape"/><feColorMatrix in="SourceAlpha" result="hardAlpha" values="0 0 0 0 0 0 0 0 0 0 0 0 0 0 0 0 0 0 127 0"/><feOffset dx="1" dy="1"/><feGaussianBlur stdDeviation=".5"/><feComposite in2="hardAlpha" k2="-1" k3="1" operator="arithmetic"/><feColorMatrix values="0 0 0 0 1 0 0 0 0 1 0 0 0 0 1 0 0 0 0.5899999737739563 0"/><feBlend in2="shape" result="effect1_innerShadow"/><feGaussianBlur in="BackgroundImage" stdDeviation="1"/><feComposite in2="SourceAlpha" operator="in" result="effect2_foregroundBlur"/><feBlend in="SourceGraphic" in2="effect2_foregroundBlur" result="shape"/></filter></defs><path fill="url(#a)" d="M4.978 6.06a1.045 1.045 0 0 1 1.045-1.045h8.126a1.045 1.045 0 0 1 1.045 1.045v6.384a1.045 1.045 0 0 1-1.045 1.045H6.023a1.045 1.045 0 0 1-1.045-1.045V6.06Zm2.09 1.044V11.4h6.037V7.104H7.067ZM17.746 6.06a1.045 1.045 0 0 1 1.044-1.045h8.127a1.045 1.045 0 0 1 1.045 1.045v9.867a1.045 1.045 0 0 1-1.045 1.045h-8.127a1.044 1.044 0 0 1-1.044-1.045V6.06Zm2.09 1.044v7.778h6.036V7.104h-6.037ZM6.022 16.043a1.045 1.045 0 0 0-1.045 1.045v9.869c0 .575.468 1.044 1.045 1.044h8.126a1.045 1.045 0 0 0 1.045-1.044v-9.87a1.045 1.045 0 0 0-1.045-1.044H6.023Zm1.044 9.869v-7.78h6.038v7.78H7.067Z"/><g filter="url(#b)" style="mix-blend-mode:passthrough"><rect width="10.17" height="8.52" x="17.791" y="19.482" fill="#6FABFF" fill-opacity=".85" rx="1.5"/></g><rect width="4.981" height="3.275" x="20.598" y="22.316" fill="url(#c)" rx="1" style="mix-blend-mode:passthrough"/></svg>