<svg xmlns="http://www.w3.org/2000/svg" width="32" height="32" fill="none"><defs><linearGradient id="a" x1=".5" x2=".5" y1="0" y2="1"><stop offset="0%" stop-color="#FFF"/><stop offset="100%" stop-color="#A2E7FC"/></linearGradient><linearGradient id="c" x1=".5" x2=".5" y1="0" y2="1"><stop offset="0%" stop-color="#FFF"/><stop offset="100%" stop-color="#C9F1FD"/></linearGradient><filter id="b" width="16.371" height="9.168" x="0" y="0" color-interpolation-filters="sRGB" filterUnits="objectBoundingBox"><feFlood flood-opacity="0" result="BackgroundImageFix"/><feBlend in="SourceGraphic" in2="BackgroundImageFix" result="shape"/><feColorMatrix in="SourceAlpha" result="hardAlpha" values="0 0 0 0 0 0 0 0 0 0 0 0 0 0 0 0 0 0 127 0"/><feOffset dx="1" dy="1"/><feGaussianBlur stdDeviation=".5"/><feComposite in2="hardAlpha" k2="-1" k3="1" operator="arithmetic"/><feColorMatrix values="0 0 0 0 1 0 0 0 0 1 0 0 0 0 1 0 0 0 0.5899999737739563 0"/><feBlend in2="shape" result="effect1_innerShadow"/><feGaussianBlur in="BackgroundImage" stdDeviation="1"/><feComposite in2="SourceAlpha" operator="in" result="effect2_foregroundBlur"/><feBlend in="SourceGraphic" in2="effect2_foregroundBlur" result="shape"/></filter></defs><path fill="url(#a)" d="M16.908 15.375c1.08 0 2.144.26 3.102.757a7.833 7.833 0 0 1 2.467 2.012c1.306 1.583 2.073 3.634 2.187 5.822l.021.586V27.6a1.15 1.15 0 0 1-2.288.168l-.012-.17v-2.94l-.004-.053-.002-.054c0-3.673-2.303-6.676-5.182-6.867l-.289-.01H9.771c-2.914 0-5.31 2.887-5.462 6.512l-.008.365V27.6a1.15 1.15 0 0 1-2.29.17L2 27.6v-3.05c0-2.41.782-4.685 2.203-6.407a7.838 7.838 0 0 1 2.467-2.012 6.741 6.741 0 0 1 2.697-.745l.404-.012h7.137Zm6.615.052.176.011c1.756.216 3.368 1.195 4.537 2.754 1.03 1.374 1.639 3.107 1.742 4.927l.016.456.004.056.002 2.763a1.15 1.15 0 0 1-2.29.17l-.01-.17v-2.609l-.005-.102c0-1.536-.462-2.995-1.3-4.11-.791-1.055-1.85-1.712-2.977-1.85a1.15 1.15 0 0 1 .105-2.296Zm-8.76 3.366c.2 0 .39.091.512.248a.648.648 0 0 1 .135.44l-.017.117-.268 1.073a.649.649 0 0 1-.506.479l-.125.012-.398-.119 1.117 2.791a.995.995 0 0 1-.027.806l-.086.146-.106.124-.785.785c-.3.3-.746.371-1.121.199l-.156-.088-.131-.111-.787-.785a.996.996 0 0 1-.29-.753l.022-.168.049-.155 1.197-2.674-.476.002a.65.65 0 0 1-.588-.373l-.043-.119-.266-1.072a.65.65 0 0 1 .512-.795l.117-.01h2.516ZM21.894 3.8l.168.053.305.126a5.575 5.575 0 0 1-1.456 10.606 1.15 1.15 0 1 1-.336-2.277 3.275 3.275 0 0 0 .677-6.302 1.15 1.15 0 0 1 .47-2.232l.172.026ZM13.543 2a6.13 6.13 0 0 1 6.124 6.124 6.13 6.13 0 0 1-6.124 6.123A6.13 6.13 0 0 1 7.42 8.124 6.13 6.13 0 0 1 13.543 2Zm0 2.301a3.823 3.823 0 1 0 0 7.645 3.823 3.823 0 0 0 0-7.645Z"/><g filter="url(#b)" style="mix-blend-mode:passthrough"><path fill="#6FABFF" fill-opacity=".85" d="M15.63 28.375q4.81-1.74 8.317 1.857 4.244-3.77 8.053-1.857v-7.083q-4.16-.917-8.053 1.858-3.787-2.233-8.318-1.858v7.083Z"/></g><rect width="1.146" height="4.257" x="23" y="24" fill="url(#c)" rx="0" style="mix-blend-mode:passthrough"/></svg>