<svg xmlns="http://www.w3.org/2000/svg" width="32" height="32" fill="none"><defs><linearGradient id="a" x1=".5" x2=".5" y1="0" y2="1"><stop offset="0%" stop-color="#FFF"/><stop offset="100%" stop-color="#A2E7FC"/></linearGradient><linearGradient id="c" x1=".5" x2=".5" y1="0" y2="1"><stop offset="0%" stop-color="#FFF"/><stop offset="100%" stop-color="#C9F1FD"/></linearGradient><filter id="b" width="9.252" height="8.085" x="0" y="0" color-interpolation-filters="sRGB" filterUnits="objectBoundingBox"><feFlood flood-opacity="0" result="BackgroundImageFix"/><feBlend in="SourceGraphic" in2="BackgroundImageFix" result="shape"/><feColorMatrix in="SourceAlpha" result="hardAlpha" values="0 0 0 0 0 0 0 0 0 0 0 0 0 0 0 0 0 0 127 0"/><feOffset/><feGaussianBlur stdDeviation=".5"/><feComposite in2="hardAlpha" k2="-1" k3="1" operator="arithmetic"/><feColorMatrix values="0 0 0 0 1 0 0 0 0 1 0 0 0 0 1 0 0 0 0.5899999737739563 0"/><feBlend in2="shape" result="effect1_innerShadow"/><feGaussianBlur in="BackgroundImage" stdDeviation="1"/><feComposite in2="SourceAlpha" operator="in" result="effect2_foregroundBlur"/><feBlend in="SourceGraphic" in2="effect2_foregroundBlur" result="shape"/></filter></defs><path fill="url(#a)" d="M16.179 0a1.213 1.213 0 0 1 1.163.898l.034.178 2.358 21.503c.333-.202.662-.412.985-.629a24.091 24.091 0 0 0 4.283-3.645c1.174-1.275 2.105-2.592 2.767-3.913.637-1.273.988-2.476 1.043-3.573.052-1.046-.172-1.948-.665-2.682-.625-.93-1.65-1.556-3.047-1.856-1.462-.315-3.254-.245-5.184.204a1.214 1.214 0 0 1-.55-2.364c2.275-.53 4.434-.604 6.244-.213 2 .431 3.575 1.426 4.549 2.876.792 1.178 1.153 2.578 1.074 4.156-.07 1.434-.508 2.96-1.297 4.537-1.558 3.112-4.35 6.124-7.866 8.486-.479.322-.967.63-1.446.883l-.474.235.448 3.876a1.212 1.212 0 0 1-2.376.455l-.033-.177-1.983-18.7-2.6 20.406a1.212 1.212 0 0 1-2.415-.116l.01-.19L14.968 1.06A1.212 1.212 0 0 1 15.992.013L16.179 0ZM7.733 5.321c-.186.027-.307.221-.272.368l.043.08.348.412a.54.54 0 0 1 .115.384l-.03.132-.187.578c-.056.172.055.304.21.285l.097-.03.547-.27a.56.56 0 0 1 .404-.05l.131.051.465.274c.137.08.338-.025.4-.188l.016-.105-.004-.58a.656.656 0 0 1 .137-.393l.097-.102.477-.408c.15-.13.146-.327.033-.405l-.08-.032-.553-.085a.483.483 0 0 1-.334-.208l-.06-.122-.172-.526c-.047-.146-.238-.17-.375-.06l-.074.083-.336.526a.676.676 0 0 1-.323.267l-.136.038-.584.086ZM4.189 22.792c-.246.035-.387.295-.307.49l.06.09.468.5c.111.122.17.282.168.443l-.022.16-.181.702a.3.3 0 0 0 .341.384l.114-.037.658-.333a.678.678 0 0 1 .478-.058l.155.06.603.33c.201.112.463-.03.52-.25l.01-.116-.061-.703a.71.71 0 0 1 .13-.469l.11-.123.555-.498c.19-.171.158-.442-.022-.54l-.103-.034-.695-.102a.623.623 0 0 1-.428-.264l-.06-.114-.262-.64c-.07-.175-.274-.224-.44-.144l-.092.063-.076.096-.369.64a.747.747 0 0 1-.373.32l-.16.044-.719.103Z"/><g filter="url(#b)" style="mix-blend-mode:passthrough"><path fill="#6FABFF" fill-opacity=".85" d="M.578 13.116c-.54.168-.667.722-.32 1.063l.176.132 1.328.729c.317.174.541.45.63.767l.04.242.068 1.352c.024.49.636.787 1.137.605l.203-.109 1.2-.856a1.56 1.56 0 0 1 1.001-.27l.265.042 1.503.374c.581.144 1.085-.264 1.024-.716l-.05-.17-.583-1.258a1.105 1.105 0 0 1 0-.96l.129-.212.86-1.12c.311-.406.019-.945-.525-1.035l-.215-.011-1.56.079a1.506 1.506 0 0 1-.989-.294l-.2-.177-.974-1.066c-.366-.402-1.064-.336-1.34.051l-.087.185-.378 1.315c-.092.32-.323.588-.633.753l-.246.104-1.464.46Z"/></g><path fill="url(#c)" d="M2.628 13.565c-.272.085-.335.363-.16.534l.087.066.667.365a.645.645 0 0 1 .316.385l.02.122.034.678c.012.246.32.395.57.304l.102-.055.602-.43a.783.783 0 0 1 .503-.135l.132.021.754.188c.292.072.545-.133.514-.36l-.025-.085-.293-.631a.554.554 0 0 1 0-.481l.065-.107.432-.562c.156-.203.01-.474-.264-.519l-.108-.006-.782.04a.755.755 0 0 1-.496-.147l-.1-.09-.49-.534c-.183-.201-.533-.169-.672.026l-.043.093-.19.659a.632.632 0 0 1-.318.378l-.123.052-.734.231Z" style="mix-blend-mode:passthrough"/></svg>