<svg xmlns="http://www.w3.org/2000/svg" width="32" height="32" fill="none"><defs><linearGradient id="b" x1=".5" x2=".5" y1="0" y2="1"><stop offset="0%" stop-color="#FFF"/><stop offset="100%" stop-color="#A2E7FC"/></linearGradient><linearGradient id="d" x1=".5" x2=".5" y1="0" y2="1"><stop offset="0%" stop-color="#FFF"/><stop offset="100%" stop-color="#C9F1FD"/></linearGradient><linearGradient id="e" x1=".5" x2=".5" y1="0" y2="1"><stop offset="0%" stop-color="#FFF"/><stop offset="100%" stop-color="#C9F1FD"/></linearGradient><clipPath id="a"><rect width="32" height="32" rx="0"/></clipPath><filter id="c" width="12.854" height="10.52" x="0" y="0" color-interpolation-filters="sRGB" filterUnits="objectBoundingBox"><feFlood flood-opacity="0" result="BackgroundImageFix"/><feBlend in="SourceGraphic" in2="BackgroundImageFix" result="shape"/><feColorMatrix in="SourceAlpha" result="hardAlpha" values="0 0 0 0 0 0 0 0 0 0 0 0 0 0 0 0 0 0 127 0"/><feOffset dx="1" dy="1"/><feGaussianBlur stdDeviation=".5"/><feComposite in2="hardAlpha" k2="-1" k3="1" operator="arithmetic"/><feColorMatrix values="0 0 0 0 1 0 0 0 0 1 0 0 0 0 1 0 0 0 0.5899999737739563 0"/><feBlend in2="shape" result="effect1_innerShadow"/><feGaussianBlur in="BackgroundImage" stdDeviation="1"/><feComposite in2="SourceAlpha" operator="in" result="effect2_foregroundBlur"/><feBlend in="SourceGraphic" in2="effect2_foregroundBlur" result="shape"/></filter></defs><g clip-path="url(#a)"><path fill="url(#b)" d="m14.996 2.756-.373.006C8.526 2.94 3.45 7.445 2.49 13.393l-.054.374-.052.15v.317a12.83 12.83 0 0 0-.056 1.193c0 6.998 5.673 12.67 12.671 12.67 6.998 0 12.67-5.672 12.67-12.67 0-.4-.018-.798-.051-1.24v-.148l-.056-.122v-.15c-.77-5.881-5.545-10.434-11.428-10.96l-.385-.029-.38-.016-.374-.006ZM12.411 17.94a41.538 41.538 0 0 0 4.317.044l.85-.044.15.154c-.164 1.914-.503 3.68-.99 5.143-.314.944-.685 1.74-1.075 2.304-.173.25-.339.439-.483.564l-.104.082h-.164c-.165-.116-.371-.333-.587-.646-.39-.564-.761-1.36-1.075-2.304-.433-1.3-.749-2.84-.929-4.51l-.061-.633.15-.154Zm13.16-1.688.207.14a10.783 10.783 0 0 1-3.127 6.687 10.792 10.792 0 0 1-4.28 2.633l-.427.13-.166-.202c.9-1.764 1.544-4.306 1.81-7.188l.049-.58.124-.132c1.406-.173 2.69-.422 3.795-.737a13.397 13.397 0 0 0 1.581-.55l.337-.152.098-.05Zm-21.147 0c.564.277 1.24.528 2.02.751.943.27 2.018.49 3.19.657l.593.079.125.13c.216 2.924.816 5.537 1.68 7.405l.176.363-.166.202a10.783 10.783 0 0 1-4.693-2.761 10.792 10.792 0 0 1-3.076-6.206l-.053-.48.204-.14ZM15.076 4.667c.165.116.37.333.587.646.39.564.761 1.36 1.075 2.304.712 2.14 1.103 4.913 1.103 7.81l-.004.51-.133.14a39.525 39.525 0 0 1-4.527.05l-.893-.05-.133-.14-.004-.51c0-2.897.391-5.67 1.103-7.81.314-.944.685-1.74 1.075-2.304a3.06 3.06 0 0 1 .483-.564l.104-.082h.164Zm2.867.344a10.786 10.786 0 0 1 4.708 2.765 10.792 10.792 0 0 1 2.32 3.44c.357.845.602 1.723.699 2.74-.38.432-1.348.93-2.923 1.348-.683.181-1.436.337-2.245.464l-.617.09-.161-.143.001-.288c0-3.79-.632-7.3-1.698-9.692l-.182-.388-.068-.135.166-.201Zm-5.903.005.168.201c-1.153 2.263-1.87 5.763-1.94 9.601l-.004.896-.161.142c-1.04-.14-2-.327-2.85-.552-1.576-.419-2.543-.916-2.958-1.464a10.787 10.787 0 0 1 3.054-6.064 10.792 10.792 0 0 1 3.44-2.32l.447-.177.456-.158.348-.105Z"/><g filter="url(#c)" style="mix-blend-mode:passthrough"><rect width="12.854" height="10.52" x="16.222" y="18.892" fill="#6FABFF" fill-opacity=".85" rx="1.5"/></g><rect width="7.808" height="1.588" x="18.805" y="21.661" fill="url(#d)" rx=".794" style="mix-blend-mode:passthrough"/><rect width="5.006" height="1.588" x="18.805" y="25.053" fill="url(#e)" rx=".794" style="mix-blend-mode:passthrough"/></g></svg>