<svg xmlns="http://www.w3.org/2000/svg" width="34" height="30" fill="none"><defs><linearGradient id="a" x1="-3.875" x2=".391" y1="2.806" y2=".559"><stop offset="0%" stop-color="#3870E0"/><stop offset="100%" stop-color="#24A7FF"/></linearGradient><linearGradient id="b" x1="-1.221" x2="3.043" y1=".811" y2=".041"><stop offset="0%" stop-color="#3870E0"/><stop offset="100%" stop-color="#24A7FF"/></linearGradient><linearGradient id="c" x1="-.285" x2="3.981" y1=".913" y2="-1.334"><stop offset="0%" stop-color="#3870E0"/><stop offset="100%" stop-color="#24A7FF"/></linearGradient><linearGradient id="d" x1="-.959" x2=".968" y1=".777" y2=".327"><stop offset="0%" stop-color="#3870E0"/><stop offset="100%" stop-color="#24A7FF"/></linearGradient></defs><ellipse cx="30.96" cy="15.182" fill="url(#a)" rx="3.04" ry="3.008"/><path fill="url(#b)" d="M13.317 9.281c0-1.852-1.683-3.31-3.618-2.955-1.2.218-2.178 1.176-2.41 2.352-.305 1.56.61 2.945 1.968 3.424v5.9c-1.357.479-2.273 1.863-1.968 3.424.232 1.176 1.22 2.144 2.41 2.352 1.935.344 3.618-1.113 3.618-2.955 0-1.312-.841-2.404-2.02-2.82v-5.901c1.179-.417 2.02-1.52 2.02-2.82Z"/><ellipse cx="3.04" cy="15.13" fill="url(#c)" rx="3.04" ry="3.008"/><path fill="url(#d)" d="M24.144 12.247c.378.063.768.052 1.188-.041 1.168-.281 2.115-1.25 2.304-2.425.337-2.081-1.472-3.84-3.587-3.455-1.178.218-2.146 1.155-2.388 2.31-.053.27-.074.53-.063.78.042.823-.368 1.603-.989 2.155l-1.441 1.28a3.042 3.042 0 0 0-.884-.49V8.887c0-1.426.379-2.872 1.305-3.965.526-.614.8-1.447.673-2.331C20.094 1.33 19.073.269 17.81.05c-1.925-.343-3.598 1.114-3.598 2.966 0 .729.263 1.395.694 1.905.947 1.124 1.336 2.602 1.336 4.059v.239c0 1.457-.39 2.945-1.336 4.059a2.963 2.963 0 0 0 0 3.809c.79.947 1.336 2.07 1.336 3.288v1.468c0 1.207-.536 2.31-1.315 3.226-.568.655-.841 1.56-.652 2.529.231 1.176 1.22 2.143 2.409 2.352 1.936.343 3.619-1.114 3.619-2.956 0-.729-.263-1.384-.694-1.904-.79-.937-1.326-2.061-1.326-3.279l.053-2.383c0-1.26.2-1.498.778-1.8q.579-.302 1.483.916c.716.634.916 1.613 1.01 2.55.042.415.2.863.505 1.331.495.75 1.294 1.29 2.178 1.395 2.062.218 3.756-1.592 3.314-3.653-.253-1.155-1.22-2.081-2.399-2.29a3.336 3.336 0 0 0-.841-.041c-1.084.094-2.168-.156-2.978-.874l-.894-.791a.477.477 0 0 1-.158-.458c.074-.26.064-.697-.01-.989a.497.497 0 0 1 .126-.479l1.441-1.27c.621-.55 1.452-.852 2.262-.717l-.01-.01Z"/></svg>