<svg xmlns="http://www.w3.org/2000/svg" xmlns:xlink="http://www.w3.org/1999/xlink" fill="none" version="1.1" width="68.068359375" height="61.457794189453125" viewBox="0 0 68.068359375 61.457794189453125"><defs><filter id="master_svg0_414_9269" filterUnits="objectBoundingBox" color-interpolation-filters="sRGB" x="0" y="0" width="61.47824478149414" height="61.45779800415039"><feFlood flood-opacity="0" result="BackgroundImageFix"/><feBlend mode="normal" in="SourceGraphic" in2="BackgroundImageFix" result="shape"/><feGaussianBlur in="BackgroundImage" stdDeviation="1"/><feComposite in2="SourceAlpha" operator="in" result="effect1_foregroundBlur"/><feBlend mode="normal" in="SourceGraphic" in2="effect1_foregroundBlur" result="shape"/></filter><filter id="master_svg1_414_9268" filterUnits="objectBoundingBox" color-interpolation-filters="sRGB" x="0" y="0" width="61.47824478149414" height="61.45779800415039"><feFlood flood-opacity="0" result="BackgroundImageFix"/><feBlend mode="normal" in="SourceGraphic" in2="BackgroundImageFix" result="shape"/><feGaussianBlur in="BackgroundImage" stdDeviation="1"/><feComposite in2="SourceAlpha" operator="in" result="effect1_foregroundBlur"/><feBlend mode="normal" in="SourceGraphic" in2="effect1_foregroundBlur" result="shape"/></filter></defs><g style="mix-blend-mode:passthrough"><g style="mix-blend-mode:passthrough"><g style="mix-blend-mode:passthrough"><path d="M68.06804375,30.7289C68.06804375,47.7,54.30574375,61.4578,37.32894375,61.4578C20.35224375,61.4578,6.58984375,47.7,6.58984375,30.7289C6.58984375,13.7578,20.35224375,0,37.32894375,0C54.30574375,0,68.06804375,13.7578,68.06804375,30.7289Z" fill="#0C46E2" fill-opacity="1"/></g><g style="mix-blend-mode:passthrough"><g style="mix-blend-mode:passthrough" filter="url(#master_svg0_414_9269)"><path d="M61.4782,30.7289C61.4782,47.7,47.7159,61.4578,30.7391,61.4578C13.7624,61.4578,0,47.7,0,30.7289C0,13.7578,13.7624,0,30.7391,0C47.7159,0,61.4782,13.7578,61.4782,30.7289Z" fill="#FFFFFF" fill-opacity="0.2199999988079071"/></g><g style="mix-blend-mode:passthrough" filter="url(#master_svg1_414_9268)"><path d="M61.4782,30.7289C61.4782,47.7,47.7159,61.4578,30.7391,61.4578C13.7624,61.4578,0,47.7,0,30.7289C0,13.7578,13.7624,0,30.7391,0C47.7159,0,61.4782,13.7578,61.4782,30.7289ZM60.6387,30.7289Q60.6387,25.0277,58.5395,19.7269Q56.2601,13.9712,51.8814,9.59402Q47.5027,5.21678,41.7451,2.93814Q36.4423,0.839522,30.7391,0.839522Q25.0359,0.839523,19.7331,2.93814Q13.9755,5.21678,9.59681,9.59402Q5.21816,13.9712,2.93879,19.7269Q0.839522,25.0277,0.839522,30.7289Q0.839523,36.43,2.93879,41.7309Q5.21815,47.4866,9.59681,51.8638Q13.9755,56.241,19.7331,58.5197Q25.0359,60.6183,30.7391,60.6183Q36.4423,60.6183,41.7451,58.5197Q47.5027,56.241,51.8814,51.8638Q56.2601,47.4866,58.5395,41.7309Q60.6387,36.4301,60.6387,30.7289Z" fill-rule="evenodd" fill="#FFFFFF" fill-opacity="1"/></g></g></g><g style="mix-blend-mode:passthrough"><g style="mix-blend-mode:passthrough"><g style="mix-blend-mode:passthrough"><g style="mix-blend-mode:passthrough"><path d="M45.486253125000005,21.29704603302002Q45.201453125,20.87196603302002,44.728253124999995,20.67736603302002L32.287453125,15.561612033020019Q31.389353125,15.192337033020019,30.484253125000002,15.54385403302002L17.258033125,20.68043603302002Q16.774902125,20.86806603302002,16.482178125,21.29577603302002Q16.1894530653954,21.72348603302002,16.189453125,22.24176603302002Q16.189453125,22.93555603302002,16.680033125,23.426136033020022Q17.170613125,23.91671603302002,17.864403125,23.91671603302002L44.088153125000005,23.91671603302002Q44.785253125,23.91671603302002,45.278153125,23.42380603302002Q45.771053125,22.93089603302002,45.771053125,22.23381603302002Q45.771053125,21.722126033020018,45.486253125000005,21.29704603302002ZM31.716953125,16.94890603302002L44.157753125,22.06465603302002Q44.271053125,22.11126603302002,44.271053125,22.23381603302002Q44.271053125,22.41671603302002,44.088153125000005,22.41671603302002L17.864403125,22.41671603302002Q17.689453125,22.41671603302002,17.689453125,22.24176603302002Q17.689453125,22.12203603302002,17.801063125,22.07868603302002L31.027253125,16.942106033020018Q31.373453124999997,16.80766603302002,31.716953125,16.94890603302002Z" fill-rule="evenodd" fill="#FFFFFF" fill-opacity="1"/></g><g style="mix-blend-mode:passthrough"><path d="M25.48366685661316,26.884557737426757L23.84440685661316,26.884557737426757C23.92423685661316,27.060997737426757,23.968666856613158,27.25686773742676,23.968666856613158,27.463117737426757L23.968666856613158,33.232457737426756C23.968666856613158,33.32285773742676,23.96013685661316,33.41125773742676,23.94382685661316,33.49690773742676L25.48366685661316,33.49690773742676C25.94014685661316,33.49690773742676,26.31020685661316,33.86695773742676,26.31020685661316,34.32344773742676C26.31020685661316,34.779937737426756,25.94014685661316,35.149987737426756,25.48366685661316,35.149987737426756L19.64286885661316,35.149987737426756C19.18638285661316,35.149987737426756,18.81632685661316,34.779937737426756,18.81632685661316,34.32344773742676C18.81632685661316,33.86695773742676,19.18638285661316,33.49690773742676,19.64286885661316,33.49690773742676L21.18331685661316,33.49690773742676C21.16700685661316,33.41125773742676,21.15846685661316,33.32285773742676,21.15846685661316,33.232457737426756L21.15846685661316,27.463117737426757C21.15846685661316,27.25686773742676,21.202906856613158,27.060997737426757,21.28272685661316,26.884557737426757L19.64286885661316,26.884557737426757C19.18638285661316,26.884557737426757,18.81632685661316,26.514507737426758,18.81632685661316,26.058019737426758C18.81632685661316,25.60153373742676,19.18638285661316,25.231477737426758,19.64286885661316,25.231477737426758L25.48366685661316,25.231477737426758C25.94014685661316,25.231477737426758,26.31020685661316,25.60153373742676,26.31020685661316,26.058019737426758C26.31020685661316,26.514507737426758,25.94014685661316,26.884557737426757,25.48366685661316,26.884557737426757ZM19.61632685661316,26.05802073742676Q19.61632685661316,26.084562737426758,19.64286885661316,26.084562737426758L22.522716856613158,26.084562737426758L22.01160685661316,27.214317737426757Q21.95846685661316,27.33176773742676,21.95846685661316,27.463117737426757L21.95846685661316,33.232457737426756Q21.95846685661316,33.29093773742676,21.96918685661316,33.347247737426756L22.15003685661316,34.29690773742676L19.64286885661316,34.29690773742676Q19.61632685661316,34.29690773742676,19.61632685661316,34.32344773742676Q19.61632685661316,34.34998773742676,19.64286885661316,34.34998773742676L25.48366685661316,34.34998773742676Q25.51020685661316,34.34998773742676,25.51020685661316,34.32344773742676Q25.51020685661316,34.31244773742676,25.50242685661316,34.30467773742676Q25.494656856613158,34.29690773742676,25.48366685661316,34.29690773742676L22.97709685661316,34.29690773742676L23.157946856613158,33.347247737426756Q23.168666856613157,33.29093773742676,23.168666856613157,33.232457737426756L23.168666856613157,27.463117737426757Q23.168666856613157,27.33176773742676,23.11553685661316,27.214317737426757L22.60441685661316,26.084562737426758L25.48366685661316,26.084562737426758Q25.51020685661316,26.084562737426758,25.51020685661316,26.058019737426758Q25.51020685661316,26.03147773742676,25.48366685661316,26.03147773742676L19.64286885661316,26.03147773742676Q19.61632685661316,26.03147773742676,19.61632685661316,26.05802073742676Z" fill-rule="evenodd" fill="#FFFFFF" fill-opacity="1"/></g><g style="mix-blend-mode:passthrough"><path d="M33.8112425,26.884557737426757L32.4833925,26.884557737426757C32.5308025,27.016497737426757,32.5566425,27.15872773742676,32.5566425,27.30699773742676L32.5566425,33.38858773742676C32.5566425,33.42507773742676,32.5550725,33.46120773742676,32.552012500000004,33.49690773742676L33.8112425,33.49690773742676C34.2677325,33.49690773742676,34.6377825,33.86695773742676,34.6377825,34.32344773742676C34.6377825,34.779937737426756,34.2677325,35.149987737426756,33.8112425,35.149987737426756L28.8031045,35.149987737426756C28.3466185,35.149987737426756,27.9765625,34.779937737426756,27.9765625,34.32344773742676C27.9765625,33.86695773742676,28.3466185,33.49690773742676,28.8031045,33.49690773742676L30.0633125,33.49690773742676C30.0602425,33.46120773742676,30.0586825,33.42507773742676,30.0586825,33.38858773742676L30.0586825,27.30699773742676C30.0586825,27.15872773742676,30.0845125,27.016497737426757,30.1319225,26.884557737426757L28.8031045,26.884557737426757C28.3466185,26.884557737426757,27.9765625,26.514507737426758,27.9765625,26.058019737426758C27.9765625,25.60153373742676,28.3466185,25.231477737426758,28.8031045,25.231477737426758L33.8112425,25.231477737426758C34.2677325,25.231477737426758,34.6377825,25.60153373742676,34.6377825,26.058019737426758C34.6377825,26.514507737426758,34.2677325,26.884557737426757,33.8112425,26.884557737426757ZM28.7765625,26.05802073742676Q28.7765625,26.084562737426758,28.8031045,26.084562737426758L31.2694825,26.084562737426758L30.8847925,27.155097737426757Q30.8586825,27.227767737426756,30.8586825,27.30699773742676L30.8586825,33.38858773742676Q30.8586825,33.40868773742676,30.8603825,33.42842773742676L30.9349825,34.29690773742676L28.8031045,34.29690773742676Q28.7765625,34.29690773742676,28.7765625,34.32344773742676Q28.7765625,34.34998773742676,28.8031045,34.34998773742676L33.8112425,34.34998773742676Q33.8377825,34.34998773742676,33.8377825,34.32344773742676Q33.8377825,34.31244773742676,33.8300125,34.30467773742676Q33.8222425,34.29690773742676,33.8112425,34.29690773742676L31.6803325,34.29690773742676L31.7549425,33.42842773742676Q31.756642499999998,33.40868773742676,31.756642499999998,33.38858773742676L31.756642499999998,27.30699773742676Q31.756642499999998,27.227767737426756,31.7305325,27.155097737426757L31.3458325,26.084562737426758L33.8112425,26.084562737426758Q33.8377825,26.084562737426758,33.8377825,26.058019737426758Q33.8377825,26.03147773742676,33.8112425,26.03147773742676L28.8031045,26.03147773742676Q28.7765625,26.03147773742676,28.7765625,26.05802073742676Z" fill-rule="evenodd" fill="#FFFFFF" fill-opacity="1"/></g><g style="mix-blend-mode:passthrough"><path d="M42.137414375,26.884557737426757L40.809564375,26.884557737426757C40.856974375,27.016497737426757,40.882814375,27.15872773742676,40.882814375,27.30699773742676L40.882814375,33.38858773742676C40.882814375,33.42507773742676,40.881244375,33.46120773742676,40.878184375000004,33.49690773742676L42.137414375,33.49690773742676C42.593904375,33.49690773742676,42.963954375,33.86695773742676,42.963954375,34.32344773742676C42.963954375,34.779937737426756,42.593904375,35.149987737426756,42.137414375,35.149987737426756L37.129276375,35.149987737426756C36.672790375,35.149987737426756,36.302734375,34.779937737426756,36.302734375,34.32344773742676C36.302734375,33.86695773742676,36.672790375,33.49690773742676,37.129276375,33.49690773742676L38.389484375,33.49690773742676C38.386414375,33.46120773742676,38.384854375,33.42507773742676,38.384854375,33.38858773742676L38.384854375,27.30699773742676C38.384854375,27.15872773742676,38.410684375,27.016497737426757,38.458094375,26.884557737426757L37.129276375,26.884557737426757C36.672790375,26.884557737426757,36.302734375,26.514507737426758,36.302734375,26.058019737426758C36.302734375,25.60153373742676,36.672790375,25.231477737426758,37.129276375,25.231477737426758L42.137414375,25.231477737426758C42.593904375,25.231477737426758,42.963954375,25.60153373742676,42.963954375,26.058019737426758C42.963954375,26.514507737426758,42.593904375,26.884557737426757,42.137414375,26.884557737426757ZM37.102734375,26.05802073742676Q37.102734375,26.084562737426758,37.129276375,26.084562737426758L39.595654375,26.084562737426758L39.210964375,27.155097737426757Q39.184854375,27.227767737426756,39.184854375,27.30699773742676L39.184854375,33.38858773742676Q39.184854375,33.40868773742676,39.186554375,33.42842773742676L39.261154375,34.29690773742676L37.129276375,34.29690773742676Q37.102734375,34.29690773742676,37.102734375,34.32344773742676Q37.102734375,34.34998773742676,37.129276375,34.34998773742676L42.137414375,34.34998773742676Q42.163954375,34.34998773742676,42.163954375,34.32344773742676Q42.163954375,34.31244773742676,42.156184375,34.30467773742676Q42.148414375,34.29690773742676,42.137414375,34.29690773742676L40.006504375,34.29690773742676L40.081114375,33.42842773742676Q40.082814375,33.40868773742676,40.082814375,33.38858773742676L40.082814375,27.30699773742676Q40.082814375,27.227767737426756,40.056704375,27.155097737426757L39.672004375,26.084562737426758L42.137414375,26.084562737426758Q42.163954375,26.084562737426758,42.163954375,26.058019737426758Q42.163954375,26.03147773742676,42.137414375,26.03147773742676L37.129276375,26.03147773742676Q37.102734375,26.03147773742676,37.102734375,26.05802073742676Z" fill-rule="evenodd" fill="#FFFFFF" fill-opacity="1"/></g><g style="mix-blend-mode:passthrough"><path d="M18.330078125,38.888891769104006C18.330078125,38.046142769104,19.013259125,37.362961769104004,19.856008125,37.362961769104004L41.783778125,37.362961769104004C42.626478125,37.362961769104004,43.309678125000005,38.046142769104,43.309678125000005,38.888891769104006C43.309678125000005,39.731631769104006,42.626478125,40.414811769104006,41.783778125,40.414811769104006L19.856008125,40.414811769104006C19.013259125,40.414811769104006,18.330078125,39.731631769104006,18.330078125,38.888891769104006ZM19.530078125,38.888891769104006Q19.530078125,39.023891769104004,19.625538125,39.11935176910401Q19.720998125,39.214811769104,19.856008125,39.214811769104L41.783778125,39.214811769104Q42.109678125,39.214811769104,42.109678125,38.888891769104006Q42.109678125,38.56296176910401,41.783778125,38.56296176910401L19.856008125,38.56296176910401Q19.720998125,38.56296176910401,19.625538125,38.658421769104Q19.530078125,38.753881769104005,19.530078125,38.888891769104006Z" fill-rule="evenodd" fill="#FFFFFF" fill-opacity="1"/></g><g style="mix-blend-mode:passthrough"><path d="M15,43.371205891418455C15,42.47164389141846,15.729238,41.74240589141846,16.6288,41.74240589141846L45.3712,41.74240589141846C46.2708,41.74240589141846,47,42.47164389141846,47,43.371205891418455C47,44.270765891418456,46.2708,45.00000589141845,45.3712,45.00000589141845L16.6288,45.00000589141845C15.729238,45.00000589141845,15,44.270765891418456,15,43.371205891418455ZM16.2,43.371205891418455Q16.2,43.54881589141846,16.32559,43.674415891418455Q16.45118,43.80000589141846,16.6288,43.80000589141846L45.3712,43.80000589141846Q45.5488,43.80000589141846,45.6744,43.67440589141846Q45.8,43.54881589141846,45.8,43.371205891418455Q45.8,43.19358589141846,45.6744,43.067995891418455Q45.5488,42.94240589141846,45.3712,42.94240589141846L16.6288,42.94240589141846Q16.45118,42.94240589141846,16.32559,43.067995891418455Q16.2,43.19358589141846,16.2,43.371205891418455Z" fill-rule="evenodd" fill="#FFFFFF" fill-opacity="1"/></g></g></g></g></g></svg>