<svg xmlns="http://www.w3.org/2000/svg" xmlns:xlink="http://www.w3.org/1999/xlink" fill="none" version="1.1" width="68.068359375" height="61.457794189453125" viewBox="0 0 68.068359375 61.457794189453125"><defs><filter id="master_svg0_414_9204" filterUnits="objectBoundingBox" color-interpolation-filters="sRGB" x="0" y="0" width="61.47824478149414" height="61.45779800415039"><feFlood flood-opacity="0" result="BackgroundImageFix"/><feBlend mode="normal" in="SourceGraphic" in2="BackgroundImageFix" result="shape"/><feGaussianBlur in="BackgroundImage" stdDeviation="1"/><feComposite in2="SourceAlpha" operator="in" result="effect1_foregroundBlur"/><feBlend mode="normal" in="SourceGraphic" in2="effect1_foregroundBlur" result="shape"/></filter><filter id="master_svg1_414_9203" filterUnits="objectBoundingBox" color-interpolation-filters="sRGB" x="0" y="0" width="61.47824478149414" height="61.45779800415039"><feFlood flood-opacity="0" result="BackgroundImageFix"/><feBlend mode="normal" in="SourceGraphic" in2="BackgroundImageFix" result="shape"/><feGaussianBlur in="BackgroundImage" stdDeviation="1"/><feComposite in2="SourceAlpha" operator="in" result="effect1_foregroundBlur"/><feBlend mode="normal" in="SourceGraphic" in2="effect1_foregroundBlur" result="shape"/></filter></defs><g style="mix-blend-mode:passthrough"><g style="mix-blend-mode:passthrough"><g style="mix-blend-mode:passthrough"><path d="M68.06804375,30.7289C68.06804375,47.7,54.30574375,61.4578,37.32894375,61.4578C20.35224375,61.4578,6.58984375,47.7,6.58984375,30.7289C6.58984375,13.7578,20.35224375,0,37.32894375,0C54.30574375,0,68.06804375,13.7578,68.06804375,30.7289Z" fill="#0C46E2" fill-opacity="1"/></g><g style="mix-blend-mode:passthrough"><g style="mix-blend-mode:passthrough" filter="url(#master_svg0_414_9204)"><path d="M61.4782,30.7289C61.4782,47.7,47.7159,61.4578,30.7391,61.4578C13.7624,61.4578,0,47.7,0,30.7289C0,13.7578,13.7624,0,30.7391,0C47.7159,0,61.4782,13.7578,61.4782,30.7289Z" fill="#FFFFFF" fill-opacity="0.2199999988079071"/></g><g style="mix-blend-mode:passthrough" filter="url(#master_svg1_414_9203)"><path d="M61.4782,30.7289C61.4782,47.7,47.7159,61.4578,30.7391,61.4578C13.7624,61.4578,0,47.7,0,30.7289C0,13.7578,13.7624,0,30.7391,0C47.7159,0,61.4782,13.7578,61.4782,30.7289ZM60.6387,30.7289Q60.6387,25.0277,58.5395,19.7269Q56.2601,13.9712,51.8814,9.59402Q47.5027,5.21678,41.7451,2.93814Q36.4423,0.839522,30.7391,0.839522Q25.0359,0.839523,19.7331,2.93814Q13.9755,5.21678,9.59681,9.59402Q5.21816,13.9712,2.93879,19.7269Q0.839522,25.0277,0.839522,30.7289Q0.839523,36.43,2.93879,41.7309Q5.21815,47.4866,9.59681,51.8638Q13.9755,56.241,19.7331,58.5197Q25.0359,60.6183,30.7391,60.6183Q36.4423,60.6183,41.7451,58.5197Q47.5027,56.241,51.8814,51.8638Q56.2601,47.4866,58.5395,41.7309Q60.6387,36.4301,60.6387,30.7289Z" fill-rule="evenodd" fill="#FFFFFF" fill-opacity="1"/></g></g></g><g style="mix-blend-mode:passthrough"><g style="mix-blend-mode:passthrough"><g style="mix-blend-mode:passthrough"><path d="M20,18.51857C20,17.1276,21.1276,16,22.51857,16L39.837199999999996,16C41.2281,16,42.3557,17.1276,42.3557,18.51857L42.3557,43.512C42.3557,44.9029,41.2281,46.0305,39.837199999999996,46.0305L22.51857,46.0305C21.1276,46.0305,20,44.9029,20,43.512L20,18.51857ZM21.5,18.51857L21.5,43.512Q21.5,43.9339,21.79833,44.2322Q22.09666,44.5305,22.51857,44.5305L39.837199999999996,44.5305Q40.259100000000004,44.5305,40.5574,44.2322Q40.8557,43.9339,40.8557,43.512L40.8557,18.51857Q40.8557,18.09666,40.5574,17.79833Q40.259100000000004,17.5,39.837199999999996,17.5L22.51857,17.5Q22.09666,17.5,21.79833,17.79833Q21.5,18.09666,21.5,18.51857Z" fill-rule="evenodd" fill="#FFFFFF" fill-opacity="1"/></g><g style="mix-blend-mode:passthrough"><path d="M20,18.51857C20,17.1276,21.1276,16,22.51857,16L39.837199999999996,16C41.2281,16,42.3557,17.1276,42.3557,18.51857L42.3557,43.512C42.3557,44.9029,41.2281,46.0305,39.837199999999996,46.0305L22.51857,46.0305C21.1276,46.0305,20,44.9029,20,43.512L20,18.51857ZM21.5,18.51857L21.5,43.512Q21.5,43.9339,21.79833,44.2322Q22.09666,44.5305,22.51857,44.5305L39.837199999999996,44.5305Q40.259100000000004,44.5305,40.5574,44.2322Q40.8557,43.9339,40.8557,43.512L40.8557,18.51857Q40.8557,18.09666,40.5574,17.79833Q40.259100000000004,17.5,39.837199999999996,17.5L22.51857,17.5Q22.09666,17.5,21.79833,17.79833Q21.5,18.09666,21.5,18.51857Z" fill-rule="evenodd" fill="#FFFFFF" fill-opacity="1"/></g><g style="mix-blend-mode:passthrough"><path d="M26.31375509979248,25.475321799316404C26.29959509979248,25.475801799316407,26.28542509979248,25.476041799316405,26.27125509979248,25.476041799316405C25.57537209979248,25.476041799316405,25.01125073479248,24.911921799316406,25.01125073479248,24.216041799316407C25.01125073479248,23.520162799316406,25.57537209979248,22.956041574476405,26.27125509979248,22.956041574476405C26.28542509979248,22.956041574476405,26.29959509979248,22.956280663316406,26.31375509979248,22.956758737316406L29.13694509979248,22.956758737316406C29.15111509979248,22.956280663316406,29.16528509979248,22.956041574476405,29.17945509979248,22.956041574476405C29.19362509979248,22.956041574476405,29.20779509979248,22.956280663316406,29.22195509979248,22.956758737316406L32.04486509979248,22.956758737316406C32.05903509979248,22.956280663316406,32.07320509979248,22.956041574476405,32.08737509979248,22.956041574476405C32.783255099792484,22.956041574476405,33.34737509979248,23.520162799316406,33.34737509979248,24.216041799316407C33.34737509979248,24.911921799316406,32.783255099792484,25.476041799316405,32.08737509979248,25.476041799316405C32.07320509979248,25.476041799316405,32.05903509979248,25.475801799316407,32.04486509979248,25.475321799316404L30.43873509979248,25.475321799316404L30.43873509979248,30.179641799316407C30.43921509979248,30.193801799316407,30.439455099792482,30.207971799316407,30.439455099792482,30.222141799316407C30.439455099792482,30.918021799316406,29.87533509979248,31.482141799316405,29.17945509979248,31.482141799316405C28.483575099792482,31.482141799316405,27.91945509979248,30.918021799316406,27.91945509979248,30.222141799316407C27.91945509979248,30.207971799316407,27.91969509979248,30.193801799316407,27.92017509979248,30.179641799316407L27.92017509979248,25.475321799316404L26.31375509979248,25.475321799316404Z" fill-rule="evenodd" fill="#FFC300" fill-opacity="1"/></g><g style="mix-blend-mode:passthrough"><path d="M32.08627891540527,30.222759246826172L39.356428915405274,30.222759246826172C39.770648915405275,30.222759246826172,40.106428915405274,30.55854524682617,40.106428915405274,30.972759246826172C40.106428915405274,31.386969246826173,39.770648915405275,31.722759246826172,39.356428915405274,31.722759246826172L32.08627891540527,31.722759246826172C31.672064915405272,31.722759246826172,31.336278915405273,31.386969246826173,31.336278915405273,30.972759246826172C31.336278915405273,30.55854524682617,31.672064915405272,30.222759246826172,32.08627891540527,30.222759246826172Z" fill-rule="evenodd" fill="#FFFFFF" fill-opacity="1"/></g><g style="mix-blend-mode:passthrough"><path d="M26.270508289337158,34.72734451293945L39.35680828933716,34.72734451293945C39.77100828933716,34.72734451293945,40.10680828933716,35.06313051293945,40.10680828933716,35.47734451293945C40.10680828933716,35.89155451293945,39.77100828933716,36.22734451293945,39.35680828933716,36.22734451293945L26.270508289337158,36.22734451293945C25.856294289337157,36.22734451293945,25.520508289337158,35.89155451293945,25.520508289337158,35.47734451293945C25.520508289337158,35.06313051293945,25.856294289337157,34.72734451293945,26.270508289337158,34.72734451293945Z" fill-rule="evenodd" fill="#FFFFFF" fill-opacity="1"/></g><g style="mix-blend-mode:passthrough"><path d="M26.270508289337158,39.231929779052734L39.35680828933716,39.231929779052734C39.77100828933716,39.231929779052734,40.10680828933716,39.56771577905273,40.10680828933716,39.981929779052734C40.10680828933716,40.39613977905273,39.77100828933716,40.731929779052734,39.35680828933716,40.731929779052734L26.270508289337158,40.731929779052734C25.856294289337157,40.731929779052734,25.520508289337158,40.39613977905273,25.520508289337158,39.981929779052734C25.520508289337158,39.56771577905273,25.856294289337157,39.231929779052734,26.270508289337158,39.231929779052734Z" fill-rule="evenodd" fill="#FFFFFF" fill-opacity="1"/></g></g></g></g></svg>