<svg xmlns="http://www.w3.org/2000/svg" xmlns:xlink="http://www.w3.org/1999/xlink" fill="none" version="1.1" width="68.068359375" height="61.457794189453125" viewBox="0 0 68.068359375 61.457794189453125"><defs><filter id="master_svg0_414_9282" filterUnits="objectBoundingBox" color-interpolation-filters="sRGB" x="0" y="0" width="61.47824478149414" height="61.45779800415039"><feFlood flood-opacity="0" result="BackgroundImageFix"/><feBlend mode="normal" in="SourceGraphic" in2="BackgroundImageFix" result="shape"/><feGaussianBlur in="BackgroundImage" stdDeviation="1"/><feComposite in2="SourceAlpha" operator="in" result="effect1_foregroundBlur"/><feBlend mode="normal" in="SourceGraphic" in2="effect1_foregroundBlur" result="shape"/></filter><filter id="master_svg1_414_9281" filterUnits="objectBoundingBox" color-interpolation-filters="sRGB" x="0" y="0" width="61.47824478149414" height="61.45779800415039"><feFlood flood-opacity="0" result="BackgroundImageFix"/><feBlend mode="normal" in="SourceGraphic" in2="BackgroundImageFix" result="shape"/><feGaussianBlur in="BackgroundImage" stdDeviation="1"/><feComposite in2="SourceAlpha" operator="in" result="effect1_foregroundBlur"/><feBlend mode="normal" in="SourceGraphic" in2="effect1_foregroundBlur" result="shape"/></filter></defs><g style="mix-blend-mode:passthrough"><g style="mix-blend-mode:passthrough"><g style="mix-blend-mode:passthrough"><path d="M68.06804375,30.7289C68.06804375,47.7,54.30574375,61.4578,37.32894375,61.4578C20.35224375,61.4578,6.58984375,47.7,6.58984375,30.7289C6.58984375,13.7578,20.35224375,0,37.32894375,0C54.30574375,0,68.06804375,13.7578,68.06804375,30.7289Z" fill="#0C46E2" fill-opacity="1"/></g><g style="mix-blend-mode:passthrough"><g style="mix-blend-mode:passthrough" filter="url(#master_svg0_414_9282)"><path d="M61.4782,30.7289C61.4782,47.7,47.7159,61.4578,30.7391,61.4578C13.7624,61.4578,0,47.7,0,30.7289C0,13.7578,13.7624,0,30.7391,0C47.7159,0,61.4782,13.7578,61.4782,30.7289Z" fill="#FFFFFF" fill-opacity="0.2199999988079071"/></g><g style="mix-blend-mode:passthrough" filter="url(#master_svg1_414_9281)"><path d="M61.4782,30.7289C61.4782,47.7,47.7159,61.4578,30.7391,61.4578C13.7624,61.4578,0,47.7,0,30.7289C0,13.7578,13.7624,0,30.7391,0C47.7159,0,61.4782,13.7578,61.4782,30.7289ZM60.6387,30.7289Q60.6387,25.0277,58.5395,19.7269Q56.2601,13.9712,51.8814,9.59402Q47.5027,5.21678,41.7451,2.93814Q36.4423,0.839522,30.7391,0.839522Q25.0359,0.839523,19.7331,2.93814Q13.9755,5.21678,9.59681,9.59402Q5.21816,13.9712,2.93879,19.7269Q0.839522,25.0277,0.839522,30.7289Q0.839523,36.43,2.93879,41.7309Q5.21815,47.4866,9.59681,51.8638Q13.9755,56.241,19.7331,58.5197Q25.0359,60.6183,30.7391,60.6183Q36.4423,60.6183,41.7451,58.5197Q47.5027,56.241,51.8814,51.8638Q56.2601,47.4866,58.5395,41.7309Q60.6387,36.4301,60.6387,30.7289Z" fill-rule="evenodd" fill="#FFFFFF" fill-opacity="1"/></g></g></g><g style="mix-blend-mode:passthrough"><g style="mix-blend-mode:passthrough"><path d="M36.73273802146912,18L36.73273802146912,31.2239L38.23273802146912,31.2239L38.23273802146912,18Q38.23273802146912,16.86091,37.42733802146911,16.055456Q36.62183802146912,15.2499999403954,35.48273802146912,15.25L22.724138021469116,15.25Q21.585048021469117,15.25,20.779594021469116,16.055456Q19.974138081073715,16.86091,19.974138140678114,18L19.974138021469116,31.2239L21.474138021469116,31.2239L21.474138021469116,18Q21.474138021469116,17.48223,21.840258021469115,17.11612Q22.206368021469117,16.75,22.724138021469116,16.75L35.48273802146912,16.75Q36.00053802146911,16.75,36.366638021469115,17.11612Q36.73273802146912,17.48223,36.73273802146912,18Z" fill-rule="evenodd" fill="#FFFFFF" fill-opacity="1"/></g><g style="mix-blend-mode:passthrough"><path d="M16.25,32.77612018585205L16.25,44.00002018585205Q16.2500000596046,45.13912018585205,17.055456,45.94452018585205Q17.86091,46.75002018585205,19,46.75002018585205L42,46.75002018585205Q43.1391,46.75002018585205,43.944500000000005,45.94452018585205Q44.75,45.13912018585205,44.75,44.00002018585205L44.75,32.77612018585205Q44.75,31.63703018585205,43.944500000000005,30.83157618585205Q43.1391,30.02612018585205,42,30.02612018585205L19,30.02612018585205Q17.86091,30.02612018585205,17.055456,30.83157618585205Q16.25,31.63703018585205,16.25,32.77612018585205ZM18.11612,44.88392018585205Q17.75,44.51772018585205,17.75,44.00002018585205L17.75,32.77612018585205Q17.75,32.25835018585205,18.11612,31.89224018585205Q18.48223,31.52612018585205,19,31.52612018585205L42,31.52612018585205Q42.5178,31.52612018585205,42.8839,31.89224018585205Q43.25,32.25835018585205,43.25,32.77612018585205L43.25,44.00002018585205Q43.25,44.51772018585205,42.8839,44.88392018585205Q42.5178,45.25002018585205,42,45.25002018585205L19,45.25002018585205Q18.48223,45.25002018585205,18.11612,44.88392018585205Z" fill-rule="evenodd" fill="#FFFFFF" fill-opacity="1"/></g><g style="mix-blend-mode:passthrough"><path d="M24.448276042938232,20.62313461303711L33.75857604293823,20.62313461303711C34.172876042938235,20.62313461303711,34.50857604293823,20.958920613037108,34.50857604293823,21.37313461303711C34.50857604293823,21.78734461303711,34.172876042938235,22.12313461303711,33.75857604293823,22.12313461303711L24.448276042938232,22.12313461303711C24.03406204293823,22.12313461303711,23.698276042938232,21.78734461303711,23.698276042938232,21.37313461303711C23.698276042938232,20.958920613037108,24.03406204293823,20.62313461303711,24.448276042938232,20.62313461303711Z" fill-rule="evenodd" fill="#FFFFFF" fill-opacity="1"/></g><g style="mix-blend-mode:passthrough"><path d="M24.448276042938232,23.309701919555664L33.75857604293823,23.309701919555664C34.172876042938235,23.309701919555664,34.50857604293823,23.645487919555663,34.50857604293823,24.059701919555664C34.50857604293823,24.473911919555665,34.172876042938235,24.809701919555664,33.75857604293823,24.809701919555664L24.448276042938232,24.809701919555664C24.03406204293823,24.809701919555664,23.698276042938232,24.473911919555665,23.698276042938232,24.059701919555664C23.698276042938232,23.645487919555663,24.03406204293823,23.309701919555664,24.448276042938232,23.309701919555664Z" fill-rule="evenodd" fill="#FFFFFF" fill-opacity="1"/></g><g style="mix-blend-mode:passthrough"><path d="M24.448276042938232,25.99626922607422L33.75857604293823,25.99626922607422C34.172876042938235,25.99626922607422,34.50857604293823,26.332055226074218,34.50857604293823,26.74626922607422C34.50857604293823,27.16047922607422,34.172876042938235,27.49626922607422,33.75857604293823,27.49626922607422L24.448276042938232,27.49626922607422C24.03406204293823,27.49626922607422,23.698276042938232,27.16047922607422,23.698276042938232,26.74626922607422C23.698276042938232,26.332055226074218,24.03406204293823,25.99626922607422,24.448276042938232,25.99626922607422Z" fill-rule="evenodd" fill="#FFFFFF" fill-opacity="1"/></g><g style="mix-blend-mode:passthrough"><path d="M33.758619737854005,37.94030114562988C33.758619737854005,39.67134114562988,32.299689737854,41.07463114562988,30.499999737854004,41.07463114562988C28.700309737854003,41.07463114562988,27.241379737854004,39.67134114562988,27.241379737854004,37.94030114562988C27.241379737854004,36.20926114562988,28.700309737854003,34.80597114562988,30.499999737854004,34.80597114562988C32.299689737854,34.80597114562988,33.758619737854005,36.20926114562988,33.758619737854005,37.94030114562988Z" fill="#FFC300" fill-opacity="1"/></g><g style="mix-blend-mode:passthrough"><path d="M39.99137947570801,24.268656730651855L39.99137947570801,30.776116730651857L41.49137947570801,30.776116730651857L41.49137947570801,24.268656730651855Q41.49137947570801,23.129566730651856,40.685919475708005,22.324112730651855Q39.88046947570801,21.518656730651855,38.74137947570801,21.518656730651855L37.48275947570801,21.518656730651855L37.48275947570801,23.018656730651855L38.74137947570801,23.018656730651855Q39.25914947570801,23.018656730651855,39.625259475708006,23.384776730651854Q39.99137947570801,23.750886730651857,39.99137947570801,24.268656730651855Z" fill-rule="evenodd" fill="#FFFFFF" fill-opacity="1"/></g></g></g></svg>