<svg xmlns="http://www.w3.org/2000/svg" xmlns:xlink="http://www.w3.org/1999/xlink" fill="none" version="1.1" width="68.068359375" height="61.457794189453125" viewBox="0 0 68.068359375 61.457794189453125"><defs><filter id="master_svg0_414_9255" filterUnits="objectBoundingBox" color-interpolation-filters="sRGB" x="0" y="0" width="61.47824478149414" height="61.45779800415039"><feFlood flood-opacity="0" result="BackgroundImageFix"/><feBlend mode="normal" in="SourceGraphic" in2="BackgroundImageFix" result="shape"/><feGaussianBlur in="BackgroundImage" stdDeviation="1"/><feComposite in2="SourceAlpha" operator="in" result="effect1_foregroundBlur"/><feBlend mode="normal" in="SourceGraphic" in2="effect1_foregroundBlur" result="shape"/></filter><filter id="master_svg1_414_9254" filterUnits="objectBoundingBox" color-interpolation-filters="sRGB" x="0" y="0" width="61.47824478149414" height="61.45779800415039"><feFlood flood-opacity="0" result="BackgroundImageFix"/><feBlend mode="normal" in="SourceGraphic" in2="BackgroundImageFix" result="shape"/><feGaussianBlur in="BackgroundImage" stdDeviation="1"/><feComposite in2="SourceAlpha" operator="in" result="effect1_foregroundBlur"/><feBlend mode="normal" in="SourceGraphic" in2="effect1_foregroundBlur" result="shape"/></filter></defs><g style="mix-blend-mode:passthrough"><g style="mix-blend-mode:passthrough"><g style="mix-blend-mode:passthrough"><path d="M68.06804375,30.7289C68.06804375,47.7,54.30574375,61.4578,37.32894375,61.4578C20.35224375,61.4578,6.58984375,47.7,6.58984375,30.7289C6.58984375,13.7578,20.35224375,0,37.32894375,0C54.30574375,0,68.06804375,13.7578,68.06804375,30.7289Z" fill="#0C46E2" fill-opacity="1"/></g><g style="mix-blend-mode:passthrough"><g style="mix-blend-mode:passthrough" filter="url(#master_svg0_414_9255)"><path d="M61.4782,30.7289C61.4782,47.7,47.7159,61.4578,30.7391,61.4578C13.7624,61.4578,0,47.7,0,30.7289C0,13.7578,13.7624,0,30.7391,0C47.7159,0,61.4782,13.7578,61.4782,30.7289Z" fill="#FFFFFF" fill-opacity="0.2199999988079071"/></g><g style="mix-blend-mode:passthrough" filter="url(#master_svg1_414_9254)"><path d="M61.4782,30.7289C61.4782,47.7,47.7159,61.4578,30.7391,61.4578C13.7624,61.4578,0,47.7,0,30.7289C0,13.7578,13.7624,0,30.7391,0C47.7159,0,61.4782,13.7578,61.4782,30.7289ZM60.6387,30.7289Q60.6387,25.0277,58.5395,19.7269Q56.2601,13.9712,51.8814,9.59402Q47.5027,5.21678,41.7451,2.93814Q36.4423,0.839522,30.7391,0.839522Q25.0359,0.839523,19.7331,2.93814Q13.9755,5.21678,9.59681,9.59402Q5.21816,13.9712,2.93879,19.7269Q0.839522,25.0277,0.839522,30.7289Q0.839523,36.43,2.93879,41.7309Q5.21815,47.4866,9.59681,51.8638Q13.9755,56.241,19.7331,58.5197Q25.0359,60.6183,30.7391,60.6183Q36.4423,60.6183,41.7451,58.5197Q47.5027,56.241,51.8814,51.8638Q56.2601,47.4866,58.5395,41.7309Q60.6387,36.4301,60.6387,30.7289Z" fill-rule="evenodd" fill="#FFFFFF" fill-opacity="1"/></g></g></g><g style="mix-blend-mode:passthrough"><g style="mix-blend-mode:passthrough"><path d="M19.555786956329346,23.675923669921875C19.555786956329346,23.675923669921875,19.556266956329345,23.647586669921875,19.556266956329345,23.647586669921875C19.556266956329345,23.183667669921874,19.180186956329347,22.807586729526474,18.716266956329346,22.807586729526474C18.252347956329345,22.807586729526474,17.876267015933944,23.183667669921874,17.876267015933944,23.647586669921875C17.876267015933944,23.647586669921875,17.876745104329345,23.675923669921875,17.876745104329345,23.675923669921875L17.876745104329345,26.749446669921873C17.876745104329345,26.749446669921873,17.876267015933944,26.777786669921873,17.876267015933944,26.777786669921873C17.876267015933944,27.241706669921875,18.252347956329345,27.617786669921877,18.716266956329346,27.617786669921877C19.180186956329347,27.617786669921877,19.556266956329345,27.241706669921875,19.556266956329345,26.777786669921873C19.556266956329345,26.777786669921873,19.555786956329346,26.749446669921873,19.555786956329346,26.749446669921873L19.555786956329346,23.675923669921875Z" fill-rule="evenodd" fill="#FFC300" fill-opacity="1"/></g><g style="mix-blend-mode:passthrough"><path d="M19.399330045166014,29.124299958618163C19.399330045166014,29.494566958618165,19.093550045166015,29.794736958618163,18.716359045166016,29.794736958618163C18.339166045166017,29.794736958618163,18.033390045166016,29.494566958618165,18.033390045166016,29.124299958618163C18.033390045166016,28.754029958618165,18.339166045166017,28.453866958618164,18.716359045166016,28.453866958618164C19.093550045166015,28.453866958618164,19.399330045166014,28.754029958618165,19.399330045166014,29.124299958618163Z" fill="#FFFFFF" fill-opacity="1"/></g><g style="mix-blend-mode:passthrough"><path d="M21.509745597839355,31.45211787963867L21.509745597839355,26.442398102638673L23.009745597839355,26.845468879638673L30.128285597839355,28.75831787963867C30.417825597839354,28.83612787963867,30.722925597839357,28.83497787963867,31.011875597839357,28.755007879638672L37.08394559783935,27.07447787963867L38.58394559783936,26.659332879638672L38.58394559783936,31.45211787963867C38.58394559783936,35.39892787963867,34.76174559783936,38.59840787963867,30.046855597839354,38.59840787963867C25.331935597839355,38.59840787963867,21.509745597839355,35.39892787963867,21.509745597839355,31.45211787963867ZM23.009745597839355,31.45211787963867L23.009745597839355,28.398677879638672L29.739025597839355,30.206927879638673Q30.576355597839356,30.43193787963867,31.411985597839355,30.200667879638672L37.08394559783935,28.63086787963867L37.08394559783935,31.45211787963867Q37.08394559783935,33.711687879638674,35.120645597839356,35.35512787963867Q33.03804559783936,37.09840787963867,30.046855597839354,37.09840787963867Q27.055615597839356,37.09840787963867,24.973035597839356,35.35512787963867Q23.009745597839355,33.711687879638674,23.009745597839355,31.45211787963867Z" fill-rule="evenodd" fill="#FFFFFF" fill-opacity="1"/></g><g style="mix-blend-mode:passthrough" transform="matrix(0.7136027812957764,0.7005504965782166,-0.7136027812957764,0.7005504965782166,15.618063305508485,-18.47794482176249)"><path d="M30.640128566955568,26.840718438720703C30.067530566955565,27.980018438720702,31.356550566955566,29.151118438720705,32.435859566955564,28.472118438720702L42.56192956695557,22.101818438720706C42.72162956695557,22.001318438720702,42.85662956695557,21.866318438720704,42.957129566955565,21.706618438720703L49.32772956695557,11.582248438720704C50.00682956695557,10.503011438720703,48.83592956695557,9.213879438720703,47.69652956695556,9.786358438720702L36.717269566955565,15.302848438720703C36.47533956695557,15.424398438720704,36.27903956695557,15.620688438720702,36.157459566955566,15.862598438720703L30.640128566955568,26.840718438720703ZM41.716729566955564,20.8613184387207L32.368279566955565,26.742418438720705L37.46192956695557,16.607388438720704L47.59812956695556,11.514498438720704L41.716729566955564,20.8613184387207Z" fill-rule="evenodd" fill="#FFFFFF" fill-opacity="1"/></g><g style="mix-blend-mode:passthrough"><path d="M26.12795840194702,39.504958358872656C27.45583840194702,40.21760195947266,29.034978401947022,40.630830959472654,30.72947840194702,40.630830959472654C32.423978401947025,40.630830959472654,34.00307840194702,40.21758195947265,35.33097840194702,39.50490465397266C39.32667840194702,40.500223959472656,42.331978401947026,42.75359095947265,43.145278401947024,45.49993095947266C43.28927840194702,45.985910959472655,43.364478401947025,46.487320959472655,43.364478401947025,46.99993095947266L18.09467840194702,46.99993095947266C18.09467840194702,46.487320959472655,18.16997060194702,45.985910959472655,18.31389740194702,45.49993095947266C19.12723840194702,42.753640959472655,22.13241840194702,40.50030495947266,26.12795840194702,39.504958358872656ZM30.72947840194702,42.130830959472654Q33.289978401947025,42.130830959472654,35.494578401947024,41.10040095947266Q38.33727840194702,41.906420959472655,40.098178401947024,43.51928095947265Q41.13337840194702,44.46756095947266,41.56197840194702,45.49993095947266L19.89727840194702,45.49993095947266Q20.325768401947023,44.46759095947266,21.36101840194702,43.519330959472654Q23.12182840194702,41.906490959472656,25.964408401947022,41.10045095947265Q28.168978401947022,42.130830959472654,30.72947840194702,42.130830959472654Z" fill-rule="evenodd" fill="#FFFFFF" fill-opacity="1"/></g></g></g></svg>