<svg xmlns="http://www.w3.org/2000/svg" xmlns:xlink="http://www.w3.org/1999/xlink" fill="none" version="1.1" width="68.068359375" height="61.457794189453125" viewBox="0 0 68.068359375 61.457794189453125"><defs><filter id="master_svg0_414_9225" filterUnits="objectBoundingBox" color-interpolation-filters="sRGB" x="0" y="0" width="61.47824478149414" height="61.45779800415039"><feFlood flood-opacity="0" result="BackgroundImageFix"/><feBlend mode="normal" in="SourceGraphic" in2="BackgroundImageFix" result="shape"/><feGaussianBlur in="BackgroundImage" stdDeviation="2.5"/><feComposite in2="SourceAlpha" operator="in" result="effect1_foregroundBlur"/><feBlend mode="normal" in="SourceGraphic" in2="effect1_foregroundBlur" result="shape"/></filter><filter id="master_svg1_414_9224" filterUnits="objectBoundingBox" color-interpolation-filters="sRGB" x="0" y="0" width="61.47824478149414" height="61.45779800415039"><feFlood flood-opacity="0" result="BackgroundImageFix"/><feBlend mode="normal" in="SourceGraphic" in2="BackgroundImageFix" result="shape"/><feGaussianBlur in="BackgroundImage" stdDeviation="2.5"/><feComposite in2="SourceAlpha" operator="in" result="effect1_foregroundBlur"/><feBlend mode="normal" in="SourceGraphic" in2="effect1_foregroundBlur" result="shape"/></filter></defs><g style="mix-blend-mode:passthrough"><g style="mix-blend-mode:passthrough"><g style="mix-blend-mode:passthrough"><path d="M68.06804375,30.7289C68.06804375,47.7,54.30574375,61.4578,37.32894375,61.4578C20.35224375,61.4578,6.58984375,47.7,6.58984375,30.7289C6.58984375,13.7578,20.35224375,0,37.32894375,0C54.30574375,0,68.06804375,13.7578,68.06804375,30.7289Z" fill="#0C46E2" fill-opacity="1"/></g><g style="mix-blend-mode:passthrough"><g style="mix-blend-mode:passthrough" filter="url(#master_svg0_414_9225)"><path d="M61.4782,30.7289C61.4782,47.7,47.7159,61.4578,30.7391,61.4578C13.7624,61.4578,0,47.7,0,30.7289C0,13.7578,13.7624,0,30.7391,0C47.7159,0,61.4782,13.7578,61.4782,30.7289Z" fill="#FFFFFF" fill-opacity="0.2199999988079071"/></g><g style="mix-blend-mode:passthrough" filter="url(#master_svg1_414_9224)"><path d="M61.4782,30.7289C61.4782,47.7,47.7159,61.4578,30.7391,61.4578C13.7624,61.4578,0,47.7,0,30.7289C0,13.7578,13.7624,0,30.7391,0C47.7159,0,61.4782,13.7578,61.4782,30.7289ZM60.6387,30.7289Q60.6387,25.0277,58.5395,19.7269Q56.2601,13.9712,51.8814,9.59402Q47.5027,5.21678,41.7451,2.93814Q36.4423,0.839522,30.7391,0.839522Q25.0359,0.839523,19.7331,2.93814Q13.9755,5.21678,9.59681,9.59402Q5.21816,13.9712,2.93879,19.7269Q0.839522,25.0277,0.839522,30.7289Q0.839523,36.43,2.93879,41.7309Q5.21815,47.4866,9.59681,51.8638Q13.9755,56.241,19.7331,58.5197Q25.0359,60.6183,30.7391,60.6183Q36.4423,60.6183,41.7451,58.5197Q47.5027,56.241,51.8814,51.8638Q56.2601,47.4866,58.5395,41.7309Q60.6387,36.4301,60.6387,30.7289Z" fill-rule="evenodd" fill="#FFFFFF" fill-opacity="1"/></g></g></g><g style="mix-blend-mode:passthrough"><g style="mix-blend-mode:passthrough"><path d="M26.0227488,46.3442779296875C26.010653,46.4442779296875,26.0887118,46.5323779296875,26.189438,46.5323779296875L29.9947,46.5323779296875C30.08875,46.5323779296875,30.16446,46.455077929687505,30.16257,46.3610779296875L29.62024,19.3859379296875C29.616039999999998,19.1773079296875,29.31074,19.1619879296875,29.28568,19.3691479296875L26.0227488,46.3442779296875Z" fill="#FFFFFF" fill-opacity="1"/></g><g style="mix-blend-mode:passthrough"><path d="M31.749655046325685,46.569777929687504C31.637737046325682,46.6320779296875,31.499999046325684,46.5511779296875,31.499999046325684,46.4230779296875L31.499999046325684,16.1678189296875C31.499999046325684,15.9562318296875,31.810920046325684,15.9386739296875,31.834741046325682,16.1489159296875L34.144609046325684,36.5355779296875Q40.72695904632568,33.8468779296875,40.72695904632568,27.7948779296875Q40.72695904632568,21.4901679296875,32.98827904632569,20.1629079296875Q42.51279904632568,19.1674779296875,44.00099904632568,26.4675779296875Q45.45499904632568,33.5999779296875,34.69189904632568,41.3658779296875L35.05910904632568,44.606777929687496C35.06672904632568,44.6740779296875,35.033179046325685,44.7393779296875,34.97401904632569,44.7723779296875L31.749655046325685,46.569777929687504Z" fill-rule="evenodd" fill="#FFFFFF" fill-opacity="1"/></g><g style="mix-blend-mode:passthrough"><path d="M22.892923125549316,22.9998779296875L23.093412125549317,23.6877079296875L23.742142125549318,23.6877349296875L23.217322125549316,24.1128679296875L23.417772125549316,24.8007079296875L22.892923125549316,24.3756279296875L22.368076125549315,24.8007079296875L22.568521125549317,24.1128679296875L22.043702125549316,23.6877359296875L22.692431125549316,23.6877079296875L22.892923125549316,22.9998779296875Z" fill="#F29F10" fill-opacity="1"/></g><g style="mix-blend-mode:passthrough"><path d="M22.381130431976317,27.9998779296875L22.91577043197632,29.8340879296875L24.64572043197632,29.8341679296875L23.24620043197632,30.9678479296875L23.78072043197632,32.8020979296875L22.381130431976317,31.6685379296875L20.98153643197632,32.8020979296875L21.516060431976317,30.9678479296875L20.11654043197632,29.8341679296875L21.846480431976318,29.8340879296875L22.381130431976317,27.9998779296875Z" fill="#FFFFFF" fill-opacity="1"/></g><g style="mix-blend-mode:passthrough"><path d="M21.488207352752685,37.9998779296875L21.822357352752686,39.1462579296875L22.903577352752684,39.1463079296875L22.028877352752687,39.8548579296875L22.362947352752684,41.0012679296875L21.488207352752685,40.2927879296875L20.613460352752686,41.0012679296875L20.947535352752684,39.8548579296875L20.072837352752686,39.1463079296875L21.154057352752687,39.1462579296875L21.488207352752685,37.9998779296875Z" fill="#FFFFFF" fill-opacity="1"/></g><g style="mix-blend-mode:passthrough"><path d="M16.78584520477295,32.9998779296875L17.186835204772947,34.3755379296875L18.48428520477295,34.3755879296875L17.434655204772948,35.2258479296875L17.83554520477295,36.6015479296875L16.78584520477295,35.7513779296875L15.73615220477295,36.6015479296875L16.13704520477295,35.2258479296875L15.08740520477295,34.3755979296875L16.38486520477295,34.3755379296875L16.78584520477295,32.9998779296875Z" fill="#FFFFFF" fill-opacity="1"/></g><g style="mix-blend-mode:passthrough"><path d="M19.19055997756958,24.9998779296875L19.45788997756958,25.9169849296875L20.32285997756958,25.9170209296875L19.62309997756958,26.4838579296875L19.89035997756958,27.4009879296875L19.19055997756958,26.8342079296875L18.49076797756958,27.4009879296875L18.75802797756958,26.4838579296875L18.05826997756958,25.9170209296875L18.92324197756958,25.9169849296875L19.19055997756958,24.9998779296875Z" fill="#F29F10" fill-opacity="1"/></g></g></g></svg>