<svg xmlns="http://www.w3.org/2000/svg" xmlns:xlink="http://www.w3.org/1999/xlink" fill="none" version="1.1" width="68.068359375" height="61.457794189453125" viewBox="0 0 68.068359375 61.457794189453125"><defs><filter id="master_svg0_414_9316" filterUnits="objectBoundingBox" color-interpolation-filters="sRGB" x="0" y="0" width="61.47824478149414" height="61.45779800415039"><feFlood flood-opacity="0" result="BackgroundImageFix"/><feBlend mode="normal" in="SourceGraphic" in2="BackgroundImageFix" result="shape"/><feGaussianBlur in="BackgroundImage" stdDeviation="1"/><feComposite in2="SourceAlpha" operator="in" result="effect1_foregroundBlur"/><feBlend mode="normal" in="SourceGraphic" in2="effect1_foregroundBlur" result="shape"/></filter><filter id="master_svg1_414_9315" filterUnits="objectBoundingBox" color-interpolation-filters="sRGB" x="0" y="0" width="61.47824478149414" height="61.45779800415039"><feFlood flood-opacity="0" result="BackgroundImageFix"/><feBlend mode="normal" in="SourceGraphic" in2="BackgroundImageFix" result="shape"/><feGaussianBlur in="BackgroundImage" stdDeviation="1"/><feComposite in2="SourceAlpha" operator="in" result="effect1_foregroundBlur"/><feBlend mode="normal" in="SourceGraphic" in2="effect1_foregroundBlur" result="shape"/></filter></defs><g style="mix-blend-mode:passthrough"><g style="mix-blend-mode:passthrough"><g style="mix-blend-mode:passthrough"><path d="M68.06804375,30.7289C68.06804375,47.7,54.30574375,61.4578,37.32894375,61.4578C20.35224375,61.4578,6.58984375,47.7,6.58984375,30.7289C6.58984375,13.7578,20.35224375,0,37.32894375,0C54.30574375,0,68.06804375,13.7578,68.06804375,30.7289Z" fill="#0C46E2" fill-opacity="1"/></g><g style="mix-blend-mode:passthrough"><g style="mix-blend-mode:passthrough" filter="url(#master_svg0_414_9316)"><path d="M61.4782,30.7289C61.4782,47.7,47.7159,61.4578,30.7391,61.4578C13.7624,61.4578,0,47.7,0,30.7289C0,13.7578,13.7624,0,30.7391,0C47.7159,0,61.4782,13.7578,61.4782,30.7289Z" fill="#FFFFFF" fill-opacity="0.2199999988079071"/></g><g style="mix-blend-mode:passthrough" filter="url(#master_svg1_414_9315)"><path d="M61.4782,30.7289C61.4782,47.7,47.7159,61.4578,30.7391,61.4578C13.7624,61.4578,0,47.7,0,30.7289C0,13.7578,13.7624,0,30.7391,0C47.7159,0,61.4782,13.7578,61.4782,30.7289ZM60.6387,30.7289Q60.6387,25.0277,58.5395,19.7269Q56.2601,13.9712,51.8814,9.59402Q47.5027,5.21678,41.7451,2.93814Q36.4423,0.839522,30.7391,0.839522Q25.0359,0.839523,19.7331,2.93814Q13.9755,5.21678,9.59681,9.59402Q5.21816,13.9712,2.93879,19.7269Q0.839522,25.0277,0.839522,30.7289Q0.839523,36.43,2.93879,41.7309Q5.21815,47.4866,9.59681,51.8638Q13.9755,56.241,19.7331,58.5197Q25.0359,60.6183,30.7391,60.6183Q36.4423,60.6183,41.7451,58.5197Q47.5027,56.241,51.8814,51.8638Q56.2601,47.4866,58.5395,41.7309Q60.6387,36.4301,60.6387,30.7289Z" fill-rule="evenodd" fill="#FFFFFF" fill-opacity="1"/></g></g></g><g style="mix-blend-mode:passthrough"><g style="mix-blend-mode:passthrough"><g style="mix-blend-mode:passthrough"><path d="M25.25,28.60752773284912L35.75,28.60752773284912C36.1642,28.60752773284912,36.5,28.94331373284912,36.5,29.35752773284912C36.5,29.77173773284912,36.1642,30.10752773284912,35.75,30.10752773284912L25.25,30.10752773284912C24.835786,30.10752773284912,24.5,29.77173773284912,24.5,29.35752773284912C24.5,28.94331373284912,24.835786,28.60752773284912,25.25,28.60752773284912Z" fill-rule="evenodd" fill="#FFFFFF" fill-opacity="1"/></g><g style="mix-blend-mode:passthrough"><path d="M25.25,33.65425682067871L32.75,33.65425682067871C33.16421,33.65425682067871,33.5,33.99004282067871,33.5,34.40425682067871C33.5,34.81846682067871,33.16421,35.15425682067871,32.75,35.15425682067871L25.25,35.15425682067871C24.835786,35.15425682067871,24.5,34.81846682067871,24.5,34.40425682067871C24.5,33.99004282067871,24.835786,33.65425682067871,25.25,33.65425682067871Z" fill-rule="evenodd" fill="#FFFFFF" fill-opacity="1"/></g><g style="mix-blend-mode:passthrough"><path d="M25.25,23.56079864501953L35.75,23.56079864501953C36.1642,23.56079864501953,36.5,23.89658464501953,36.5,24.31079864501953C36.5,24.725008645019532,36.1642,25.06079864501953,35.75,25.06079864501953L25.25,25.06079864501953C24.835786,25.06079864501953,24.5,24.725008645019532,24.5,24.31079864501953C24.5,23.89658464501953,24.835786,23.56079864501953,25.25,23.56079864501953Z" fill-rule="evenodd" fill="#FFFFFF" fill-opacity="1"/></g></g><g style="mix-blend-mode:passthrough"><path d="M40,24.05146L40,35.9183L38.5,35.9183L38.5,19.75006Q38.5,19.23229,38.1339,18.86618Q37.7678,18.50006,37.25,18.50006L23.75,18.50006Q23.23223,18.50006,22.86612,18.86618Q22.5,19.23229,22.5,19.75006L22.5,40.9837Q22.5,41.5015,22.86612,41.867599999999996Q23.23223,42.2337,23.75,42.2337L38.7618,42.2337C38.754000000000005,42.315200000000004,38.75,42.397099999999995,38.75,42.479C38.75,42.9193,38.864000000000004,43.3517,39.0809,43.7337L23.75,43.7337Q22.61091,43.7337,21.805457,42.928200000000004Q21,42.1228,21,40.9837L21,19.75006Q21,18.610970000000002,21.805456,17.805518Q22.61091,17.0000610948,23.75,17.0000610352L37.25,17.0000610352Q38.3891,17.0000610352,39.194500000000005,17.805517000000002Q40,18.610970000000002,40,19.75006L40,22.55146L40.25,22.55146Q41.3891,22.55146,42.194500000000005,23.35692Q43,24.16237,43,25.30146L43,40.677C42.5944,40.2757,42.0651,40.0256,41.5,39.9683L41.5,25.30146Q41.5,24.7837,41.1339,24.41758Q40.7678,24.05146,40.25,24.05146L40,24.05146Z" fill-rule="evenodd" fill="#FFFFFF" fill-opacity="1"/></g><g style="mix-blend-mode:passthrough"><path d="M42.75,42.47902396728516C42.75,43.315193967285154,42.07843,43.99304396728515,41.25,43.99304396728515C40.421573,43.99304396728515,39.75,43.315193967285154,39.75,42.47902396728516C39.75,41.64285296728516,40.421573,40.965003967285156,41.25,40.965003967285156C42.07843,40.965003967285156,42.75,41.64285296728516,42.75,42.47902396728516Z" fill="#FFC300" fill-opacity="1"/></g></g></g></svg>