<svg xmlns="http://www.w3.org/2000/svg" xmlns:xlink="http://www.w3.org/1999/xlink" fill="none" version="1.1" width="70" height="25" viewBox="0 0 70 25"><defs><clipPath id="master_svg0_414_6336"><rect x="0" y="0" width="70" height="25" rx="0"/></clipPath></defs><g clip-path="url(#master_svg0_414_6336)"><g><path d="M40.087134375,24.712548828125L38.976434375,24.712548828125L38.989334375,14.775048828125L34.339864375,22.387548828125L33.526214375,22.387548828125L28.863854375,14.725048828125L28.838024375,24.712548828125L27.740234375,24.712548828125L27.740234375,12.487548828125L28.721785375,12.487548828125L33.913664374999996,21.037548828125L39.066834375,12.487548828125L40.087134375,12.487548828125L40.087134375,24.712548828125ZM42.347234375,15.975048828125L43.393334375,15.975048828125L43.393334375,24.787548828125L42.347234375,24.787548828125L42.347234375,15.975048828125ZM42.347234375,12.575048428125L43.393334375,12.575048428125L43.393334375,14.300048828125L42.347234375,14.300048828125L42.347234375,12.575048428125ZM53.260534375,18.387548828125C53.234734375,17.300048828125,52.588934375,16.012548828125,50.483734375,15.875048828125C48.817734375,15.762548828125,47.177534375,17.025048828125,46.841734375,18.037548828125L46.841734375,15.975048828125L45.795534375,15.975048828125L45.795534375,24.787548828125L46.841734375,24.787548828125L46.841734375,20.137548828125C46.828834375,18.450048828125,48.456134375000005,16.837548828125,50.147934375,16.800048828125C51.504034375,16.775048828125,52.214434374999996,17.700048828125,52.214434374999996,18.800048828125L52.214434374999996,24.800048828125L53.260534375,24.800048828125L53.260534375,18.425048828125L53.260534375,18.387548828125ZM62.391534375,22.512548828125C61.771634375,23.462548828125,60.699634375,24.037548828125,59.550234375,24.050048828125C57.716234375,24.012548828125,56.231034375,22.625048828125,56.114734375,20.850048828125L64.00593437500001,20.850048828125C64.00593437500001,20.712548828125,64.018834375,20.575048828125,64.018834375,20.437548828125C64.018834375,17.925048828125,62.017034375,15.887548828125,59.563134375000004,15.887548828125C57.109234375,15.887548828125,55.107434375,17.925048828125,55.107434375,20.437548828125C55.107434375,22.950048828125,57.109234375,24.987548828125,59.563134375000004,24.987548828125C61.177534375,24.975048828125,62.649834375,24.112548828125,63.424734375,22.737548828125L62.391534375,22.512548828125ZM59.537234375,16.775048828125C61.384134375,16.812548828125,62.882334375,18.225048828125,62.972734375,20.012548828125L56.088934375,20.012548828125C56.192234375,18.237548828125,57.690434374999995,16.825048828125,59.537234375,16.775048828125ZM69.99853437499999,16.025048828125C69.85643437499999,16.012548828125,69.714434375,16.000048828125,69.572334375,16.000048828125C68.26793437500001,16.000048828125,67.10553437499999,16.787548828125,66.65353437499999,17.975048828125L66.65353437499999,16.000048828125L65.58153437499999,16.000048828125L65.58153437499999,24.812548828125L66.65353437499999,24.812548828125L66.65353437499999,19.825048828125C66.74393437500001,18.225048828125,68.11293437500001,16.975048828125,69.766034375,16.975048828125L69.98563437499999,16.975048828125L69.99853437499999,16.025048828125Z" fill="#3B3837" fill-opacity="1"/></g><g><path d="M13.136131875,1.9500732421875L9.326171875,10.0125732421875L16.132441874999998,8.2625732421875L16.171191874999998,8.2500732421875L13.136131875,1.9500732421875Z" fill="#E9624C" fill-opacity="1"/></g><g><path d="M6.48046875,16.037646484375L16.21847875,19.012646484375L18.749868749999997,13.575146484375L16.82546875,9.587646484375L8.41773875,11.937646484375L6.48046875,16.037646484375Z" fill="#2A698D" fill-opacity="1"/></g><g><path d="M2.337890625,24.8001220703125L24.164490625,24.8001220703125L19.527890625,15.1876220703125L16.944890625,20.8626220703125L5.773320625,17.5376220703125L2.337890625,24.8001220703125Z" fill="#233D7E" fill-opacity="1"/></g><g><path d="M12.2177,0L0,0L0,24.8L0.154982,24.8L12.2048,0.0375L12.2177,0ZM14.0129,0L14.0258,0.025L26.2177,24.8L26.321,24.8L26.321,0L14.0129,0Z" fill="#3B3837" fill-opacity="1"/></g></g></svg>