
<svg xmlns="http://www.w3.org/2000/svg" xmlns:xlink="http://www.w3.org/1999/xlink" fill="none" version="1.1" width="32" height="32" viewBox="0 0 32 32"><defs><filter id="master_svg0_3014_36657" filterUnits="objectBoundingBox" color-interpolation-filters="sRGB" x="0" y="0" width="23.750669479370117" height="26.097488403320312"><feFlood flood-opacity="0" result="BackgroundImageFix"/><feBlend mode="normal" in="SourceGraphic" in2="BackgroundImageFix" result="shape"/><feColorMatrix in="SourceAlpha" type="matrix" result="hardAlpha" values="0 0 0 0 0 0 0 0 0 0 0 0 0 0 0 0 0 0 127 0"/><feOffset dy="2.370370388031006" dx="0"/><feGaussianBlur stdDeviation="2.9629628658294678"/><feComposite in2="hardAlpha" operator="arithmetic" k2="-1" k3="1"/><feColorMatrix type="matrix" values="0 0 0 0 1 0 0 0 0 1 0 0 0 0 1 0 0 0 0.6000000238418579 0"/><feBlend mode="normal" in2="shape" result="effect1_innerShadow"/></filter></defs><g style="mix-blend-mode:passthrough"><g style="mix-blend-mode:passthrough"></g><g style="mix-blend-mode:passthrough"><path d="M27.936030088806152,11.887677671813965C28.26423008880615,11.050417671813966,28.44443008880615,10.138847671813965,28.44443008880615,9.185187671813964C28.44443008880615,5.094187671813964,25.128030088806153,1.7777776718139648,21.03704008880615,1.7777776718139648C16.946040088806154,1.7777776718139648,13.629630088806152,5.094187671813964,13.629630088806152,9.185187671813964C13.629630088806152,13.276177671813965,16.946040088806154,16.592577671813963,21.03704008880615,16.592577671813963C23.098320088806155,16.592577671813963,24.962930088806154,15.750677671813964,26.305830088806154,14.391877671813965L28.396030088806153,16.039877671813965Q28.58123008880615,16.185877671813962,28.808130088806152,16.249877671813962Q29.035030088806153,16.313877671813962,29.26913008880615,16.286177671813967Q29.503230088806152,16.258477671813964,29.708930088806152,16.143277671813966Q29.914630088806152,16.028077671813964,30.060530088806154,15.842977671813966L30.435430088806154,15.367577671813965Q30.58133008880615,15.182377671813965,30.64543008880615,14.955477671813965Q30.70943008880615,14.728577671813964,30.68173008880615,14.494477671813964Q30.654030088806152,14.260377671813965,30.53883008880615,14.054677671813964Q30.423630088806153,13.848977671813964,30.23853008880615,13.703077671813965L27.936030088806152,11.887677671813965ZM24.179730088806153,6.042487671813965Q25.481530088806153,7.344237671813965,25.481530088806153,9.185187671813964Q25.481530088806153,11.026137671813965,24.179730088806153,12.327877671813965Q22.87799008880615,13.629677671813965,21.03704008880615,13.629677671813965Q19.19609008880615,13.629677671813965,17.894340088806153,12.327877671813965Q16.59259008880615,11.026137671813965,16.59259008880615,9.185187671813964Q16.59259008880615,7.344237671813965,17.894340088806153,6.042487671813965Q19.19609008880615,4.740737671813965,21.03704008880615,4.740737671813965Q22.87799008880615,4.740737671813965,24.179730088806153,6.042487671813965Z" fill-rule="evenodd" fill="#3870E0" fill-opacity="1"/></g><g style="opacity:0.800000011920929;mix-blend-mode:passthrough" filter="url(#master_svg0_3014_36657)"><path d="M1.82428095,18.981866444015502Q1.76940632,19.068566444015502,1.77868602,19.147666444015503Q1.84090565,19.678366444015502,4.78724375,19.8707664440155Q4.69328375,25.278566444015503,6.62123375,25.481466444015503Q8.54919375,25.684466444015502,11.85144375,25.481466444015503L11.79524375,29.648566444015504L21.28604375,27.851866444015503L21.33294375,23.130066444015505Q25.52804375,21.037066444015505,25.52804375,13.352286444015503C25.52794375,5.667536444015503,20.10484375,3.282979444015503,13.67614375,3.574492844015503C7.24742375,3.866006444015503,5.15523375,8.662576444015503,4.78724375,11.278186444015503C4.41925375,13.893766444015503,2.24708575,18.314166444015505,1.82428095,18.981866444015502Z" fill="#DBE7FF" fill-opacity="1"/></g></g></svg>
