
<svg xmlns="http://www.w3.org/2000/svg" xmlns:xlink="http://www.w3.org/1999/xlink" fill="none" version="1.1" width="75.229736328125" height="16" viewBox="0 0 75.229736328125 16"><defs><clipPath id="master_svg0_8635_056878"><rect x="0" y="0" width="16" height="16" rx="0"/></clipPath></defs><g style="mix-blend-mode:passthrough"><g style="mix-blend-mode:passthrough"><path d="M20.765625,2.3040399999999996L20.765625,3.29753L26.11589,3.29753L26.11589,14.431000000000001L27.13672,14.431000000000001L27.13672,6.47852C28.39909,7.1484000000000005,29.9668,8.1009,31.8307,9.3359L32.4323,8.4382C30.636699999999998,7.2897,28.87305,6.2825500000000005,27.13672,5.41211L27.13672,3.29753L33.2161,3.29753L33.2161,2.3040399999999996L20.765625,2.3040399999999996ZM35.5677,2.6959600000000004L35.5677,3.6210899999999997L38.2975,3.6210899999999997L38.2975,4.91081L34.838499999999996,4.91081L34.838499999999996,5.81771L42.690799999999996,5.81771C42.7773,7.0801,42.9323,8.1556,43.128299999999996,9.0807C43.2786,9.8236,43.460899999999995,10.498,43.6569,11.1133C42.946,12.1888,42.075500000000005,13,41.0684,13.560500000000001L41.6152,14.3763C42.540400000000005,13.8704,43.3652,13.154900000000001,44.0944,12.2025C44.2038,12.4714,44.3451,12.722,44.5,12.959C45.0469,13.8021,45.561800000000005,14.235,46.040400000000005,14.235C46.628299999999996,14.235,47.0612,13.296199999999999,47.3711,11.4323L46.500699999999995,10.972C46.332,12.4577,46.1361,13.200500000000002,45.912800000000004,13.214200000000002C45.689499999999995,13.214200000000002,45.3932,12.8633,45.0286,12.1751C44.9056,11.9245,44.778,11.6419,44.6686,11.3229C45.365899999999996,10.1471,45.9401,8.6751,46.386700000000005,6.925129999999999L45.4935,6.51953C45.1836,7.836600000000001,44.778,9.0124,44.276700000000005,10.0195C44.1901,9.6549,44.1081,9.2767,44.0215,8.8711C43.8665,8.0872,43.7572,7.0664,43.6706,5.81771L47.1432,5.81771L47.1432,4.91081L43.615899999999996,4.91081C43.5612,3.90365,43.5339,2.7688800000000002,43.5339,1.4928400000000002L42.554,1.4928400000000002C42.554,2.7233099999999997,42.5814,3.8580699999999997,42.6361,4.91081L39.2773,4.91081L39.2773,3.6210899999999997L41.8112,3.6210899999999997L41.8112,2.6959600000000004L39.2773,2.6959600000000004L39.2773,1.5201799999999999L38.2975,1.5201799999999999L38.2975,2.6959600000000004L35.5677,2.6959600000000004ZM44.974000000000004,1.6751300000000002L44.2038,2.16732C44.9056,2.9375,45.4525,3.6347699999999996,45.8444,4.26367L46.600899999999996,3.73503C46.2227,3.1471400000000003,45.675799999999995,2.4589800000000004,44.974000000000004,1.6751300000000002ZM41.8112,11.5462C41.123000000000005,11.6283,40.398399999999995,11.7148,39.628299999999996,11.7969L39.628299999999996,10.6484L41.7565,10.6484L41.7565,9.7962L39.628299999999996,9.7962L39.628299999999996,8.7025L38.6302,8.7025L38.6302,9.7962L36.825500000000005,9.7962C37.1764,9.2904,37.5137,8.7161,37.819,8.0736L41.879599999999996,8.0736L41.879599999999996,7.175800000000001L38.210899999999995,7.175800000000001C38.3249,6.8977900000000005,38.434200000000004,6.601559999999999,38.5482,6.29622L37.582,6.11393C37.4544,6.47852,37.3314,6.8431,37.1901,7.175800000000001L35.2578,7.175800000000001L35.2578,8.0736L36.7982,8.0736C36.460899999999995,8.7754,36.0964,9.3496,35.7044,9.8236L35.9004,10.6484L38.6302,10.6484L38.6302,11.8971C37.5957,11.9792,36.488299999999995,12.0658,35.3125,12.1341L35.4401,13.0729C36.5612,12.9863,37.623000000000005,12.9043,38.6302,12.804L38.6302,14.3626L39.628299999999996,14.3626L39.628299999999996,12.7083C40.3802,12.6263,41.1094,12.526,41.8112,12.444L41.8112,11.5462ZM53.6556,3.3841200000000002C53.2044,4.44596,52.3385,5.357419999999999,51.0625,6.11393L51.623000000000005,6.8431C52.1562,6.50586,52.6302,6.14128,53.054,5.74935C53.446,6.168620000000001,53.9199,6.560549999999999,54.4668,6.925129999999999C53.487,7.390000000000001,52.2702,7.75,50.825500000000005,8.0052L51.272099999999995,8.8164C52.8717,8.4655,54.2025,8.0052,55.278,7.430999999999999C56.2578,7.9779,57.4199,8.4245,58.778,8.7891L59.3112,8.0326C58.1081,7.75,57.0417,7.371700000000001,56.1029,6.925129999999999C56.9004,6.36458,57.4883,5.70833,57.8848,4.9655L57.8848,4.26367L54.1842,4.26367C54.3255,4.01302,54.4395,3.7623699999999998,54.5488,3.4934900000000004L53.6556,3.3841200000000002ZM55.278,6.492190000000001C54.6354,6.1002600000000005,54.0612,5.66732,53.569,5.1888000000000005C53.5964,5.134119999999999,53.6419,5.07943,53.6966,5.02018L56.873,5.02018C56.4948,5.580730000000001,55.9661,6.07292,55.278,6.492190000000001ZM52.5072,10.2565L52.1152,11.013C53.9883,11.3776,55.7975,11.8971,57.5339,12.5671L57.8665,11.7559C56.1621,11.1133,54.3665,10.6074,52.5072,10.2565ZM53.9609,8.2969L53.5007,8.9714C54.5352,9.304,55.5286,9.7552,56.4948,10.3431L56.9733,9.6139C56.0618,9.1081,55.0547,8.6615,53.9609,8.2969ZM60.7103,2.1809900000000004L49.2852,2.1809900000000004L49.2852,14.4036L50.265,14.4036L50.265,13.8294L59.7305,13.8294L59.7305,14.4036L60.7103,14.4036L60.7103,2.1809900000000004ZM50.265,12.9316L50.265,3.0742200000000004L59.7305,3.0742200000000004L59.7305,12.9316L50.265,12.9316ZM63.4538,2.7825499999999996L63.4538,3.70768L68.4805,3.70768L68.4805,5.033849999999999L64.265,5.033849999999999L64.265,5.95898L68.4805,5.95898L68.4805,7.2897L62.9616,7.2897L62.9616,8.2012L67.4596,8.2012C66.42060000000001,9.418,64.79820000000001,10.4115,62.556,11.1953L63.0892,12.0658C64.04169999999999,11.6875,64.8802,11.2682,65.63669999999999,10.8034L65.63669999999999,13C65.63669999999999,13.227900000000002,65.48179999999999,13.3965,65.1901,13.5059L65.5273,14.3763C67.0221,14.011700000000001,68.4941,13.5332,69.9525,12.9453L69.7565,12.0065C68.7174,12.4303,67.68289999999999,12.804,66.6302,13.113900000000001L66.6302,10.1335C67.40039999999999,9.5456,68.0339,8.8984,68.5215,8.2012L69.0137,8.2012C70.18950000000001,11.2363,72.09440000000001,13.282599999999999,74.69659999999999,14.3307L75.2298,13.4512C73.9264,12.959,72.8053,12.2161,71.8848,11.2363C72.77799999999999,10.8444,73.5755,10.2839,74.291,9.5729L73.5892,8.8984C72.8646,9.6686,72.10810000000001,10.2292,71.32419999999999,10.5938C70.7773,9.8919,70.3125,9.0944,69.9342,8.2012L75.0339,8.2012L75.0339,7.2897L69.515,7.2897L69.515,5.95898L73.7305,5.95898L73.7305,5.033849999999999L69.515,5.033849999999999L69.515,3.70768L74.54169999999999,3.70768L74.54169999999999,2.7825499999999996L69.515,2.7825499999999996L69.515,1.5930999999999997L68.4805,1.5930999999999997L68.4805,2.7825499999999996L63.4538,2.7825499999999996Z" fill="#202224" fill-opacity="1"/></g><g clip-path="url(#master_svg0_8635_056878)"><g><path d="M8.16651765625,12.06639375C8.08741765625,12.06909375,8.00878765625,12.05319375,7.93691765625,12.01999375C7.83130765625,11.99769375,7.73469765625,11.94449375,7.65931765625,11.86719375L2.7601176562500003,6.96719375C2.51420265625,6.72759375,2.51420265625,6.33239375,2.7601176562500003,6.09279375L2.81931765625,6.04079375C3.0642176562500003,5.84571375,3.4171576562499997,5.86820375,3.63531765625,6.09279375L7.60011765625,10.05999375L7.60011765625,1.49999375C7.60011765625,1.18319375,7.84971765625,0.93359375,8.16651765625,0.93359375L8.23851765625,0.93759377C8.522987656249999,0.97108635,8.73649765625,1.21357175,8.73371765625,1.49999375L8.73371765625,10.05999375L12.69929765625,6.09279375C12.93889765625,5.84687375,13.33409765625,5.84687375,13.57369765625,6.09279375C13.81959765625,6.33239375,13.81959765625,6.72759375,13.57369765625,6.96719375L8.67371765625,11.86719375C8.59361765625,11.94719375,8.491827656249999,12.00199375,8.38091765625,12.02479375C8.313717656249999,12.05529375,8.24025765625,12.06959375,8.16651765625,12.06639375ZM14.16649765625,14.06639375L2.16651865625,14.06639375C1.85259465625,14.06909375,1.59742355625,13.81389375,1.60011871335,13.49999375C1.60011871335,13.18319375,1.84971865625,12.93359375,2.16651865625,12.93359375L14.16649765625,12.93359375C14.48329765625,12.93359375,14.73369765625,13.18319375,14.73369765625,13.49999375C14.73639765625,13.81419375,14.48079765625,14.06949375,14.16649765625,14.06639375Z" fill="#4E5969" fill-opacity="1"/></g></g></g></svg>
