
<svg xmlns="http://www.w3.org/2000/svg" xmlns:xlink="http://www.w3.org/1999/xlink" fill="none" version="1.1" width="47.229736328125" height="16" viewBox="0 0 47.229736328125 16"><g style="mix-blend-mode:passthrough"><g style="mix-blend-mode:passthrough"><path d="M26.63542,1.60677C25.00846,3.3704400000000003,22.9668,4.85156,20.501302,6.04557L20.99349,6.925129999999999C23.4681,5.6809899999999995,25.473309999999998,4.20898,27,2.5136700000000003C28.64974,4.29557,30.622999999999998,5.73568,32.9473,6.856769999999999L33.4531,5.95898C31.1562,4.89714,29.12825,3.45247,27.36458,1.60677L26.63542,1.60677ZM23.08984,6.0319L23.08984,6.9934899999999995L26.48047,6.9934899999999995L26.48047,9.4316L22.41992,9.4316L22.41992,10.3978L26.48047,10.3978L26.48047,12.9863L21.17578,12.9863L21.17578,13.9844L32.8379,13.9844L32.8379,12.9863L27.514969999999998,12.9863L27.514969999999998,10.3978L31.561799999999998,10.3978L31.561799999999998,9.4316L27.514969999999998,9.4316L27.514969999999998,6.9934899999999995L30.9056,6.9934899999999995L30.9056,6.0319L23.08984,6.0319ZM43.6888,8.3561L43.6888,10.2292L41.0137,10.2292C41.0547,9.8783,41.082,9.5,41.0957,9.0944L41.0957,8.3561L43.6888,8.3561ZM43.6888,11.1543L43.6888,14.2897L44.650400000000005,14.2897L44.650400000000005,11.1543L47.2298,11.1543L47.2298,10.2292L44.650400000000005,10.2292L44.650400000000005,8.3561L46.682900000000004,8.3561L46.682900000000004,7.430999999999999L44.399699999999996,7.430999999999999C44.750699999999995,7.011699999999999,45.074200000000005,6.54688,45.365899999999996,6.04557L44.399699999999996,5.70833C44.0944,6.32357,43.7298,6.8977900000000005,43.324200000000005,7.430999999999999L41.136700000000005,7.430999999999999C40.8314,6.8431,40.4941,6.29622,40.1569,5.790369999999999L39.3047,6.1959599999999995C39.569,6.560549999999999,39.837900000000005,6.97982,40.102199999999996,7.430999999999999L37.8327,7.430999999999999L37.8327,8.3561L40.102199999999996,8.3561L40.102199999999996,9.0944C40.088499999999996,9.4863,40.0612,9.8646,40.0202,10.2292L37.3314,10.2292L37.3314,11.1543L39.806,11.1543C39.724000000000004,11.4186,39.628299999999996,11.6738,39.5143,11.9108C39.1224,12.6081,38.434200000000004,13.154900000000001,37.440799999999996,13.574200000000001L38.0013,14.458300000000001C39.0814,14.011700000000001,39.851600000000005,13.3783,40.325500000000005,12.5671C40.5488,12.1615,40.7174,11.6875,40.8587,11.1543L43.6888,11.1543ZM45.5208,3.00586L45.5208,4.44596L37.0488,4.44596L37.0488,3.00586L45.5208,3.00586ZM37.0488,5.398440000000001L46.500699999999995,5.398440000000001L46.500699999999995,2.0533900000000003L36.0553,2.0533900000000003L36.0553,6.7155000000000005C36.0417,9.5319,35.5814,11.8242,34.6562,13.619800000000001L35.5221,14.3763C36.5339,12.248,37.0352,9.6823,37.0488,6.7155000000000005L37.0488,5.398440000000001Z" fill="#202224" fill-opacity="1"/></g><g><g style="opacity:0;"><rect x="0" y="0" width="16" height="16" rx="0" fill="#000000" fill-opacity="1"/></g><g><path d="M2.535536,8.37546C2.239906,8.37546,2,8.61525,2,8.910779999999999L2,13.4623L2.00376491,13.4925L2.00752228,13.503L2.0138651,13.5372C2.0237333,13.5992,2.0414947,13.6547,2.067149,13.7048L2.108914,13.774L2.111892,13.7855C2.121334,13.8245,2.129765,13.8455,2.154641,13.8703C2.174368,13.8906,2.192784,13.9023,2.21832,13.9118L2.295693,13.9354L2.336688,13.9536C2.344837,13.9567,2.354134,13.9601,2.365315,13.964C2.465316,13.9978,2.51645,14.0077,2.5893699999999997,13.9967L7.08926,13.9976C7.38489,13.9976,7.62479,13.7578,7.62479,13.4623L7.61898,13.3832C7.58071,13.1251,7.35801,12.9269,7.08926,12.9269L3.82843,12.9264L7.49747,9.25968C7.69911,9.05814,7.69911,8.73155,7.49747,8.53001L7.43349,8.4756C7.23177,8.33051,6.94901,8.34865,6.76756,8.53001L3.07087,12.2234L3.0710699999999997,8.910779999999999C3.0710699999999997,8.61525,2.831166,8.37546,2.535536,8.37546ZM13.9329,2.296159L13.8911,2.2269740000000002L13.8881,2.215418C13.8787,2.1764580000000002,13.8702,2.155496,13.8454,2.130632C13.8256,2.11036,13.8072,2.0986608,13.7817,2.0891662L13.7128,2.0690289L13.6631,2.0472739L13.634,2.0367401C13.5347,2.00317796,13.4836,1.99330463,13.4106,2.00428707L8.91074,2.00339308C8.61511,2.00339308,8.37521,2.243181,8.37521,2.538705L8.38102,2.617783C8.41929,2.875845,8.64199,3.07402,8.91074,3.07402L12.1719,3.07339L8.50253,6.74128C8.300889999999999,6.94281,8.300889999999999,7.26941,8.50253,7.47095L8.566510000000001,7.52536C8.768229999999999,7.67045,9.050989999999999,7.65231,9.23244,7.47095L12.9287,3.77643L12.9289,7.09018C12.9289,7.38571,13.1688,7.6255,13.4645,7.6255C13.7601,7.6255,14,7.38571,14,7.09018L14,2.538705L13.9861,2.463809C13.9763,2.401768,13.9585,2.346252,13.9329,2.296159Z" fill="#4E5969" fill-opacity="1"/></g></g></g></svg>
