<svg xmlns="http://www.w3.org/2000/svg" xmlns:xlink="http://www.w3.org/1999/xlink" fill="none" version="1.1" width="16" height="16" viewBox="0 0 16 16"><defs><clipPath id="master_svg0_8635_056774"><rect x="0" y="0" width="16" height="16" rx="0"/></clipPath></defs><g clip-path="url(#master_svg0_8635_056774)"><g><path d="M4.449961796875,11.7600166796875L4.449961796875,11.6933466796875C4.4457017968749994,11.7153666796875,4.4457017968749994,11.7379966796875,4.449961796875,11.7600166796875ZM12.876591796875,2.9653466796875003L8.656631796875,2.9673466796875L8.653971796875,2.4006796796875C8.658041796875,2.1037966796875,8.420841796875,1.8597341896875,8.123971796875,1.8553466796875L7.593971796875,1.8553466796875C7.296821796875,1.8597322096875,7.059511796875,2.1042046796875,7.063971796875,2.4013466796875003L7.065971796875,2.9673466796875L2.786634796875,2.9700166796875003C2.489805796875,2.9751266796875,2.252920686875,3.2191666796875,2.256634521475,3.5160166796875C2.256634521475,3.8180166796875,2.493967796875,4.0620166796875,2.786634796875,4.0620166796875L3.3586317968749997,4.0620166796875L3.3619717968750003,12.2173466796875L3.362631796875,12.2173466796875L3.362631796875,12.7973466796875C3.362631796875,13.4000466796875,3.836631796875,13.8900466796875,4.422631796875001,13.8900466796875L4.952631796875,13.8900466796875L4.952631796875,13.8960466796875L10.781971796875,13.8900466796875L11.311971796875,13.8900466796875C11.889971796875,13.8900466796875,12.360591796875,13.4133466796875,12.371991796875,12.8180466796875L12.366591796875,5.4393466796875C12.371491796875,5.1424566796875,12.134851796875,4.8977866796875,11.837961796875,4.8926766796875C11.540511796875,4.8974366796875,11.302921796875,5.1418766796875,11.306631796875,5.4393466796875L11.311961796875,11.8140166796875C11.292631796875,12.6340466796875,11.065301796875,12.7860466796875,10.252631796875,12.7860466796875L10.800631796875,12.7993466796875L4.787301796875,12.8040466796875L5.483971796875,12.7860466796875C4.653971796875,12.7860466796875,4.434631796875,12.6293466796875,4.423971796875,11.7600166796875L4.430631796875,12.8040466796875L4.421961796874999,12.8040466796875L4.417971796874999,4.0640166796875L7.555971796875,4.0600166796875L7.598631796875,4.0620166796875C7.613961796875,4.0620166796875,7.627961796875,4.0620166796875,7.641961796875,4.0600166796875L8.081961796875,4.0600166796875C8.097241796875,4.0616766796874995,8.112601796875001,4.0623466796875,8.127961796874999,4.0620166796875C8.143961796875,4.0620166796875,8.159961796874999,4.0620166796875,8.174631796875001,4.0600166796875L12.876591796875,4.0580166796874995C13.173491796875,4.0532666796875,13.410391796875,3.8088966796875,13.405991796875,3.5120166796875C13.405991796875,3.2113466796875,13.168591796875,2.9653466796875003,12.876591796875,2.9653466796875003ZM11.343301796875,11.9013466796875L11.347301796875,12.7973466796875L11.321301796875,12.7973466796875L11.342631796875,11.9013466796875L11.343301796875,11.9013466796875ZM9.183301796875,5.1653466796875005C8.886581796875,5.1704566796875,8.649881796875,5.4146066796875,8.653971796875,5.7113466796875L8.657971796875,11.2880166796875C8.657971796875,11.5900166796875,8.894631796875,11.8346766796875,9.187971796875,11.8346766796875C9.481301796875,11.8346766796875,9.717971796875,11.5900166796875,9.717971796875,11.2880166796875L9.713971796875,5.7113466796875C9.718791796875,5.4139466796875,9.481371796874999,5.1690666796875,9.183971796875,5.1646766796875L9.183301796875,5.1653466796875005ZM6.534631796875,5.1653466796875005C6.237491796875,5.1697266796875,6.000181796875,5.4142066796875,6.004631796875,5.7113466796875L6.008631796875,11.2880166796875C6.008631796875,11.5900166796875,6.245971796875001,11.8346766796875,6.538631796875,11.8346766796875C6.835781796875,11.8299266796875,7.072791796875,11.5851566796875,7.067971796875,11.2880166796875L7.063961796875,5.7113466796875C7.068791796875,5.4141966796875,6.831781796875,5.169426679687501,6.534631796875,5.1646766796875L6.534631796875,5.1653466796875005Z" fill="#4E5969" fill-opacity="1"/></g></g></svg>
