<svg xmlns="http://www.w3.org/2000/svg" xmlns:xlink="http://www.w3.org/1999/xlink" fill="none" version="1.1" width="16" height="16" viewBox="0 0 16 16"><defs><clipPath id="master_svg0_8635_056784"><rect x="0" y="0" width="16" height="16" rx="0"/></clipPath></defs><g clip-path="url(#master_svg0_8635_056784)"><g><path d="M8.16651765625,12.06639375C8.08741765625,12.06909375,8.00878765625,12.05319375,7.93691765625,12.01999375C7.83130765625,11.99769375,7.73469765625,11.94449375,7.65931765625,11.86719375L2.7601176562500003,6.96719375C2.51420265625,6.72759375,2.51420265625,6.33239375,2.7601176562500003,6.09279375L2.81931765625,6.04079375C3.0642176562500003,5.84571375,3.4171576562499997,5.86820375,3.63531765625,6.09279375L7.60011765625,10.05999375L7.60011765625,1.49999375C7.60011765625,1.18319375,7.84971765625,0.93359375,8.16651765625,0.93359375L8.23851765625,0.93759377C8.522987656249999,0.97108635,8.73649765625,1.21357175,8.73371765625,1.49999375L8.73371765625,10.05999375L12.69929765625,6.09279375C12.93889765625,5.84687375,13.33409765625,5.84687375,13.57369765625,6.09279375C13.81959765625,6.33239375,13.81959765625,6.72759375,13.57369765625,6.96719375L8.67371765625,11.86719375C8.59361765625,11.94719375,8.491827656249999,12.00199375,8.38091765625,12.02479375C8.313717656249999,12.05529375,8.24025765625,12.06959375,8.16651765625,12.06639375ZM14.16649765625,14.06639375L2.16651865625,14.06639375C1.85259465625,14.06909375,1.59742355625,13.81389375,1.60011871335,13.49999375C1.60011871335,13.18319375,1.84971865625,12.93359375,2.16651865625,12.93359375L14.16649765625,12.93359375C14.48329765625,12.93359375,14.73369765625,13.18319375,14.73369765625,13.49999375C14.73639765625,13.81419375,14.48079765625,14.06949375,14.16649765625,14.06639375Z" fill="#4E5969" fill-opacity="1"/></g></g></svg>
