<svg t="1679370486726" class="icon" viewBox="0 0 1024 1024" version="1.1" xmlns="http://www.w3.org/2000/svg" p-id="3311" width="200" height="200"><path d="M784.256 124.8c53.44 0 99.2 36.736 111.68 87.68l1.92 9.664 1.024 8.896 0.32 8.704v544.512c0 53.44-36.736 99.2-87.68 111.68l-9.664 1.92-8.896 1.024-8.704 0.32H239.744c-53.44 0-99.2-36.736-111.68-87.68l-1.92-9.664-1.024-8.896-0.32-8.704V239.744c0-53.44 36.736-99.2 87.68-111.68l9.664-1.92 8.896-1.024 8.704-0.32h544.512z m-48.32 63.808V403.2c0 25.6-16 48-39.552 56.704l-7.296 2.176-6.912 1.152-6.72 0.384H348.608a60.416 60.416 0 0 1-56.576-39.616l-2.176-7.232-1.152-6.912-0.384-6.656 3.2-211.968-51.648 0.064a48.704 48.704 0 0 0-45.12 30.4l-1.984 6.208-1.088 5.888-0.384 6.016v544.576a48 48 0 0 0 29.76 44.672l5.888 1.92 6.144 1.28 6.784 0.448h544.64c19.776 0 37.248-12.096 44.544-29.632l2.24-6.784 1.088-5.888 0.32-6.016v-544.64a48.576 48.576 0 0 0-30.272-44.992l-6.208-1.984-5.888-1.088-54.4-3.072z m-379.392 1.664l-5.888 205.056 316.992 6.016 3.2-208.256-314.304-2.816z m210.048 42.624c12.8 0 24.192 7.04 30.08 18.24l2.24 4.992 1.28 5.312 0.512 5.632v54.4a34.176 34.176 0 0 1-64.32 16l-2.176-5.056-1.28-5.312-0.512-5.632v-54.4c0-18.88 15.296-34.176 34.176-34.176z" fill="#4E5969" p-id="3312"></path></svg>
