
<svg xmlns="http://www.w3.org/2000/svg" xmlns:xlink="http://www.w3.org/1999/xlink" fill="none" version="1.1" width="7" height="12" viewBox="0 0 7 12"><g style="mix-blend-mode:passthrough" transform="matrix(1,0,0,-1,0,24)"><g style="mix-blend-mode:passthrough"><g style="mix-blend-mode:passthrough" transform="matrix(-1,0,0,-1,13.06201171875,45.5)"><path d="M9.562095859374999,22.75C9.562095859374999,22.75,12.593175859375,26.5,12.593175859375,26.5C12.593175859375,26.5,6.531005859375,26.5,6.531005859375,26.5C6.531005859375,26.5,9.562095859374999,22.75,9.562095859374999,22.75C9.562095859374999,22.75,9.562095859374999,22.75,9.562095859374999,22.75Z" fill="#4B7EE3" fill-opacity="1"/></g></g><g style="opacity:0.20000000298023224;mix-blend-mode:passthrough" transform="matrix(1,0,0,-1,0,34)"><g style="mix-blend-mode:passthrough" transform="matrix(-1,0,0,-1,13.06201171875,41.5)"><path d="M9.562095859374999,20.75C9.562095859374999,20.75,12.593175859375,24.5,12.593175859375,24.5C12.593175859375,24.5,6.531005859375,24.5,6.531005859375,24.5C6.531005859375,24.5,9.562095859374999,20.75,9.562095859374999,20.75Z" fill="#202224" fill-opacity="1"/></g></g></g></svg>
