<svg xmlns="http://www.w3.org/2000/svg" xmlns:xlink="http://www.w3.org/1999/xlink" fill="none" version="1.1" width="7" height="12" viewBox="0 0 7 12"><g style="mix-blend-mode:passthrough"><g style="mix-blend-mode:passthrough"><g style="mix-blend-mode:passthrough" transform="matrix(-1,0,0,-1,13.06201171875,21.5)"><path d="M9.562095859374999,10.75C9.562095859374999,10.75,12.593175859375,14.5,12.593175859375,14.5C12.593175859375,14.5,6.531005859375,14.5,6.531005859375,14.5C6.531005859375,14.5,9.562095859374999,10.75,9.562095859374999,10.75C9.562095859374999,10.75,9.562095859374999,10.75,9.562095859374999,10.75Z" fill="#4B7EE3" fill-opacity="1"/></g></g><g style="opacity:0.20000000298023224;mix-blend-mode:passthrough" transform="matrix(1,0,0,-1,0,10)"><g style="mix-blend-mode:passthrough" transform="matrix(-1,0,0,-1,13.06201171875,17.5)"><path d="M9.562095859374999,8.75C9.562095859374999,8.75,12.593175859375,12.5,12.593175859375,12.5C12.593175859375,12.5,6.531005859375,12.5,6.531005859375,12.5C6.531005859375,12.5,9.562095859374999,8.75,9.562095859374999,8.75Z" fill="#202224" fill-opacity="1"/></g></g></g></svg>
