<svg xmlns="http://www.w3.org/2000/svg" xmlns:xlink="http://www.w3.org/1999/xlink" fill="none" version="1.1" width="166.00001525878906" height="111" viewBox="0 55.458984375 166.00001525878906 111"><defs><linearGradient x1="1.010917067527771" y1="0.4898419976234436" x2="-0.048034876585006714" y2="0.4695259630680084" id="master_svg0_290_41393"><stop offset="0%" stop-color="#FFFFFF" stop-opacity="1"/><stop offset="100%" stop-color="#3B82F6" stop-opacity="0"/></linearGradient><linearGradient x1="1.010917067527771" y1="0.4898419976234436" x2="-0.048034876585006714" y2="0.4695259630680084" id="master_svg1_290_41387"><stop offset="0%" stop-color="#FFFFFF" stop-opacity="0.7900000214576721"/><stop offset="100%" stop-color="#3B82F6" stop-opacity="0"/></linearGradient></defs><g style="mix-blend-mode:passthrough"><g style="mix-blend-mode:passthrough"><path d="M7.93359375,69.8232C7.93359375,31.261,37.59189375,0,74.17709375,0C74.17709375,0,99.43729375,0,99.43729375,0C136.02259375,0,165.68059375,31.261,165.68059375,69.8232C165.68059375,69.8232,165.68059375,96.1768,165.68059375,96.1768C165.68059375,134.739,136.02259375,166,99.43729375,166C99.43729375,166,74.17709375,166,74.17709375,166C37.59189375,166,7.93359375,134.739,7.93359375,96.1768C7.93359375,96.1768,7.93359375,69.8232,7.93359375,69.8232C7.93359375,69.8232,7.93359375,69.8232,7.93359375,69.8232Z" fill="url(#master_svg0_290_41393)" fill-opacity="0.5"/></g><g style="mix-blend-mode:passthrough" transform="matrix(-1,0,0,1,347.8671875,0)"><path d="M173.93359375,74.36419139404296C173.93359375,40.183191394042964,200.41829375,12.473991394042969,233.08879375,12.473991394042969C233.08879375,12.473991394042969,233.08879375,12.473991394042969,233.08879375,12.473991394042969C265.75929375,12.473991394042969,292.24359375,40.183191394042964,292.24359375,74.36419139404296C292.24359375,74.36419139404296,292.24359375,74.36419139404296,292.24359375,74.36419139404296C292.24359375,108.54519139404297,265.75929375,136.25399139404297,233.08879375,136.25399139404297C233.08879375,136.25399139404297,233.08879375,136.25399139404297,233.08879375,136.25399139404297C200.41829375,136.25399139404297,173.93359375,108.54519139404297,173.93359375,74.36419139404296C173.93359375,74.36419139404296,173.93359375,74.36419139404296,173.93359375,74.36419139404296C173.93359375,74.36419139404296,173.93359375,74.36419139404296,173.93359375,74.36419139404296Z" fill="url(#master_svg1_290_41387)" fill-opacity="0.6000000238418579"/></g></g></svg>