<svg xmlns="http://www.w3.org/2000/svg" xmlns:xlink="http://www.w3.org/1999/xlink" fill="none" version="1.1" width="28" height="28" viewBox="0 0 28 28"><defs><linearGradient x1="0.5" y1="0" x2="0.5" y2="1" id="master_svg0_8635_059066"><stop offset="0%" stop-color="#2D5EF0" stop-opacity="1"/><stop offset="100%" stop-color="#5B8CFF" stop-opacity="1"/></linearGradient><mask id="master_svg1_8635_059058"><g><path d="M5.55006,2.965247094631195L11.565059999999999,2.965247094631195C11.84339,2.965247094631195,12.110710000000001,3.103922094631195,12.307369999999999,3.350182094631195L13.35924,4.667267094631195C13.5559,4.9135270946311955,13.82341,5.0522070946311946,14.10091,5.0522070946311946L23.45,5.0522070946311946C24.03,5.0522070946311946,24.5,5.640737094631195,24.5,6.366997094631195L24.5,25.078247094631195C24.5,25.804447094631197,24.0299,26.393047094631196,23.45,26.393047094631196L5.55,26.393047094631196C4.970102,26.393047094631196,4.5,25.804447094631197,4.5,25.078247094631195L4.5,4.280037094631195C4.5,3.916909094631195,4.617489,3.588095094631195,4.807489,3.350182094631195C4.99749,3.1122690946311953,5.260063,2.965247094631195,5.55006,2.965247094631195Z" fill="#FFFFFF" fill-opacity="1"/></g></mask><linearGradient x1="0.5" y1="0" x2="0.5" y2="1" id="master_svg2_8635_059057"><stop offset="0%" stop-color="#549FFF" stop-opacity="0.800000011920929"/><stop offset="100%" stop-color="#54A8FF" stop-opacity="1"/></linearGradient></defs><g style="mix-blend-mode:passthrough"><g style="mix-blend-mode:passthrough"></g><g><g><g><g><path d="M5.55,2.39306640625L11.56502,2.39306640625L12.83333,2.39306640625L14.5,2.39306640625L16.5833,2.39306640625L23.45,2.39306640625C24.03,2.39306640625,24.5,3.0698294062500002,24.5,3.90502640625L24.5,24.88106640625C24.5,25.71616640625,24.0299,26.39306640625,23.45,26.39306640625L5.55,26.39306640625C4.970101,26.39306640625,4.5,25.71616640625,4.5,24.88106640625L4.5,3.90506640625C4.5,3.06986640625,4.97,2.39306640625,5.55,2.39306640625Z" fill="url(#master_svg0_8635_059066)" fill-opacity="1"/></g></g><g mask="url(#master_svg1_8635_059058)"><g><g transform="matrix(0,1,-1,0,38.578435361385345,-18.421563684940338)"><path d="M28.499999523162842,35.9610358382225L46.37999952316284,36.16543583822251L45.85809952316284,29.904535838222504L45.33649952316284,10.078435838222504L34.49031952316284,21.018535838222505L35.37450952316284,26.775135838222504L30.770999523162843,28.034735838222502L28.499999523162842,24.380135838222504L28.499999523162842,35.9610358382225Z" fill="#D8D8D8" fill-opacity="1"/></g><g transform="matrix(0,1,-1,0,39.276082621887326,-19.0618909727782)"><path d="M29.167713017332765,36.84939582455456L53.28108679733276,36.86299582455456L49.10718679733276,35.81959582455456L46.564986797332764,10.107095824554563L35.21509679733276,21.634995824554565L36.755416797332764,25.56789582455456L34.71341679733276,28.509795824554562L31.315466797332764,28.219895824554563L29.168986797332764,25.124895824554564L29.167713017332765,36.84939582455456Z" fill="url(#master_svg2_8635_059057)" fill-opacity="1"/></g></g></g></g><g style="mix-blend-mode:passthrough"><ellipse cx="13.8742356300354" cy="13.73324966430664" rx="3.6521739959716797" ry="3.6521739959716797" fill-opacity="0" stroke-opacity="1" stroke="#FFE173" fill="none" stroke-width="2.5" stroke-linejoin="round"/></g><g style="mix-blend-mode:passthrough"><path d="M19.077922109375,20.86681234375L15.713545109375,17.50255134375L17.481279109375,15.73475334375L20.845662109375,19.09901234375L19.077922109375,20.86681234375ZM21.211792109375,19.98291234375Q21.211792109375,20.04432234375,21.205772109375,20.10543234375Q21.199752109374998,20.16654234375,21.187772109375,20.22677234375Q21.175792109375,20.28700234375,21.157962109375,20.34576234375Q21.140142109375,20.40453234375,21.116642109375,20.46126234375Q21.093142109375002,20.51800234375,21.064192109375,20.57215234375Q21.035242109374998,20.62631234375,21.001132109375,20.67737234375Q20.967012109375,20.72843234375,20.928052109375,20.77590234375Q20.889102109375,20.823372343750002,20.845672109375002,20.86679234375Q20.802252109375,20.91021234375,20.754782109375,20.94917234375Q20.707312109375,20.98813234375,20.656252109375,21.02224234375Q20.605192109375,21.05636234375,20.551042109375,21.08531234375Q20.496882109375,21.11426234375,20.440142109375,21.13776234375Q20.383412109375,21.16126234375,20.324652109375002,21.17908234375Q20.265882109375,21.19691234375,20.205652109375,21.20889234375Q20.145422109375,21.22087234375,20.084312109375,21.226892343750002Q20.023202109375,21.23291234375,19.961792109375,21.23291234375Q19.900382109375002,21.23291234375,19.839272109375,21.226892343750002Q19.778162109375,21.22087234375,19.717932109375,21.20889234375Q19.657702109375002,21.19691234375,19.598932109375,21.17908234375Q19.540172109375,21.16126234375,19.483442109374998,21.13776234375Q19.426702109375,21.11426234375,19.372542109375,21.08531234375Q19.318392109375,21.05636234375,19.267332109375,21.02224234375Q19.216272109375,20.98813234375,19.168802109375,20.94917234375Q19.121332109375,20.91021234375,19.077912109375,20.86679234375Q19.034482109375,20.823372343750002,18.995532109375,20.77590234375Q18.956572109375,20.72843234375,18.922452109375,20.67737234375Q18.888342109375,20.62631234375,18.859392109375,20.57215234375Q18.830442109375,20.51800234375,18.806942109375,20.46126234375Q18.783442109375,20.40453234375,18.765612109375,20.34576234375Q18.747792109375,20.28700234375,18.735812109375,20.22677234375Q18.723832109375,20.16654234375,18.717812109375,20.10543234375Q18.711792109375,20.04432234375,18.711792109375,19.98291234375Q18.711792109375,19.92150234375,18.717812109375,19.86039234375Q18.723832109375,19.79927234375,18.735812109375,19.73904234375Q18.747792109375,19.67882234375,18.765612109375,19.62005234375Q18.783442109375,19.56129234375,18.806942109375,19.50455234375Q18.830442109375,19.44782234375,18.859392109375,19.39366234375Q18.888342109375,19.33950234375,18.922452109375,19.28844234375Q18.956572109375,19.23739234375,18.995532109375,19.18992234375Q19.034482109375,19.14245234375,19.077912109375,19.09902234375Q19.121332109375,19.05560234375,19.168802109375,19.01664234375Q19.216272109375,18.97769234375,19.267332109375,18.94357234375Q19.318392109375,18.90945234375,19.372542109375,18.88051234375Q19.426702109375,18.85156234375,19.483442109374998,18.82806234375Q19.540172109375,18.80456234375,19.598932109375,18.78673234375Q19.657702109375002,18.76891234375,19.717932109375,18.75693234375Q19.778162109375,18.74495234375,19.839272109375,18.73893234375Q19.900382109375002,18.73291234375,19.961792109375,18.73291234375Q20.023202109375,18.73291234375,20.084312109375,18.73893234375Q20.145422109375,18.74495234375,20.205652109375,18.75693234375Q20.265882109375,18.76891234375,20.324652109375002,18.78673234375Q20.383412109375,18.80456234375,20.440142109375,18.82806234375Q20.496882109375,18.85156234375,20.551042109375,18.88051234375Q20.605192109375,18.90945234375,20.656252109375,18.94357234375Q20.707312109375,18.97769234375,20.754782109375,19.01664234375Q20.802252109375,19.05560234375,20.845672109375002,19.09902234375Q20.889102109375,19.14245234375,20.928052109375,19.18992234375Q20.967012109375,19.23739234375,21.001132109375,19.28844234375Q21.035242109374998,19.33950234375,21.064192109375,19.39366234375Q21.093142109375002,19.44782234375,21.116642109375,19.50455234375Q21.140142109375,19.56129234375,21.157962109375,19.62005234375Q21.175792109375,19.67882234375,21.187772109375,19.73904234375Q21.199752109374998,19.79927234375,21.205772109375,19.86039234375Q21.211792109375,19.92150234375,21.211792109375,19.98291234375ZM17.847412109375,16.61865234375Q17.847412109375,16.68006094375,17.841392109375,16.74117334375Q17.835372109375,16.80228634375,17.823392109375,16.86251534375Q17.811412109375,16.92274334375,17.793592109375,16.98150834375Q17.775762109375002,17.04027234375,17.752262109375,17.09700634375Q17.728762109375,17.153740343750002,17.699812109375,17.20789834375Q17.670862109375,17.26205534375,17.636752109375,17.31311534375Q17.602632109375,17.36417434375,17.563675109375,17.41164434375Q17.524718109375,17.45911334375,17.481295109375,17.50253534375Q17.437873109375,17.54595834375,17.390404109375,17.58491534375Q17.342934109375,17.62387234375,17.291875109375,17.65799234375Q17.240815109375,17.69210234375,17.186658109375,17.72105234375Q17.132500109375002,17.75000234375,17.075766109375,17.77350234375Q17.019032109375,17.797002343750002,16.960268109375,17.81483234375Q16.901503109375,17.83265234375,16.841275109375,17.84463234375Q16.781046109375,17.85661234375,16.719933109375,17.86263234375Q16.658820709375,17.86865234375,16.597412109375,17.86865234375Q16.536003509375,17.86865234375,16.474891109375,17.86263234375Q16.413778109375,17.85661234375,16.353549109375,17.84463234375Q16.293321109375,17.83265234375,16.234556109375,17.81483234375Q16.175792109375,17.797002343750002,16.119058109375,17.77350234375Q16.062324109374998,17.75000234375,16.008166109375,17.72105234375Q15.954009109375,17.69210234375,15.902949109375,17.65799234375Q15.851890109375,17.62387234375,15.804420109375,17.58491534375Q15.756951109375,17.54595834375,15.713529109375,17.50253534375Q15.670106109375,17.45911334375,15.631149109375,17.41164434375Q15.592192109375,17.36417434375,15.558072109375,17.31311534375Q15.523962109375,17.26205534375,15.495012109375,17.20789834375Q15.466062109375,17.153740343750002,15.442562109375,17.09700634375Q15.419062109375,17.04027234375,15.401232109375,16.98150834375Q15.383412109375,16.92274334375,15.371432109375,16.86251534375Q15.359452109375,16.80228634375,15.353432109375,16.74117334375Q15.347412109375,16.68006094375,15.347412109375,16.61865234375Q15.347412109375,16.55724374375,15.353432109375,16.49613134375Q15.359452109375,16.43501834375,15.371432109375,16.37478934375Q15.383412109375,16.31456134375,15.401232109375,16.25579634375Q15.419062109375,16.19703234375,15.442562109375,16.14029834375Q15.466062109375,16.083564343749998,15.495012109375,16.02940634375Q15.523962109375,15.97524934375,15.558072109375,15.92418934375Q15.592192109375,15.87313034375,15.631149109375,15.82566034375Q15.670106109375,15.77819134375,15.713529109375,15.73476934375Q15.756951109375,15.69134634375,15.804420109375,15.65238934375Q15.851890109375,15.61343234375,15.902949109375,15.57931234375Q15.954009109375,15.54520234375,16.008166109375,15.51625234375Q16.062324109374998,15.48730234375,16.119058109375,15.46380234375Q16.175792109375,15.44030234375,16.234556109375,15.42247234375Q16.293321109375,15.40465234375,16.353549109375,15.39267234375Q16.413778109375,15.38069234375,16.474891109375,15.37467234375Q16.536003509375,15.36865234375,16.597412109375,15.36865234375Q16.658820709375,15.36865234375,16.719933109375,15.37467234375Q16.781046109375,15.38069234375,16.841275109375,15.39267234375Q16.901503109375,15.40465234375,16.960268109375,15.42247234375Q17.019032109375,15.44030234375,17.075766109375,15.46380234375Q17.132500109375002,15.48730234375,17.186658109375,15.51625234375Q17.240815109375,15.54520234375,17.291875109375,15.57931234375Q17.342934109375,15.61343234375,17.390404109375,15.65238934375Q17.437873109375,15.69134634375,17.481295109375,15.73476934375Q17.524718109375,15.77819134375,17.563675109375,15.82566034375Q17.602632109375,15.87313034375,17.636752109375,15.92418934375Q17.670862109375,15.97524934375,17.699812109375,16.02940634375Q17.728762109375,16.083564343749998,17.752262109375,16.14029834375Q17.775762109375002,16.19703234375,17.793592109375,16.25579634375Q17.811412109375,16.31456134375,17.823392109375,16.37478934375Q17.835372109375,16.43501834375,17.841392109375,16.49613134375Q17.847412109375,16.55724374375,17.847412109375,16.61865234375Z" fill="#FFE173" fill-opacity="1"/></g></g></g></svg>