<svg xmlns="http://www.w3.org/2000/svg" xmlns:xlink="http://www.w3.org/1999/xlink" fill="none" version="1.1" width="28" height="28" viewBox="0 0 28 28"><defs><linearGradient x1="0.5" y1="0" x2="0.5" y2="1" id="master_svg0_8635_056142"><stop offset="0%" stop-color="#2D5EF0" stop-opacity="1"/><stop offset="100%" stop-color="#5B8CFF" stop-opacity="1"/></linearGradient><mask id="master_svg1_8635_056121"><g><path d="M3.26,4L10.47803,4C10.81203,4,11.1329,4.132896,11.3689,4.368896L12.6311,5.6311C12.8671,5.8671,13.188,6,13.521,6L24.74,6C25.436,6,26,6.564,26,7.26L26,22.74C26,23.4359,25.4359,24,24.74,24L3.26,24C2.564121,24,2,23.4359,2,22.74L2,5.26C2,4.564,2.564,4,3.26,4Z" fill="#FFFFFF" fill-opacity="1"/></g></mask><linearGradient x1="0.5" y1="0" x2="0.5" y2="1" id="master_svg2_8635_056133"><stop offset="0%" stop-color="#549FFF" stop-opacity="0.800000011920929"/><stop offset="100%" stop-color="#54A8FF" stop-opacity="1"/></linearGradient></defs><g style="mix-blend-mode:passthrough"><g style="mix-blend-mode:passthrough"></g><g><g><g><g><path d="M3.26,4L10.47803,4L12,4L14,4L16.5,4L24.74,4C25.436,4,26,4.56401,26,5.26001L26,22.74C26,23.4359,25.4359,24,24.74,24L3.26,24C2.564121,24,2,23.4359,2,22.74L2,5.26C2,4.564,2.564,4,3.26,4Z" fill="url(#master_svg0_8635_056142)" fill-opacity="1"/></g></g><g mask="url(#master_svg1_8635_056121)"><g><g><path d="M2,24.000033378601074L25.5001,24.000033378601074L20.5,12.000033378601074L16,17.000033378601074L12.5,14.500033378601074L7.5,16.000033378601074L2,24.000033378601074Z" fill="#D8D8D8" fill-opacity="1"/></g><g><path d="M2,24.000033378601074L25.5,24.000033378601074L20.5,12.000033378601074L15,17.000033378601074L12.5,14.000033378601074L7.5,16.000033378601074L2,24.000033378601074Z" fill="url(#master_svg2_8635_056133)" fill-opacity="1"/></g></g><g style="mix-blend-mode:passthrough"><path d="M7.86112,15.523810000000001L10.86112,12.023813Q10.90907,11.9678632,10.96228,11.9168834Q11.01549,11.865904,11.07344,11.820385Q11.13139,11.774866,11.193529999999999,11.735247Q11.25566,11.695627,11.32138,11.662289Q11.3871,11.62895,11.45576,11.602213Q11.52443,11.575477,11.59539,11.5556Q11.66635,11.535723,11.73892,11.522896Q11.81148,11.51007,11.88496,11.504418Q11.95843,11.498767,12.0321,11.500344Q12.10578,11.501921,12.17894,11.510711Q12.2521,11.519502,12.32405,11.535422Q12.396,11.551342,12.46605,11.574237Q12.53609,11.597132,12.60355,11.626783Q12.671009999999999,11.656434,12.735240000000001,11.692554Q12.79947,11.728674,12.85986,11.770916Q12.92024,11.813158,12.976189999999999,11.861115Q13.019929999999999,11.898605,13.06066,11.9393399L16.06066,14.93934L15,16L13.93934,14.93934L17.93934,10.93934L20.0607,13.06066L16.06066,17.06066Q16.00855,17.11277,15.95159,17.15952Q15.89463,17.20626,15.83335,17.2472Q15.772079999999999,17.28815,15.70709,17.322879999999998Q15.642109999999999,17.35762,15.57402,17.38582Q15.505939999999999,17.41402,15.43543,17.43541Q15.36491,17.4568,15.292629999999999,17.47118Q15.22036,17.48555,15.14703,17.49278Q15.07369,17.5,15,17.5Q14.92631,17.5,14.85297,17.49278Q14.77964,17.48555,14.707360000000001,17.47118Q14.63509,17.4568,14.56457,17.43541Q14.494060000000001,17.41402,14.42597,17.38582Q14.357890000000001,17.35762,14.2929,17.322879999999998Q14.227920000000001,17.28815,14.166640000000001,17.2472Q14.10537,17.20626,14.04841,17.15952Q13.99145,17.11277,13.93934,17.06066L10.93934,14.06066L12,13L13.13889,13.976189999999999L10.13888,17.47619L7.86112,15.523810000000001ZM10.5,16.5Q10.5,16.57369,10.49278,16.64703Q10.48555,16.72036,10.47118,16.79263Q10.4568,16.864910000000002,10.435410000000001,16.93543Q10.41402,17.00594,10.38582,17.07402Q10.35762,17.14211,10.32288,17.20709Q10.28814,17.27208,10.2472,17.33335Q10.20626,17.39463,10.15952,17.45159Q10.11277,17.50855,10.06066,17.56066Q10.00855,17.61277,9.95159,17.65952Q9.894627,17.70626,9.833355,17.7472Q9.772084,17.78814,9.707095,17.822879999999998Q9.642106,17.85762,9.574025,17.88582Q9.505944,17.91402,9.435427,17.93541Q9.36491,17.9568,9.292635,17.97118Q9.220361,17.98555,9.147026,17.99278Q9.0736903,18,9,18Q8.9263097,18,8.852974,17.99278Q8.779639,17.98555,8.707365,17.97118Q8.63509,17.9568,8.564573,17.93541Q8.494056,17.91402,8.425975,17.88582Q8.357894,17.85762,8.292905,17.822879999999998Q8.227916,17.78814,8.166645,17.7472Q8.105373,17.70626,8.04841,17.65952Q7.99145,17.61277,7.93934,17.56066Q7.88723,17.50855,7.8404799999999994,17.45159Q7.79374,17.39463,7.7528,17.33335Q7.71186,17.27208,7.67712,17.20709Q7.64238,17.14211,7.61418,17.07402Q7.58598,17.00594,7.56459,16.93543Q7.5432,16.864910000000002,7.52882,16.79263Q7.51445,16.72036,7.50722,16.64703Q7.5,16.57369,7.5,16.5Q7.5,16.42631,7.50722,16.35297Q7.51445,16.27964,7.52882,16.20736Q7.5432,16.135089999999998,7.56459,16.06457Q7.58598,15.994060000000001,7.61418,15.92597Q7.64238,15.85789,7.67712,15.7929Q7.71186,15.727920000000001,7.7528,15.666640000000001Q7.79374,15.60537,7.8404799999999994,15.54841Q7.88723,15.49145,7.93934,15.43934Q7.99145,15.38723,8.04841,15.34048Q8.105373,15.29374,8.166645,15.2528Q8.227916,15.21186,8.292905,15.17712Q8.357894,15.14238,8.425975,15.114180000000001Q8.494056,15.08598,8.564573,15.064589999999999Q8.63509,15.0432,8.707365,15.02882Q8.779639,15.01445,8.852974,15.00722Q8.9263097,15,9,15Q9.0736903,15,9.147026,15.00722Q9.220361,15.01445,9.292635,15.02882Q9.36491,15.0432,9.435427,15.064589999999999Q9.505944,15.08598,9.574025,15.114180000000001Q9.642106,15.14238,9.707095,15.17712Q9.772084,15.21186,9.833355,15.2528Q9.894627,15.29374,9.95159,15.34048Q10.00855,15.38723,10.06066,15.43934Q10.11277,15.49145,10.15952,15.54841Q10.20626,15.60537,10.2472,15.666640000000001Q10.28814,15.727920000000001,10.32288,15.7929Q10.35762,15.85789,10.38582,15.92597Q10.41402,15.994060000000001,10.435410000000001,16.06457Q10.4568,16.135089999999998,10.47118,16.20736Q10.48555,16.27964,10.49278,16.35297Q10.5,16.42631,10.5,16.5ZM20.5,12Q20.5,12.0736903,20.492800000000003,12.147026Q20.485599999999998,12.220361,20.4712,12.292635Q20.4568,12.36491,20.4354,12.435427Q20.414,12.505944,20.3858,12.574025Q20.357599999999998,12.642106,20.3229,12.707095Q20.2881,12.772084,20.2472,12.833355Q20.2063,12.894627,20.1595,12.95159Q20.1128,13.00855,20.0607,13.06066Q20.0086,13.11277,19.9516,13.15952Q19.8946,13.20626,19.833399999999997,13.2472Q19.772100000000002,13.28814,19.7071,13.32288Q19.6421,13.35762,19.573999999999998,13.38582Q19.5059,13.41402,19.4354,13.435410000000001Q19.3649,13.4568,19.2926,13.47118Q19.220399999999998,13.48555,19.147,13.49278Q19.073700000000002,13.5,19,13.5Q18.92631,13.5,18.85297,13.49278Q18.77964,13.48555,18.70736,13.47118Q18.635089999999998,13.4568,18.56457,13.435410000000001Q18.49405,13.41402,18.42597,13.38582Q18.357889999999998,13.35762,18.2929,13.32288Q18.227919999999997,13.28814,18.16664,13.2472Q18.10537,13.20626,18.04841,13.15952Q17.99145,13.11277,17.93934,13.06066Q17.887230000000002,13.00855,17.84048,12.95159Q17.79373,12.894627,17.752789999999997,12.833355Q17.71185,12.772084,17.677120000000002,12.707095Q17.64238,12.642106,17.614179999999998,12.574025Q17.58598,12.505944,17.564590000000003,12.435427Q17.5432,12.36491,17.52882,12.292635Q17.51445,12.220361,17.50722,12.147026Q17.5,12.0736903,17.5,12Q17.5,11.9263097,17.50722,11.852974Q17.51445,11.779639,17.52882,11.707365Q17.5432,11.63509,17.564590000000003,11.564573Q17.58598,11.494056,17.614179999999998,11.425975Q17.64238,11.357894,17.677120000000002,11.292905Q17.71185,11.227916,17.752789999999997,11.166645Q17.79373,11.105373,17.84048,11.04841Q17.887230000000002,10.99145,17.93934,10.93934Q17.99145,10.88723,18.04841,10.84048Q18.10537,10.79374,18.16664,10.7528Q18.227919999999997,10.71186,18.2929,10.67712Q18.357889999999998,10.64238,18.42597,10.61418Q18.49405,10.58598,18.56457,10.564589999999999Q18.635089999999998,10.5432,18.70736,10.52882Q18.77964,10.51445,18.85297,10.50722Q18.92631,10.5,19,10.5Q19.073700000000002,10.5,19.147,10.50722Q19.220399999999998,10.51445,19.2926,10.52882Q19.3649,10.5432,19.4354,10.564589999999999Q19.5059,10.58598,19.573999999999998,10.61418Q19.6421,10.64238,19.7071,10.67712Q19.772100000000002,10.71186,19.833399999999997,10.7528Q19.8946,10.79374,19.9516,10.84048Q20.0086,10.88723,20.0607,10.93934Q20.1128,10.99145,20.1595,11.04841Q20.2063,11.105373,20.2472,11.166645Q20.2881,11.227916,20.3229,11.292905Q20.357599999999998,11.357894,20.3858,11.425975Q20.414,11.494056,20.4354,11.564573Q20.4568,11.63509,20.4712,11.707365Q20.485599999999998,11.779639,20.492800000000003,11.852974Q20.5,11.9263097,20.5,12Z" fill="#FFE173" fill-opacity="1"/></g></g></g></g></g></svg>