<svg xmlns="http://www.w3.org/2000/svg" xmlns:xlink="http://www.w3.org/1999/xlink" fill="none" version="1.1" width="28" height="28" viewBox="0 0 28 28"><defs><mask id="master_svg0_8635_055959"><g><path d="M3.26,4L10.47803,4C10.81203,4,11.1329,4.132896,11.3689,4.368896L12.6311,5.6311C12.8671,5.8671,13.188,6,13.521,6L24.74,6C25.436,6,26,6.564,26,7.26L26,22.74C26,23.4359,25.4359,24,24.74,24L3.26,24C2.564121,24,2,23.4359,2,22.74L2,5.26C2,4.564,2.564,4,3.26,4Z" fill="#FFFFFF" fill-opacity="1"/></g></mask></defs><g style="mix-blend-mode:passthrough"><g style="mix-blend-mode:passthrough"></g><g><g><g><g><path d="M3.26,4L10.47803,4C10.81203,4,11.1329,4.132896,11.3689,4.368896L12.6311,5.6311C12.8671,5.8671,13.188,6,13.521,6L24.74,6C25.436,6,26,6.564,26,7.26L26,22.74C26,23.4359,25.4359,24,24.74,24L3.26,24C2.564121,24,2,23.4359,2,22.74L2,5.26C2,4.564,2.564,4,3.26,4Z" fill="#ADBAE2" fill-opacity="1"/></g></g><g mask="url(#master_svg0_8635_055959)"><g><g><path d="M2.0001211166381836,24.000033378601074L25.500121116638184,24.000033378601074L18.000121116638184,13.000033378601074L10.000121116638184,13.000033378601074L2.0001211166381836,24.000033378601074Z" fill="#D8D8D8" fill-opacity="1"/></g><g><path d="M2.0001211166381836,24.000033378601074L25.500121116638184,24.000033378601074L18.000121116638184,13.000033378601074L10.000121116638184,13.000033378601074L2.0001211166381836,24.000033378601074Z" fill="#C3CEEF" fill-opacity="1"/></g></g><g style="mix-blend-mode:passthrough" transform="matrix(1,0,0,-1,0,32)"><rect x="9" y="16" width="10" height="3" rx="1.5" fill="#FFFFFF" fill-opacity="1"/></g></g></g></g></g></svg>