<svg xmlns="http://www.w3.org/2000/svg" xmlns:xlink="http://www.w3.org/1999/xlink" fill="none" version="1.1" width="28" height="28" viewBox="0 0 28 28"><defs><linearGradient x1="0.5" y1="0" x2="0.5" y2="1" id="master_svg0_8635_057283"><stop offset="0%" stop-color="#2D5EF0" stop-opacity="1"/><stop offset="100%" stop-color="#5B8CFF" stop-opacity="1"/></linearGradient><linearGradient x1="0.5" y1="0" x2="0.5" y2="1" id="master_svg1_8635_056037"><stop offset="0%" stop-color="#FFFFFF" stop-opacity="1"/><stop offset="100%" stop-color="#FFFFFF" stop-opacity="1"/></linearGradient><mask id="master_svg2_8635_057263"><g><path d="M25.3188634765625,6.96133Q25.4329634765625,7.02715,25.5260634765625,7.12024Q25.6190634765625,7.21334,25.6849634765625,7.32735Q25.7507634765625,7.44137,25.7848634765625,7.56853Q25.8188634765625,7.6957,25.8188634765625,7.82735L25.8188634765625,20.1726Q25.8188634765625,20.3043,25.7848634765625,20.4315Q25.7507634765625,20.5586,25.6849634765625,20.6726Q25.6190634765625,20.7867,25.5260634765625,20.8798Q25.4329634765625,20.9728,25.3188634765625,21.0387L14.6275634765625,27.2113Q14.5135634765625,27.2772,14.3863634765625,27.3112Q14.2592634765625,27.3453,14.1275634765625,27.3453Q13.9958634765625,27.3453,13.8687634765625,27.3112Q13.7415634765625,27.2772,13.6275634765625,27.2113L2.9362234765625,21.0387Q2.8222034765625,20.9728,2.7291134765625,20.8798Q2.6360234765625,20.7867,2.5701934765625003,20.6726Q2.5043734765625,20.5586,2.4702934765625,20.4315Q2.4362234765624997,20.3043,2.4362234765624997,20.1726L2.4362234765624997,7.82735Q2.4362234765624997,7.6957,2.4702934765625,7.56853Q2.5043734765625,7.44137,2.5701934765625003,7.32735Q2.6360234765625,7.21334,2.7291134765625,7.12024Q2.8222034765625,7.02715,2.9362234765625,6.96133L13.6275634765625,0.788675Q13.7415634765625,0.722849,13.8687634765625,0.688775Q13.9958634765625,0.654701,14.1275634765625,0.654701Q14.2592634765625,0.654701,14.3863634765625,0.688775Q14.5135634765625,0.722849,14.6275634765625,0.788675L25.3188634765625,6.96133Z" fill="url(#master_svg1_8635_056037)" fill-opacity="1"/></g></mask><linearGradient x1="0.5" y1="0" x2="0.5" y2="1" id="master_svg3_8635_057303"><stop offset="0%" stop-color="#549FFF" stop-opacity="0.800000011920929"/><stop offset="100%" stop-color="#54A8FF" stop-opacity="1"/></linearGradient></defs><g style="mix-blend-mode:passthrough"><g style="mix-blend-mode:passthrough"></g><g style="mix-blend-mode:passthrough"><g><path d="M25.3188634765625,6.96133Q25.4329634765625,7.02715,25.5260634765625,7.12024Q25.6190634765625,7.21334,25.6849634765625,7.32735Q25.7507634765625,7.44137,25.7848634765625,7.56853Q25.8188634765625,7.6957,25.8188634765625,7.82735L25.8188634765625,20.1726Q25.8188634765625,20.3043,25.7848634765625,20.4315Q25.7507634765625,20.5586,25.6849634765625,20.6726Q25.6190634765625,20.7867,25.5260634765625,20.8798Q25.4329634765625,20.9728,25.3188634765625,21.0387L14.6275634765625,27.2113Q14.5135634765625,27.2772,14.3863634765625,27.3112Q14.2592634765625,27.3453,14.1275634765625,27.3453Q13.9958634765625,27.3453,13.8687634765625,27.3112Q13.7415634765625,27.2772,13.6275634765625,27.2113L2.9362234765625,21.0387Q2.8222034765625,20.9728,2.7291134765625,20.8798Q2.6360234765625,20.7867,2.5701934765625003,20.6726Q2.5043734765625,20.5586,2.4702934765625,20.4315Q2.4362234765624997,20.3043,2.4362234765624997,20.1726L2.4362234765624997,7.82735Q2.4362234765624997,7.6957,2.4702934765625,7.56853Q2.5043734765625,7.44137,2.5701934765625003,7.32735Q2.6360234765625,7.21334,2.7291134765625,7.12024Q2.8222034765625,7.02715,2.9362234765625,6.96133L13.6275634765625,0.788675Q13.7415634765625,0.722849,13.8687634765625,0.688775Q13.9958634765625,0.654701,14.1275634765625,0.654701Q14.2592634765625,0.654701,14.3863634765625,0.688775Q14.5135634765625,0.722849,14.6275634765625,0.788675L25.3188634765625,6.96133Z" fill="url(#master_svg0_8635_057283)" fill-opacity="1"/></g><g style="mix-blend-mode:passthrough" mask="url(#master_svg2_8635_057263)"><g transform="matrix(0.9743710160255432,-0.22495128214359283,0.22495128214359283,0.9743710160255432,-3.7484195332667074,0.5229512843221471)"><path d="M0.4208039343357086,24.891373084716797L10.01448393433571,33.920293084716796L24.27070393433571,30.311393084716798L14.594403934335709,16.711193084716797L0.4208039343357086,24.891373084716797Z" fill="#D8D8D8" fill-opacity="1"/></g><g transform="matrix(0.9743710160255432,-0.22495128214359283,0.22495128214359283,0.9743710160255432,-3.741200171925229,0.5268438215342393)"><path d="M0.4414956569671631,24.82645751953125L9.740375656967164,34.248357519531254L24.696495656967162,30.746257519531248L14.589195656967163,16.68145751953125L0.4414956569671631,24.82645751953125Z" fill="url(#master_svg3_8635_057303)" fill-opacity="1"/></g></g><g style="mix-blend-mode:passthrough"><ellipse cx="14.30489182472229" cy="12.801238298416138" rx="3.9147884845733643" ry="3.9146931171417236" fill="#FFE173" fill-opacity="1"/></g></g></g></svg>