<svg xmlns="http://www.w3.org/2000/svg" xmlns:xlink="http://www.w3.org/1999/xlink" fill="none" version="1.1" width="28" height="28" viewBox="0 0 28 28"><defs><linearGradient x1="0.5" y1="0" x2="0.5" y2="1" id="master_svg0_8635_056037"><stop offset="0%" stop-color="#FFFFFF" stop-opacity="1"/><stop offset="100%" stop-color="#FFFFFF" stop-opacity="1"/></linearGradient><mask id="master_svg1_8635_056034"><g><path d="M25.0848546875,6.96133Q25.1989546875,7.02715,25.2920546875,7.12024Q25.3850546875,7.21334,25.4509546875,7.32735Q25.5167546875,7.44137,25.5508546875,7.56853Q25.5848546875,7.6957,25.5848546875,7.82735L25.5848546875,20.1726Q25.5848546875,20.3043,25.5508546875,20.4315Q25.5167546875,20.5586,25.4509546875,20.6726Q25.3850546875,20.7867,25.2920546875,20.8798Q25.1989546875,20.9728,25.0848546875,21.0387L14.3935546875,27.2113Q14.2795546875,27.2772,14.1523546875,27.3112Q14.0252546875,27.3453,13.8935546875,27.3453Q13.7618546875,27.3453,13.6347546875,27.3112Q13.5075546875,27.2772,13.3935546875,27.2113L2.7022146875,21.0387Q2.5881946875,20.9728,2.4951046875,20.8798Q2.4020146875,20.7867,2.3361846875000003,20.6726Q2.2703646875,20.5586,2.2362846875,20.4315Q2.2022146874999997,20.3043,2.2022146874999997,20.1726L2.2022146874999997,7.82735Q2.2022146874999997,7.6957,2.2362846875,7.56853Q2.2703646875,7.44137,2.3361846875000003,7.32735Q2.4020146875,7.21334,2.4951046875,7.12024Q2.5881946875,7.02715,2.7022146875,6.96133L13.3935546875,0.788675Q13.5075546875,0.722849,13.6347546875,0.688775Q13.7618546875,0.654701,13.8935546875,0.654701Q14.0252546875,0.654701,14.1523546875,0.688775Q14.2795546875,0.722849,14.3935546875,0.788675L25.0848546875,6.96133Z" fill="url(#master_svg0_8635_056037)" fill-opacity="1"/></g></mask></defs><g style="mix-blend-mode:passthrough"><g style="mix-blend-mode:passthrough"></g><g style="mix-blend-mode:passthrough"><g><path d="M24.5848546875,6.67265Q24.6984546875,6.73819,24.8024546875,6.81799Q24.9064546875,6.8978,24.9991546875,6.99049Q25.0917546875,7.08318,25.1716546875,7.18718Q25.2514546875,7.29118,25.3169546875,7.4047Q25.3824546875,7.51823,25.4326546875,7.63933Q25.4828546875,7.76044,25.5167546875,7.88706Q25.5506546875,8.01368,25.5677546875,8.143650000000001Q25.5848546875,8.27361,25.5848546875,8.4047L25.5848546875,19.5953Q25.5848546875,19.7264,25.5677546875,19.8564Q25.5506546875,19.9863,25.5167546875,20.1129Q25.4828546875,20.2396,25.4326546875,20.3607Q25.3824546875,20.4818,25.3169546875,20.5953Q25.2514546875,20.7088,25.1716546875,20.8128Q25.0918546875,20.9168,24.9991546875,21.0095Q24.9064546875,21.1022,24.8024546875,21.182Q24.6984546875,21.2618,24.5848546875,21.3274L14.8935546875,26.9227Q14.7800546875,26.9882,14.6589546875,27.0384Q14.5378546875,27.0885,14.4111546875,27.1225Q14.2845546875,27.1564,14.1546546875,27.1735Q14.0246546875,27.1906,13.8935546875,27.1906Q13.7624546875,27.1906,13.6324546875,27.1735Q13.5025546875,27.1564,13.3759546875,27.1225Q13.2492546875,27.0885,13.1281546875,27.0384Q13.0070546875,26.9882,12.8935546875,26.9227L3.2022146875,21.3274Q3.0886846875,21.2618,2.9846846875,21.182Q2.8806946875,21.1022,2.7879946875,21.0095Q2.6953046875,20.9168,2.6155046875,20.8128Q2.5357046875,20.7088,2.4701646875,20.5953Q2.4046146875,20.4818,2.3544546875,20.3607Q2.3042846875,20.2396,2.2703646875,20.1129Q2.2364346875,19.9863,2.2193246875,19.8564Q2.2022146874999997,19.7264,2.2022146874999997,19.5953L2.2022146874999997,8.4047Q2.2022146874999997,8.27361,2.2193246875,8.143650000000001Q2.2364346875,8.01368,2.2703646875,7.88706Q2.3042846875,7.76044,2.3544546875,7.63934Q2.4046146875,7.51823,2.4701646875,7.4047Q2.5357046875,7.29118,2.6155046875,7.18718Q2.6953046875,7.08318,2.7879946875,6.99049Q2.8806946875,6.8978,2.9846846875,6.818Q3.0886846875,6.73819,3.2022146875,6.67265L12.8935546875,1.07735Q13.0070546875,1.0118070000000001,13.1281546875,0.961642Q13.2492546875,0.911477,13.3759546875,0.877549Q13.5025546875,0.843622,13.6324546875,0.826511Q13.7624546875,0.809401,13.8935546875,0.809401Q14.0246546875,0.809401,14.1546546875,0.826511Q14.2845546875,0.843622,14.4111546875,0.877549Q14.5378546875,0.911477,14.6589546875,0.961642Q14.7800546875,1.0118070000000001,14.8935546875,1.07735L24.5848546875,6.67265Z" fill="#ADBAE2" fill-opacity="1"/></g><g style="mix-blend-mode:passthrough" mask="url(#master_svg1_8635_056034)"><g transform="matrix(0.9743710160255432,-0.22495128214359283,0.22495128214359283,0.9743710160255432,-3.7471975794299937,0.4742032444017603)"><path d="M0.20748686790466309,24.82645751953125L9.506366867904664,34.248357519531254L24.462486867904662,30.746257519531248L14.355186867904663,16.68145751953125L0.20748686790466309,24.82645751953125Z" fill="#C3CEEF" fill-opacity="1"/></g></g><g style="mix-blend-mode:passthrough"><ellipse cx="14.07088303565979" cy="12.801238298416138" rx="3.9147884845733643" ry="3.9146931171417236" fill="#FFFFFF" fill-opacity="1"/></g></g></g></svg>