
<svg xmlns="http://www.w3.org/2000/svg" xmlns:xlink="http://www.w3.org/1999/xlink" fill="none" version="1.1" width="88" height="80" viewBox="0 0 88 80"><defs><clipPath id="master_svg0_8905_76578"><rect x="0" y="0" width="88" height="80" rx="0"/></clipPath></defs><g style="opacity:0.30000001192092896;" clip-path="url(#master_svg0_8905_76578)"><g style="mix-blend-mode:passthrough" transform="matrix(0.9396927356719971,-0.342020183801651,0.342020183801651,0.9396927356719971,-8.318121703255226,1.4883254286836234)"><g style="mix-blend-mode:passthrough"><g transform="matrix(1,0.0033527512568980455,0.0033797896467149258,1,-0.08223490394216171,-0.031649484261116356)"><path d="M62.34285456600785,67.83826749267578L60.06145456600785,67.83826749267578Q59.833154566007856,68.23056749267579,59.59195456600785,68.61536749267577Q59.35075456600785,69.00006749267578,59.097054566007856,69.37686749267579Q58.84325456600785,69.75346749267578,58.57725456600785,70.12176749267579Q58.311254566007854,70.48996749267579,58.033254566007855,70.84946749267579Q57.75525456600785,71.20886749267578,57.46545456600785,71.55906749267578Q57.17575456600785,71.90926749267578,56.874654566007855,72.24996749267578Q56.573454566007854,72.59056749267577,56.26125456600785,72.92126749267578Q55.94905456600785,73.25186749267579,55.626154566007855,73.57226749267579Q55.303154566007855,73.89266749267578,54.969854566007854,74.20236749267579Q54.63655456600785,74.51206749267578,54.29315456600785,74.81076749267578Q53.949754566007854,75.10946749267578,53.59675456600785,75.39686749267578Q53.24375456600785,75.68436749267579,52.881454566007854,75.96006749267579Q52.519154566007856,76.23586749267578,52.14785456600785,76.49976749267577Q51.77665456600785,76.76366749267578,51.39685456600785,77.01546749267578Q51.017154566007854,77.26706749267578,50.62925456600785,77.50636749267578Q50.24145456600785,77.74556749267578,49.845954566007855,77.97206749267579Q49.45045456600785,78.19866749267578,49.04765456600785,78.41216749267579Q48.644954566007854,78.62576749267578,48.23525456600785,78.82616749267578Q47.82575456600785,79.02656749267578,47.40965456600785,79.21356749267578Q46.99375456600785,79.40046749267577,46.571754566007854,79.57386749267579Q46.14985456600785,79.74726749267577,45.72235456600785,79.90686749267579Q45.29495456600785,80.06646749267578,44.862454566007855,80.21206749267577Q44.430054566007854,80.35766749267577,43.99295456600785,80.48916749267579Q43.55585456600785,80.62066749267578,43.11485456600785,80.73796749267578Q42.673654566007855,80.85526749267578,42.22895456600785,80.95816749267578Q41.78415456600785,81.06096749267579,41.33625456600785,81.14936749267578Q40.88825456600785,81.23776749267577,40.43765456600785,81.31156749267578Q39.98695456600785,81.38536749267578,39.53425456600785,81.44456749267579Q39.08145456600785,81.50366749267579,38.62695456600785,81.54806749267578Q38.172354566007854,81.59246749267578,37.716654566007854,81.62216749267577Q37.260954566007854,81.65166749267578,36.80455456600785,81.66656749267578Q36.34805456600785,81.68136749267578,35.89135456600785,81.68136749267578Q35.434554566007854,81.68136749267578,34.97815456600785,81.66656749267578Q34.52175456600786,81.65166749267578,34.06595456600785,81.62216749267577Q33.61025456600785,81.59246749267578,33.155854566007854,81.54806749267578Q32.70125456600785,81.50366749267579,32.24845456600785,81.44456749267579Q31.79565456600785,81.38536749267578,31.345054566007853,81.31156749267578Q30.894454566007852,81.23776749267577,30.44655456600785,81.14936749267578Q29.998554566007854,81.06096749267579,29.553854566007853,80.95816749267578Q29.109054566007853,80.85526749267578,28.667954566007854,80.73796749267578Q28.226754566007852,80.62066749267578,27.789754566007854,80.48916749267579Q27.352654566007853,80.35766749267577,26.920154566007852,80.21206749267577Q26.48775456600785,80.06646749267578,26.060254566007853,79.90686749267579Q25.632854566007854,79.74726749267577,25.210954566007853,79.57386749267579Q24.789054566007852,79.40046749267577,24.372954566007852,79.21356749267578Q23.957054566007855,79.02656749267578,23.54745456600785,78.82616749267578Q23.137754566007853,78.62576749267578,22.735054566007854,78.41216749267579Q22.332254566007855,78.19866749267578,21.936654566007853,77.97206749267579Q21.541154566007854,77.74556749267578,21.153354566007852,77.50636749267578Q20.76555456600785,77.26706749267578,20.38585456600785,77.01546749267578Q20.006054566007855,76.76366749267578,19.634854566007853,76.49976749267577Q19.263614566007853,76.23586749267578,18.901294566007852,75.96006749267579Q18.538964566007852,75.68436749267579,18.18593456600785,75.39686749267578Q17.832884566007852,75.10946749267578,17.48952456600785,74.81076749267578Q17.14615456600785,74.51206749267578,16.81281456600785,74.20236749267579Q16.47948456600785,73.89266749267578,16.156544566007852,73.57226749267579Q15.833604566007853,73.25186749267579,15.521404566007853,72.92126749267578Q15.209214566007851,72.59056749267577,14.908084566007853,72.24996749267578Q14.606954566007852,71.90926749267578,14.317234566007851,71.55906749267578Q14.027494566007853,71.20886749267578,13.749464566007852,70.84946749267579Q13.471444566007852,70.48996749267579,13.205424566007853,70.12176749267579Q12.939404566007852,69.75346749267578,12.685674566007853,69.37686749267579Q12.431944566007854,69.00006749267578,12.190774566007853,68.61536749267577Q11.949604566007853,68.23056749267579,11.721254566007852,67.83826749267578L9.439854566007853,67.83826749267578Q11.525214566007852,71.77466749267577,14.746914566007852,74.97066749267577Q19.126064566007855,79.31476749267578,24.88435456600785,81.57626749267578Q30.18755456600785,83.65896749267577,35.89135456600785,83.65896749267577Q41.59515456600785,83.65896749267577,46.89845456600785,81.57626749267578Q52.656554566007856,79.31476749267578,57.03575456600785,74.97066749267577Q60.25745456600785,71.77466749267577,62.34285456600785,67.83826749267578ZM22.703754566007852,39.16326749267578L25.97375456600785,39.16326749267578Q26.52125456600785,38.80296749267578,27.093954566007852,38.48336749267578Q27.666554566007854,38.16376749267578,28.261254566007853,37.88656749267578Q28.855854566007853,37.60936749267578,29.46935456600785,37.37606749267578Q30.083054566007853,37.14276749267578,30.712054566007854,36.95456749267578Q31.34115456600785,36.76646749267578,31.982454566007853,36.624467492675784Q32.62365456600786,36.48246749267578,33.27375456600785,36.38736749267578Q33.92375456600785,36.29216749267578,34.57895456600785,36.244567492675785Q35.23425456600785,36.19686749267578,35.89135456600785,36.19686749267578Q36.54835456600785,36.19686749267578,37.20375456600785,36.244567492675785Q37.859054566007856,36.29216749267578,38.50905456600785,36.38736749267578Q39.15895456600785,36.48246749267578,39.800354566007854,36.624467492675784Q40.441654566007855,36.76646749267578,41.07065456600785,36.95456749267578Q41.699754566007854,37.14276749267578,42.31325456600785,37.37606749267578Q42.926854566007854,37.60936749267578,43.521454566007854,37.88656749267578Q44.11615456600785,38.16376749267578,44.688854566007855,38.48336749267578Q45.26145456600785,38.80296749267578,45.808954566007856,39.16326749267578L49.079054566007855,39.16326749267578Q46.48475456600785,36.886267492675785,43.22935456600785,35.607767492675784Q39.69385456600786,34.21929749267578,35.89135456600785,34.21929749267578Q32.08885456600785,34.21929749267578,28.55325456600785,35.607767492675784Q25.297954566007853,36.886267492675785,22.703754566007852,39.16326749267578ZM59.45785456600785,39.16326749267578L61.794354566007854,39.16326749267578Q59.84805456600785,35.80936749267578,57.03575456600785,33.01969749267578Q52.656554566007856,28.67551749267578,46.89845456600785,26.414107492675782Q41.59505456600785,24.33136749267578,35.89135456600785,24.33136749267578Q30.18755456600785,24.33136749267578,24.88435456600785,26.414107492675782Q19.12607456600785,28.67552749267578,14.746914566007852,33.01969749267578Q11.934734566007853,35.80936749267578,9.988380566007853,39.16326749267578L12.324824566007852,39.16326749267578Q12.794744566007854,38.42846749267578,13.310264566007852,37.72436749267578Q13.825774566007851,37.02036749267578,14.384854566007853,36.34976749267578Q14.943914566007852,35.67926749267578,15.544334566007851,35.04486749267578Q16.14474456600785,34.41046749267578,16.784134566007854,33.814677492675784Q17.423524566007853,33.21892749267578,18.099374566007853,32.66418749267578Q18.775214566007854,32.109447492675784,19.484854566007854,31.59790749267578Q20.194454566007852,31.08635749267578,20.935054566007853,30.62002749267578Q21.67565456600785,30.15370749267578,22.444354566007853,29.73443749267578Q23.21305456600785,29.31516749267578,24.006654566007853,28.944617492675782Q24.800354566007854,28.57405749267578,25.616054566007854,28.25367749267578Q26.431554566007854,27.93330749267578,27.265854566007853,27.66436749267578Q28.100054566007852,27.395427492675783,28.94965456600785,27.17899749267578Q29.799354566007853,26.96256749267578,30.661054566007852,26.79948749267578Q31.52265456600785,26.63639749267578,32.392854566007856,26.52732749267578Q33.26325456600785,26.418247492675782,34.13875456600785,26.363607492675783Q35.01415456600785,26.30895749267578,35.89135456600785,26.30895749267578Q36.76855456600785,26.30895749267578,37.64405456600785,26.363607492675783Q38.51945456600785,26.418247492675782,39.38975456600785,26.52732749267578Q40.26005456600785,26.63639749267578,41.12175456600785,26.79948749267578Q41.983354566007854,26.96256749267578,42.83305456600785,27.17899749267578Q43.682654566007855,27.395427492675783,44.51685456600785,27.66436749267578Q45.35115456600785,27.93330749267578,46.16665456600785,28.25367749267578Q46.98235456600785,28.57405749267578,47.775954566007854,28.944617492675782Q48.569654566007856,29.31516749267578,49.33835456600785,29.73443749267578Q50.10695456600785,30.15370749267578,50.847654566007854,30.62002749267578Q51.588254566007855,31.08635749267578,52.29785456600785,31.59789749267578Q53.007554566007855,32.109447492675784,53.68335456600785,32.66418749267578Q54.35915456600785,33.21892749267578,54.998554566007854,33.814677492675784Q55.63795456600785,34.41046749267578,56.23835456600785,35.04486749267578Q56.83875456600785,35.67926749267578,57.39785456600785,36.34976749267578Q57.95695456600785,37.02036749267578,58.472454566007855,37.72436749267578Q58.98795456600785,38.42846749267578,59.45785456600785,39.16326749267578ZM21.654754566007853,67.83826749267578Q21.72445456600785,67.90876749267578,21.795054566007853,67.97876749267579Q24.714454566007852,70.87496749267578,28.55325456600785,72.38256749267578Q32.08885456600785,73.77106749267578,35.89135456600785,73.77106749267578Q39.69385456600786,73.77106749267578,43.22935456600785,72.38256749267578Q47.068154566007856,70.87496749267578,49.987654566007855,67.97876749267579Q50.058254566007854,67.90876749267578,50.12795456600785,67.83826749267578L47.16835456600785,67.83826749267578Q46.57525456600785,68.31376749267578,45.943554566007855,68.73756749267578Q45.31185456600785,69.16146749267578,44.646254566007855,69.53066749267578Q43.98065456600785,69.89976749267578,43.28575456600785,70.21156749267578Q42.59095456600785,70.52336749267579,41.871854566007855,70.77556749267578Q41.15295456600785,71.02766749267579,40.41495456600785,71.21846749267579Q39.67695456600785,71.40916749267578,38.925354566007854,71.53716749267579Q38.173654566007855,71.66496749267577,37.413854566007856,71.72926749267577Q36.653954566007855,71.79346749267577,35.89135456600785,71.79346749267577Q35.12865456600785,71.79346749267577,34.368854566007855,71.72926749267577Q33.609054566007856,71.66496749267577,32.85735456600786,71.53716749267579Q32.10575456600785,71.40916749267578,31.367754566007854,71.21846749267579Q30.629854566007854,71.02766749267579,29.910754566007853,70.77556749267578Q29.19185456600785,70.52336749267579,28.49695456600785,70.21156749267578Q27.802154566007854,69.89976749267578,27.136454566007853,69.53056749267577Q26.47085456600785,69.16146749267578,25.839154566007853,68.73756749267578Q25.207454566007854,68.31376749267578,24.61425456600785,67.83826749267578L21.654754566007853,67.83826749267578Z" fill-rule="evenodd" fill="#3870E0" fill-opacity="1"/></g></g><g style="mix-blend-mode:passthrough" transform="matrix(1,-2.8131353246863e-8,2.8131353246863e-8,1,-0.0000011286282525294067,1.7245653793906968e-9)"><g transform="matrix(1,0.0033527726773172617,0.0033797610085457563,1,-0.13559581466140536,-0.00020553849868321095)"><path d="M0.061304036527872086,42.09753171142578L0.061304036527872086,64.83974171142577Q0.061304036527872086,64.93694171142579,0.07090282652787208,65.03354171142578Q0.08050163652787208,65.13024171142578,0.09960943652787209,65.22564171142578Q0.11871733652787209,65.32084171142579,0.14714483652787208,65.41384171142579Q0.17557203652787207,65.50684171142578,0.21305003652787208,65.59664171142578Q0.25052903652787206,65.68624171142578,0.2966980365278721,65.77204171142579Q0.3428580365278721,65.85764171142579,0.3972710365278721,65.93844171142578Q0.4516840365278721,66.01924171142578,0.5138120365278721,66.09434171142578Q0.5759400365278721,66.16944171142578,0.6451950365278721,66.23814171142578Q0.7144400365278721,66.30684171142579,0.7901440365278721,66.36844171142579Q0.8658470365278721,66.43014171142578,0.947283036527872,66.48404171142579Q1.0287080365278722,66.53804171142578,1.115084036527872,66.58384171142578Q1.201454036527872,66.62964171142578,1.291934036527872,66.66684171142577Q1.382414036527872,66.70404171142579,1.4761340365278721,66.73224171142579Q1.5698540365278721,66.76044171142578,1.6659040365278721,66.77934171142579Q1.761954036527872,66.79824171142579,1.859424036527872,66.80784171142578Q1.9568840365278721,66.81734171142578,2.0548240365278723,66.81734171142578L69.83440403652787,66.81734171142578Q69.93240403652787,66.81734171142578,70.02970403652787,66.80784171142578Q70.12720403652787,66.79824171142579,70.22330403652788,66.77934171142579Q70.31930403652787,66.76044171142578,70.41310403652787,66.73224171142579Q70.50680403652787,66.70404171142579,70.59730403652787,66.66684171142577Q70.68770403652788,66.62964171142578,70.77410403652787,66.58384171142578Q70.86040403652787,66.53804171142578,70.94190403652787,66.48404171142579Q71.02330403652788,66.43014171142578,71.09910403652788,66.36844171142579Q71.17470403652787,66.30684171142579,71.24400403652787,66.23814171142578Q71.31330403652787,66.16944171142578,71.37540403652787,66.09434171142578Q71.43750403652787,66.01924171142578,71.49190403652787,65.93844171142578Q71.54630403652787,65.85764171142579,71.59250403652787,65.77204171142579Q71.63870403652787,65.68624171142578,71.67610403652787,65.59664171142578Q71.71370403652787,65.50684171142578,71.74210403652788,65.41384171142579Q71.77050403652787,65.32084171142579,71.78960403652788,65.22564171142578Q71.80870403652787,65.13024171142578,71.81830403652788,65.03354171142578Q71.82790403652787,64.93694171142579,71.82790403652787,64.83974171142577L71.82790403652787,42.09753171142578Q71.82790403652787,42.00037171142578,71.81830403652788,41.90369171142578Q71.80870403652787,41.807001711425784,71.78960403652788,41.71172171142578Q71.77050403652787,41.61643171142578,71.74210403652788,41.52346171142578Q71.71370403652787,41.430501711425784,71.67610403652787,41.34074171142578Q71.63870403652787,41.25098171142578,71.59250403652787,41.16530171142578Q71.54630403652787,41.07961571142578,71.49190403652787,40.99883871142578Q71.43750403652787,40.91805571142578,71.37540403652787,40.84295571142578Q71.31330403652787,40.76785671142578,71.24400403652787,40.69916571142578Q71.17470403652787,40.63046671142578,71.09910403652788,40.56883371142578Q71.02330403652788,40.50720371142578,70.94190403652787,40.45322371142578Q70.86040403652787,40.39924671142578,70.77410403652787,40.35345571142578Q70.68770403652788,40.30765271142578,70.59730403652787,40.27047671142578Q70.50680403652787,40.23329671142578,70.41310403652787,40.20509721142578Q70.31930403652787,40.176894311425784,70.22330403652788,40.15794031142578Q70.12720403652787,40.13898631142578,70.02970403652787,40.12946210142578Q69.93240403652787,40.11994171142578,69.83440403652787,40.11994171142578L2.0548240365278723,40.11994171142578Q1.9568840365278721,40.11994171142578,1.859424036527872,40.12946210142578Q1.761954036527872,40.13898631142578,1.6659040365278721,40.15794031142578Q1.5698540365278721,40.176894311425784,1.4761340365278721,40.20509721142578Q1.382414036527872,40.23329671142578,1.291934036527872,40.27047671142578Q1.201454036527872,40.30765271142578,1.115084036527872,40.35345571142578Q1.0287080365278722,40.39924671142578,0.947283036527872,40.45322371142578Q0.8658470365278721,40.50720371142578,0.7901440365278721,40.56883371142578Q0.7144400365278721,40.63046671142578,0.6451950365278721,40.69916571142578Q0.5759400365278721,40.76785671142578,0.5138120365278721,40.84295571142578Q0.4516840365278721,40.91805571142578,0.3972710365278721,40.99883871142578Q0.3428580365278721,41.07961571142578,0.2966980365278721,41.16530171142578Q0.25052903652787206,41.25098171142578,0.21305003652787208,41.34074171142578Q0.17557203652787207,41.430501711425784,0.14714483652787208,41.52346171142578Q0.11871733652787209,41.61643171142578,0.09960943652787209,41.71172171142578Q0.08050163652787208,41.807001711425784,0.07090282652787208,41.90369171142578Q0.061304036527872086,42.00037171142578,0.061304036527872086,42.09753171142578ZM69.83440403652787,42.09753171142578L2.0548240365278723,42.09753171142578L2.0548240365278723,64.83974171142577L69.83440403652787,64.83974171142577L69.83440403652787,42.09753171142578Z" fill-rule="evenodd" fill="#3870E0" fill-opacity="1"/></g></g><g style="mix-blend-mode:passthrough" transform="matrix(1,-2.8131353246863e-8,2.8131353246863e-8,1,-0.0000013235879823270125,3.765322631466006e-7)"><g transform="matrix(1,0.0033527694176882505,0.003379806876182556,1,-0.15902085213042483,-0.044876115796775196)"><path d="M25.55359036465287,54.41990770996094L25.55359036465287,47.647678709960935L13.384790364652872,47.647678709960935L13.384790364652872,49.23386770996094L23.86119036465287,49.23386770996094L23.86119036465287,52.83883770996094L15.710560364652872,52.83883770996094L15.710560364652872,50.75309770996094L14.054482364652872,50.75309770996094L14.054482364652872,58.94667770996094C14.054482364652872,60.368077709960936,14.724180364652872,61.08387770996094,16.09473036465287,61.08387770996094L24.961690364652874,61.08387770996094C25.60029036465287,61.05307770996094,26.124590364652875,60.86247770996094,26.508790364652874,60.51227770996094C26.825390364652872,60.16727770996094,27.100590364652874,58.97757770996094,27.308290364652873,56.95368770996094L25.67819036465287,56.44901770996094C25.58469036465287,58.06097770996094,25.439290364652873,58.993077709960936,25.21609036465287,59.21447770996094C24.992890364652872,59.40497770996094,24.754090364652875,59.497777709960936,24.49969036465287,59.497777709960936L16.572340364652874,59.497777709960936C15.996090364652872,59.497777709960936,15.710560364652872,59.21447770996094,15.710560364652872,58.64797770996094L15.710560364652872,54.41990770996094L25.55359036465287,54.41990770996094ZM37.73789036465287,47.06573510996094C37.72229036465287,50.10420770996094,37.49909036465287,52.55558770996094,37.06819036465287,54.45075770996094C36.52309036465287,56.70134770996094,35.34459036465287,58.596477709960936,33.52759036465287,60.14657770996094L34.65939036465287,61.526877709960935C36.79299036465287,59.73977770996094,38.15319036465287,57.48917770996094,38.70869036465287,54.78556770996094C38.739790364652876,54.65672770996094,38.75539036465287,54.517697709960935,38.78649036465288,54.373537709960935C39.64829036465287,57.14427770996094,40.83199036465287,59.51827770996094,42.34789036465287,61.48047770996094L43.55749036465287,60.100277709960935C41.51729036465287,57.808577709960936,40.079190364652874,54.73919770996094,39.28489036465287,50.89215770996094C39.37839036465287,49.72311770996094,39.42519036465288,48.44076770996094,39.42519036465288,47.06573510996094L37.73789036465287,47.06573510996094ZM30.828090364652873,47.05027770996094L29.649690364652873,48.18841770996094C30.78139036465287,49.012417709960935,31.658690364652873,49.784917709960936,32.26609036465287,50.51105770996094L33.41339036465287,49.357467709960936C32.696990364652876,48.60041770996094,31.83519036465287,47.82277170996094,30.828090364652873,47.05027770996094ZM28.611290364652874,51.618297709960935L28.611290364652874,53.20448770996094L30.79689036465287,53.20448770996094L30.79689036465287,58.66337770996094C30.79689036465287,59.008477709960935,30.65679036465287,59.31237770996094,30.365990364652873,59.53377770996094L31.004490364652874,61.00147770996094C32.18819036465287,60.24447770996094,33.28359036465287,59.40497770996094,34.321990364652876,58.45747770996094L33.87539036465287,56.76314770996094C33.36669036465287,57.252277709960936,32.87349036465287,57.69527770996093,32.41149036465288,58.07637770996094L32.41149036465288,51.618297709960935L28.611290364652874,51.618297709960935ZM54.28819036465287,49.13601770996094L54.28819036465287,59.45137770996094L52.569790364652874,59.45137770996094L52.569790364652874,51.43289770996094L50.939690364652876,51.43289770996094L50.939690364652876,59.45137770996094L49.49129036465287,59.45137770996094L49.49129036465287,61.06847770996094L59.39659036465287,61.06847770996094L59.39659036465287,59.45137770996094L55.98059036465287,59.45137770996094L55.98059036465287,54.57949770996094L58.83589036465287,54.57949770996094L58.83589036465287,53.04479770996094L55.98059036465287,53.04479770996094L55.98059036465287,49.13601770996094L59.05919036465287,49.13601770996094L59.05919036465287,47.52407970996094L49.968990364652875,47.52407970996094L49.968990364652875,49.13601770996094L54.28819036465287,49.13601770996094ZM46.82809036465287,47.06573510996094L45.66009036465287,48.157517709960935C46.76059036465287,48.97636770996094,47.60689036465287,49.76945770996094,48.214290364652875,50.51105770996094L49.34599036465287,49.357467709960936C48.64519036465287,48.60041770996094,47.81449036465287,47.838229709960935,46.82809036465287,47.06573510996094ZM44.54389036465287,51.618297709960935L44.54389036465287,53.20448770996094L46.71389036465287,53.20448770996094L46.71389036465287,58.66337770996094C46.71389036465287,59.008477709960935,46.568490364652874,59.29697770996094,46.28309036465287,59.51827770996094L46.92159036465287,61.01697770996094C48.00659036465287,60.275377709960935,49.04489036465287,59.43597770996094,50.01569036465287,58.51927770996094L49.584790364652875,56.77857770996094C49.138290364652875,57.221477709960936,48.70739036465287,57.61797770996094,48.29209036465287,57.99917770996094L48.29209036465287,51.618297709960935L44.54389036465287,51.618297709960935Z" fill="#3870E0" fill-opacity="1"/></g></g><g style="mix-blend-mode:passthrough" transform="matrix(1,-2.8131353246863e-8,2.8131353246863e-8,1,-7.701320683395352e-7,9.306269070918916e-7)"><g transform="matrix(1,0.003352740779519081,0.00337978545576334,1,-0.09252598463763917,-0.11091363973318025)"><path d="M36.399393785063026,27.37628936767578L37.46615378506303,29.38051936767578L39.71730378506303,29.76762936767578L38.125463785063026,31.393419367675783L38.44997378506303,33.63688936767578L36.399393785063026,32.637449367675785L34.348803785063026,33.63688936767578L34.673323785063026,31.393419367675783L33.08148378506303,29.76762936767578L35.33262378506303,29.38051936767578L36.399393785063026,27.37628936767578Z" fill="#3870E0" fill-opacity="1"/></g></g><g style="mix-blend-mode:passthrough" transform="matrix(1,-2.8131353246863e-8,2.8131353246863e-8,1,-0.0000021052999343851297,9.351324194994959e-7)"><g transform="matrix(1,0.003352740779519081,0.00337978545576334,1,-0.2529370714887662,-0.11145061491333763)"><path d="M36.55955384976029,74.83820343017578L37.626313849760294,76.84243343017579L39.8774638497603,77.22954343017578L38.28562384976029,78.85533343017578L38.610133849760295,81.09880343017578L36.55955384976029,80.09936343017579L34.50896384976029,81.09880343017578L34.83348384976029,78.85533343017578L33.241643849760294,77.22954343017578L35.49278384976029,76.84243343017579L36.55955384976029,74.83820343017578Z" fill="#3870E0" fill-opacity="1"/></g></g><g style="mix-blend-mode:passthrough" transform="matrix(1,-2.8131353246863e-8,2.8131353246863e-8,1,-8.800751096771364e-7,5.384430963317755e-7)"><g transform="matrix(1,0.0033527787309139967,0.00337978545576334,1,-0.105734872717683,-0.0641732570221798)"><path d="M22.458229768339397,31.28449249267578L23.524989768339395,33.28872249267578L25.776139768339394,33.67583249267578L24.184299768339397,35.30162249267578L24.508809768339397,37.54509249267578L22.458229768339397,36.545652492675785L20.407639768339397,37.54509249267578L20.732159768339397,35.30162249267578L19.140319768339396,33.67583249267578L21.391459768339395,33.28872249267578L22.458229768339397,31.28449249267578Z" fill="#3870E0" fill-opacity="1"/></g></g><g style="mix-blend-mode:passthrough" transform="matrix(1,-2.8131353246863e-8,2.8131353246863e-8,1,-0.000001964917892394169,5.42096927347302e-7)"><g transform="matrix(1,0.0033527787309139967,0.00337978545576334,1,-0.23607114992729095,-0.06460873174836479)"><path d="M22.58811448818803,69.84796905517578L23.654874488188028,71.85219905517579L25.906024488188027,72.23930905517578L24.31418448818803,73.86509905517578L24.63869448818803,76.10856905517578L22.58811448818803,75.10912905517579L20.53752448818803,76.10856905517578L20.86204448818803,73.86509905517578L19.27020448818803,72.23930905517578L21.521344488188028,71.85219905517579L22.58811448818803,69.84796905517578Z" fill="#3870E0" fill-opacity="1"/></g></g><g style="mix-blend-mode:passthrough" transform="matrix(1,-2.8131353246863e-8,2.8131353246863e-8,1,-8.826299549014038e-7,0.0000012955172046247299)"><g transform="matrix(1,0.003352740779519081,0.00337978545576334,1,-0.106041819442531,-0.1544018635796327)"><path d="M49.370341050688026,31.37531089782715L50.43710105068803,33.37954089782715L52.68825105068803,33.76665089782715L51.096411050688026,35.39244089782715L51.42092105068803,37.635910897827145L49.370341050688026,36.63647089782715L47.319751050688026,37.635910897827145L47.644271050688026,35.39244089782715L46.05243105068803,33.76665089782715L48.30357105068803,33.37954089782715L49.370341050688026,31.37531089782715Z" fill="#3870E0" fill-opacity="1"/></g></g><g style="mix-blend-mode:passthrough" transform="matrix(1,-2.8131353246863e-8,2.8131353246863e-8,1,-0.00000196754147196998,0.000001327233761116986)"><g transform="matrix(1,0.003352740779519081,0.00337978545576334,1,-0.2363863545279017,-0.15818189514857295)"><path d="M50.49778627163529,69.94123077392578L51.564546271635294,71.94546077392579L53.8156962716353,72.33257077392578L52.22385627163529,73.95836077392578L52.548366271635295,76.20183077392578L50.49778627163529,75.20239077392579L48.44719627163529,76.20183077392578L48.77171627163529,73.95836077392578L47.179876271635294,72.33257077392578L49.43101627163529,71.94546077392579L50.49778627163529,69.94123077392578Z" fill="#3870E0" fill-opacity="1"/></g></g></g></g></svg>
