<svg xmlns="http://www.w3.org/2000/svg" xmlns:xlink="http://www.w3.org/1999/xlink" fill="none" version="1.1" width="36" height="18" viewBox="0 0 36 18"><g style="mix-blend-mode:passthrough"><g style="mix-blend-mode:passthrough"><rect x="1" y="1" width="34" height="16" rx="2" fill="#EBF0FB" fill-opacity="1"/><rect x="0.5" y="0.5" width="35" height="17" rx="2.5" fill-opacity="0" stroke-opacity="1" stroke="#3870E0" fill="none" stroke-width="1"/></g><g style="mix-blend-mode:passthrough"><path d="M13.625,3.25L14.8125,3.25L13.16797,12.8867L13.214839999999999,12.8125L15.71094,12.8125L15.08984,9.30078L16.26562,9.30078L16.88672,14L12.003910000000001,14L13.625,3.25ZM9.39844,6L9.39844,4.75L8.1875,4.75L7.960938,3.66797L9.83203,3.66797L11.70312,3.25L11.70312,4.26953L10.46875,4.61719L10.46875,6L11.96875,6L11.8125,7.11719L10.46875,7.11719L10.46875,14L9.39844,14L9.39844,7.11719L8.06641,7.11719L7.898438,6L9.39844,6ZM8.22266,7.59375L9.13672,7.59375L8.70312,13.5664L8.00781,13.5664L8.22266,7.59375ZM11.64453,7.59375L11.85938,13.5664L11.16406,13.5664L10.74219,7.59375L11.64453,7.59375ZM20.148400000000002,8.96094L19.9336,9.39453L18.8672,9.39453L20.6172,5.61719L19.082,5.61719L18.8672,4.5L21.1445,4.5L21.6875,3.25L22.9688,3.25L22.3828,4.5L27.4336,4.5L27.2188,5.61719L21.8281,5.61719L21.2656,6.75L26.7852,6.75L26.7852,12.918L26.5703,14L24.6484,14L24.4336,12.918L25.6719,12.918L25.6719,11.83203L21.2773,11.83203L21.2773,14L20.148400000000002,14L20.148400000000002,8.96094ZM25.6719,10.75L25.6719,9.83203L21.2773,9.83203L21.2773,10.75L25.6719,10.75ZM25.6719,8.75L25.6719,7.81641L21.2773,7.81641L21.2773,8.75L25.6719,8.75Z" fill="#3870E0" fill-opacity="1"/></g></g></svg>