<svg xmlns="http://www.w3.org/2000/svg" xmlns:xlink="http://www.w3.org/1999/xlink" fill="none" version="1.1" width="36" height="18" viewBox="0 0 36 18"><g style="mix-blend-mode:passthrough"><g style="mix-blend-mode:passthrough"><rect x="1" y="1" width="34" height="16" rx="2" fill="#FFF7E8" fill-opacity="1"/><rect x="0.5" y="0.5" width="35" height="17" rx="2.5" fill-opacity="0" stroke-opacity="1" stroke="#FF7D00" fill="none" stroke-width="1"/></g><g style="mix-blend-mode:passthrough"><path d="M10.49219,7.5L11.83594,7.5L10.12109,12.7188L14.714839999999999,12.7188L13.64844,9.5L14.99219,9.5L16.38281,14L8.46484,14L10.49219,7.5ZM10.23828,3.25L11.65625,3.25L9.13672,8.25L7.925781,8.25L10.23828,3.25ZM14.558589999999999,3.25L16.875,8.25L15.67578,8.25L13.14453,3.25L14.558589999999999,3.25ZM20.3164,8.75L18.8672,8.75L18.648400000000002,7.55859L20.582,7.55859L20.582,4.5L19.1914,4.5L18.9727,3.32422L27.3398,3.32422L27.1211,4.5L25.7305,4.5L25.7305,7.55859L27.6484,7.55859L27.4453,8.75L25.7305,8.75L25.7305,14.1211L24.543,14.1211L24.543,8.75L21.4922,8.75L19.9688,14.1211L18.9727,14.1211L20.3164,8.75ZM24.543,7.55859L24.543,4.5L21.7578,4.5L21.7578,7.55859L24.543,7.55859Z" fill="#FF7D00" fill-opacity="1"/></g></g></svg>