<svg xmlns="http://www.w3.org/2000/svg" xmlns:xlink="http://www.w3.org/1999/xlink" fill="none" version="1.1" width="45" height="45" viewBox="0 0 45 45"><g style="mix-blend-mode:passthrough"><g style="mix-blend-mode:passthrough"><g style="mix-blend-mode:passthrough"><g style="mix-blend-mode:passthrough"><path d="M12.7109375,10.795928955078125L15.6855675,10.795928955078125L15.6855675,14.823138955078125L12.7109375,14.823138955078125L12.7109375,10.795928955078125Z" fill="#D8D8D8" fill-opacity="1"/></g><g style="mix-blend-mode:passthrough"><g style="mix-blend-mode:passthrough"><g style="mix-blend-mode:passthrough"><path d="M8.244140625,7.290796435546875C8.244140625,5.890366435546875,9.362200625,4.755096435546875,10.741410625,4.755096435546875L27.653740625,4.755096435546875C29.032940625,4.755096435546875,30.151040625,5.890366435546875,30.151040625,7.290796435546875L30.151040625,32.01509643554688C30.151040625,33.415596435546874,29.032940625,34.55079643554687,27.653740625,34.55079643554687L10.741410625,34.55079643554687C9.362200625,34.55079643554687,8.244140625,33.415596435546874,8.244140625,32.01509643554688L8.244140625,7.290796435546875Z" fill="#0C46E2" fill-opacity="1"/></g><g style="mix-blend-mode:passthrough"><path d="M8.449245,4.9638539999999995Q7.5,5.92771,7.5,7.2908L7.5,32.015100000000004Q7.499999881799,33.3782,8.449245,34.3421Q9.39849,35.3059,10.74093,35.3059L27.6533,35.3059Q28.9957,35.3059,29.945,34.3421Q30.8942,33.3782,30.8942,32.015100000000004L30.8942,7.2908Q30.8942,5.92771,29.945,4.9638539999999995Q28.9957,4,27.6533,4L10.74093,4Q9.39849,3.99999987998,8.449245,4.9638539999999995ZM8.98732,32.015100000000004L8.98732,7.2908Q8.98732,6.55326,9.50094,6.03173Q10.01456,5.5102,10.74093,5.51021L27.6533,5.51021Q28.3797,5.51021,28.8933,6.03173Q29.4069,6.55326,29.4069,7.2908L29.4069,32.015100000000004Q29.4069,32.752700000000004,28.8933,33.2742Q28.3797,33.7957,27.6533,33.7957L10.74093,33.7957Q10.01456,33.7957,9.50094,33.2742Q8.98732,32.752700000000004,8.98732,32.015100000000004Z" fill-rule="evenodd" fill="#0C46E2" fill-opacity="1"/></g><g style="mix-blend-mode:passthrough"><path d="M19.10693925,18.359619140625L26.23114125,18.359619140625C26.641851250000002,18.359619140625,26.97480125,18.697690140625,26.97480125,19.114722140625C26.97480125,19.531749140625,26.641851250000002,19.869829140625,26.23114125,19.869829140625L19.10693925,19.869829140625C18.69622825,19.869829140625,18.36328125,19.531749140625,18.36328125,19.114722140625C18.36328125,18.697690140625,18.69622825,18.359619140625,19.10693925,18.359619140625Z" fill-rule="evenodd" fill="#FFFFFF" fill-opacity="1"/></g><g style="mix-blend-mode:passthrough"><path d="M13.4077205,22.8289794921875L26.2312625,22.8289794921875C26.641962499999998,22.8289794921875,26.9749625,23.1670504921875,26.9749625,23.5840824921875C26.9749625,24.0011094921875,26.641962499999998,24.3391894921875,26.2312625,24.3391894921875L13.4077205,24.3391894921875C12.9970095,24.3391894921875,12.6640625,24.0011094921875,12.6640625,23.5840824921875C12.6640625,23.1670504921875,12.9970095,22.8289794921875,13.4077205,22.8289794921875Z" fill-rule="evenodd" fill="#FFFFFF" fill-opacity="1"/></g><g style="mix-blend-mode:passthrough"><path d="M13.4077205,27.298370361328125L26.2312625,27.298370361328125C26.641962499999998,27.298370361328125,26.9749625,27.636441361328124,26.9749625,28.053473361328123C26.9749625,28.470500361328124,26.641962499999998,28.808580361328126,26.2312625,28.808580361328126L13.4077205,28.808580361328126C12.9970095,28.808580361328126,12.6640625,28.470500361328124,12.6640625,28.053473361328123C12.6640625,27.636441361328124,12.9970095,27.298370361328125,13.4077205,27.298370361328125Z" fill-rule="evenodd" fill="#FFFFFF" fill-opacity="1"/></g></g><g style="mix-blend-mode:passthrough"><path d="M15.59375,13.739954150390625C15.59375,12.339524150390625,16.71181,11.204254150390625,18.09102,11.204254150390625L35.00335,11.204254150390625C36.382549999999995,11.204254150390625,37.50065,12.339524150390625,37.50065,13.739954150390625L37.50065,38.46425415039063C37.50065,39.864754150390624,36.382549999999995,40.99995415039062,35.00335,40.99995415039062L18.09102,40.99995415039062C16.71181,40.99995415039062,15.59375,39.864754150390624,15.59375,38.46425415039063L15.59375,13.739954150390625Z" fill="#0C46E2" fill-opacity="0.20000000298023224"/></g></g></g><g style="mix-blend-mode:passthrough"><path d="M10.728515625,13.781284404296875C10.728515625,13.966704404296875,10.958981625,14.052304404296875,11.080022625,13.911844404296875L13.551635625,11.043664404296875C13.631425625,10.951074404296875,13.774865625,10.951074404296875,13.854655625,11.043664404296875L16.326265624999998,13.911844404296875C16.447315625,14.052304404296875,16.677775625,13.966704404296875,16.677775625,13.781284404296875L16.677775625,5.458514404296875C16.677775625,5.348057504296875,16.588235625,5.258514404296875,16.477775625,5.258514404296875L10.928515625,5.258514404296875C10.818058725,5.258514404296875,10.728515625,5.348057504296875,10.728515625,5.458514404296875L10.728515625,13.781284404296875Z" fill="#FFFFFF" fill-opacity="1"/></g><g style="mix-blend-mode:passthrough"><g style="mix-blend-mode:passthrough"><path d="M36.50918,34.95922141601562C36.50918,37.73943141601563,34.28954,39.99320141601562,31.551470000000002,39.99320141601562C28.8134,39.99320141601562,26.59375,37.73943141601563,26.59375,34.95922141601562C26.59375,32.179011416015626,28.8134,29.925201416015625,31.551470000000002,29.925201416015625C34.28954,29.925201416015625,36.50918,32.179011416015626,36.50918,34.95922141601562Z" fill="#FFFFFF" fill-opacity="1"/></g><g style="mix-blend-mode:passthrough"><path d="M36.50918,34.95922141601562C36.50918,37.73943141601563,34.28954,39.99320141601562,31.551470000000002,39.99320141601562C28.8134,39.99320141601562,26.59375,37.73943141601563,26.59375,34.95922141601562C26.59375,32.179011416015626,28.8134,29.925201416015625,31.551470000000002,29.925201416015625C34.28954,29.925201416015625,36.50918,32.179011416015626,36.50918,34.95922141601562ZM35.51764,34.95922141601562Q35.51764,33.291091416015625,34.35598,32.11155141601562Q33.19431,30.932001416015623,31.551470000000002,30.932001416015623Q29.90862,30.932001416015623,28.74696,32.11155141601562Q27.585293,33.291091416015625,27.585293,34.95922141601562Q27.585293,36.627341416015625,28.74696,37.806891416015624Q29.90862,38.98643141601563,31.551470000000002,38.98643141601563Q33.19431,38.98643141601563,34.35598,37.806891416015624Q35.51764,36.627341416015625,35.51764,34.95922141601562Z" fill-rule="evenodd" fill="#3662EC" fill-opacity="1"/></g></g><g style="mix-blend-mode:passthrough"><path d="M33.881605625,34.31155812695312C33.976515625,34.216904126953125,34.029985625,34.08748912695312,34.029985625,33.952407126953126C34.029985625,33.674386126953124,33.808015625,33.449005126953125,33.534215625,33.449005126953125C33.404275625,33.449005126953125,33.279525625,33.500804626953126,33.186815625,33.59325612695312L31.051065625,35.723155126953124L29.952455625,34.353665126953125C29.858278625,34.236266126953126,29.717114625,34.16815012695312,29.568037625,34.16815012695312C29.294230625,34.16815012695312,29.072265625,34.39353112695313,29.072265625,34.67155512695312C29.072265625,34.787385126953126,29.111604125,34.899665126953124,29.183646625,34.989475126953124L30.969505625,37.21567512695312L33.881605625,34.31155812695312Z" fill-rule="evenodd" fill="#3662EC" fill-opacity="1"/></g><g style="mix-blend-mode:passthrough"><g style="mix-blend-mode:passthrough"><path d="M14.6940275,19.353754345703123C14.6940275,19.909804345703126,14.2500975,20.360564345703125,13.7024805,20.360564345703125C13.1548665,20.360564345703125,12.7109375,19.909804345703126,12.7109375,19.353754345703123C12.7109375,18.797715345703125,13.1548665,18.346954345703125,13.7024805,18.346954345703125C14.2500975,18.346954345703125,14.6940275,18.797715345703125,14.6940275,19.353754345703123Z" fill="#FFFFFF" fill-opacity="1"/></g></g></g></g></svg>