<svg xmlns="http://www.w3.org/2000/svg" xmlns:xlink="http://www.w3.org/1999/xlink" fill="none" version="1.1" width="45" height="45" viewBox="17.5 0 45 45"><g style="mix-blend-mode:passthrough"><g style="mix-blend-mode:passthrough"><g style="mix-blend-mode:passthrough"><path d="M25.744140625,7.290826953125C25.744140625,5.890396953125,26.862200625,4.755126953125,28.241410625,4.755126953125L45.153740625,4.755126953125C46.532940624999995,4.755126953125,47.651040625,5.890396953125,47.651040625,7.290826953125L47.651040625,32.015126953125005C47.651040625,33.415626953125,46.532940624999995,34.550826953125,45.153740625,34.550826953125L28.241410625,34.550826953125C26.862200625,34.550826953125,25.744140625,33.415626953125,25.744140625,32.015126953125005L25.744140625,7.290826953125Z" fill="#666666" fill-opacity="1"/></g><g style="mix-blend-mode:passthrough"><path d="M25.949245,4.9638539999999995Q25,5.92771,25,7.2908L25,32.015100000000004Q24.999999881799,33.3782,25.949245,34.3421Q26.89849,35.3059,28.24093,35.3059L45.1533,35.3059Q46.4957,35.3059,47.445,34.3421Q48.3942,33.3782,48.3942,32.015100000000004L48.3942,7.2908Q48.3942,5.92771,47.445,4.9638539999999995Q46.4957,4,45.1533,4L28.24093,4Q26.89849,3.99999987998,25.949245,4.9638539999999995ZM26.48732,32.015100000000004L26.48732,7.2908Q26.48732,6.55326,27.00094,6.03173Q27.51456,5.5102,28.24093,5.51021L45.1533,5.51021Q45.8797,5.51021,46.393299999999996,6.03173Q46.9069,6.55326,46.9069,7.2908L46.9069,32.015100000000004Q46.9069,32.752700000000004,46.393299999999996,33.2742Q45.8797,33.7957,45.1533,33.7957L28.24093,33.7957Q27.51456,33.7957,27.00094,33.2742Q26.48732,32.752700000000004,26.48732,32.015100000000004Z" fill-rule="evenodd" fill="#666666" fill-opacity="1"/></g><g style="mix-blend-mode:passthrough"><path d="M36.60693925,18.359619140625L43.73114125,18.359619140625C44.14185125,18.359619140625,44.47480125,18.697690140625,44.47480125,19.114722140625C44.47480125,19.531749140625,44.14185125,19.869829140625,43.73114125,19.869829140625L36.60693925,19.869829140625C36.19622825,19.869829140625,35.86328125,19.531749140625,35.86328125,19.114722140625C35.86328125,18.697690140625,36.19622825,18.359619140625,36.60693925,18.359619140625Z" fill-rule="evenodd" fill="#FFFFFF" fill-opacity="1"/></g><g style="mix-blend-mode:passthrough"><path d="M30.9077205,22.82904052734375L43.7312625,22.82904052734375C44.1419625,22.82904052734375,44.474962500000004,23.16711152734375,44.474962500000004,23.58414352734375C44.474962500000004,24.00117052734375,44.1419625,24.33925052734375,43.7312625,24.33925052734375L30.9077205,24.33925052734375C30.4970095,24.33925052734375,30.1640625,24.00117052734375,30.1640625,23.58414352734375C30.1640625,23.16711152734375,30.4970095,22.82904052734375,30.9077205,22.82904052734375Z" fill-rule="evenodd" fill="#FFFFFF" fill-opacity="1"/></g><g style="mix-blend-mode:passthrough"><path d="M30.9077205,27.29833984375L43.7312625,27.29833984375C44.1419625,27.29833984375,44.474962500000004,27.63641084375,44.474962500000004,28.05344284375C44.474962500000004,28.47046984375,44.1419625,28.80854984375,43.7312625,28.80854984375L30.9077205,28.80854984375C30.4970095,28.80854984375,30.1640625,28.47046984375,30.1640625,28.05344284375C30.1640625,27.63641084375,30.4970095,27.29833984375,30.9077205,27.29833984375Z" fill-rule="evenodd" fill="#FFFFFF" fill-opacity="1"/></g><g style="mix-blend-mode:passthrough"><path d="M33.09375,13.73998466796875C33.09375,12.33955466796875,34.21181,11.20428466796875,35.59102,11.20428466796875L52.50335,11.20428466796875C53.882549999999995,11.20428466796875,55.00065,12.33955466796875,55.00065,13.73998466796875L55.00065,38.464284667968755C55.00065,39.86478466796875,53.882549999999995,40.99998466796875,52.50335,40.99998466796875L35.59102,40.99998466796875C34.21181,40.99998466796875,33.09375,39.86478466796875,33.09375,38.464284667968755L33.09375,13.73998466796875Z" fill="#999999" fill-opacity="0.20000000298023224"/></g><g style="mix-blend-mode:passthrough"><path d="M28.228515625,13.78125388671875C28.228515625,13.96667388671875,28.458981625,14.05227388671875,28.580022625,13.91181388671875L31.051635625,11.04363388671875C31.131425625,10.95104388671875,31.274865625,10.95104388671875,31.354655625,11.04363388671875L33.826265625,13.91181388671875C33.947315625,14.05227388671875,34.177775625,13.96667388671875,34.177775625,13.78125388671875L34.177775625,5.45848388671875C34.177775625,5.34802698671875,34.088235625,5.25848388671875,33.977775625,5.25848388671875L28.428515625,5.25848388671875C28.318058725,5.25848388671875,28.228515625,5.34802698671875,28.228515625,5.45848388671875L28.228515625,13.78125388671875Z" fill="#FFFFFF" fill-opacity="1"/></g><g style="mix-blend-mode:passthrough"><path d="M54.00918,34.9591908984375C54.00918,37.7394008984375,51.78954,39.9931708984375,49.05147,39.9931708984375C46.3134,39.9931708984375,44.09375,37.7394008984375,44.09375,34.9591908984375C44.09375,32.1789808984375,46.3134,29.9251708984375,49.05147,29.9251708984375C51.78954,29.9251708984375,54.00918,32.1789808984375,54.00918,34.9591908984375Z" fill="#FFFFFF" fill-opacity="1"/></g><g style="mix-blend-mode:passthrough"><path d="M54.00918,34.9591908984375C54.00918,37.7394008984375,51.78954,39.9931708984375,49.05147,39.9931708984375C46.3134,39.9931708984375,44.09375,37.7394008984375,44.09375,34.9591908984375C44.09375,32.1789808984375,46.3134,29.9251708984375,49.05147,29.9251708984375C51.78954,29.9251708984375,54.00918,32.1789808984375,54.00918,34.9591908984375ZM53.01764,34.9591908984375Q53.01764,33.2910608984375,51.85598,32.1115208984375Q50.69431,30.9319708984375,49.05147,30.9319708984375Q47.40862,30.9319708984375,46.24696,32.1115208984375Q45.085293,33.2910608984375,45.085293,34.9591908984375Q45.085293,36.6273108984375,46.24696,37.8068608984375Q47.40862,38.9864008984375,49.05147,38.9864008984375Q50.69431,38.9864008984375,51.85598,37.8068608984375Q53.01764,36.6273108984375,53.01764,34.9591908984375Z" fill-rule="evenodd" fill="#666666" fill-opacity="1"/></g><g style="mix-blend-mode:passthrough"><path d="M51.381605625,34.311527609375C51.476515625,34.216873609375,51.529985625,34.087458609375,51.529985625,33.952376609375C51.529985625,33.674355609375,51.308015625,33.448974609375,51.034215625,33.448974609375C50.904275625,33.448974609375,50.779525625,33.500774109375,50.686815625,33.593225609375L48.551065625,35.723124609375L47.452455625,34.353634609375C47.358278625,34.236235609375,47.217114625,34.168119609375,47.068037625,34.168119609375C46.794230625,34.168119609375,46.572265625,34.393500609375,46.572265625,34.671524609375C46.572265625,34.787354609375,46.611604125,34.899634609375,46.683646625,34.989444609375L48.469505625,37.215644609375L51.381605625,34.311527609375Z" fill-rule="evenodd" fill="#666666" fill-opacity="1"/></g><g style="mix-blend-mode:passthrough"><path d="M32.1940275,19.353723828125C32.1940275,19.909773828125,31.7500975,20.360533828125,31.2024805,20.360533828125C30.6548665,20.360533828125,30.2109375,19.909773828125,30.2109375,19.353723828125C30.2109375,18.797684828125,30.6548665,18.346923828125,31.2024805,18.346923828125C31.7500975,18.346923828125,32.1940275,18.797684828125,32.1940275,19.353723828125Z" fill="#FFFFFF" fill-opacity="1"/></g></g></g></svg>