<svg xmlns="http://www.w3.org/2000/svg" xmlns:xlink="http://www.w3.org/1999/xlink" fill="none" version="1.1" width="45" height="45" viewBox="0 0 45 45"><g style="mix-blend-mode:passthrough"><g style="mix-blend-mode:passthrough"><g style="mix-blend-mode:passthrough"><path d="M5.755859375,9.79431041015625C5.755859375,8.39240041015625,6.890919375,7.25592041015625,8.293519374999999,7.25592041015625L36.455659374999996,7.25592041015625C37.858259375,7.25592041015625,38.993259375,8.39240041015625,38.993259375,9.79431041015625L38.993259375,23.86712041015625C38.993259375,25.26902041015625,37.858259375,26.40552041015625,36.455659374999996,26.40552041015625L8.293519374999999,26.40552041015625C6.890919375,26.40552041015625,5.755859375,25.26902041015625,5.755859375,23.86712041015625L5.755859375,9.79431041015625Z" fill="#666666" fill-opacity="1"/></g><g style="mix-blend-mode:passthrough"><path d="M5.963916,7.464883Q5,8.42976,5,9.7943L5,23.8671Q5,25.2317,5.963916,26.1966Q6.92783,27.1614,8.293050000000001,27.1614L36.4551,27.1614Q37.8204,27.1614,38.7843,26.1966Q39.7482,25.2317,39.7482,23.8671L39.7482,9.7943Q39.7482,8.42976,38.7843,7.464883Q37.8204,6.5,36.4551,6.5L8.293050000000001,6.5Q6.92783,6.5,5.963916,7.464883ZM6.51079,23.8671L6.51079,9.7943Q6.51079,9.05597,7.03209,8.53389Q7.55339,8.01181,8.293050000000001,8.01181L36.4551,8.01181Q37.1948,8.01181,37.7161,8.53389Q38.2374,9.05597,38.2374,9.7943L38.2374,23.8671Q38.2374,24.6055,37.7161,25.1275Q37.1948,25.6496,36.4551,25.6496L8.293050000000001,25.6496Q7.55339,25.6496,7.03209,25.1275Q6.51079,24.6055,6.51079,23.8671Z" fill-rule="evenodd" fill="#666666" fill-opacity="1"/></g><g style="mix-blend-mode:passthrough"><path d="M7.552734375,10.7985218359375C7.552734375,9.3966118359375,8.687794375,8.2601318359375,10.090394374999999,8.2601318359375L33.432934375,8.2601318359375C34.833534375,8.2601318359375,35.970534375,9.3966118359375,35.970534375,10.7985218359375L35.970534375,35.961631835937496C35.970534375,37.3635318359375,34.833534375,38.4999318359375,33.432934375,38.4999318359375L10.090394374999999,38.4999318359375C8.687794375,38.4999318359375,7.552734375,37.3635318359375,7.552734375,35.961631835937496L7.552734375,10.7985218359375Z" fill="#999999" fill-opacity="0.20000000298023224"/></g><g style="mix-blend-mode:passthrough"><path d="M23.884515625,17.83859455078125C23.884515625,19.16344455078125,23.516715625,20.37666455078125,22.780915625,21.47821455078125C22.045215625,22.57981455078125,21.065615625,23.38411455078125,19.843965625,23.89111455078125C18.620375625,24.39811455078125,17.359415625,24.52241455078125,16.061085625,24.26391455078125C14.762745625,24.00541455078125,13.645385625,23.40781455078125,12.709015625,22.47101455078125C11.772636625,21.53421455078125,11.174614625,20.41607455078125,10.916914625,19.116674550781248C10.659214625,17.81727455078125,10.783146915,16.55557455078125,11.288711625,15.33156455078125C11.796245625000001,14.10756455078125,12.598855625,13.12753455078125,13.700465625,12.39149455078125C14.802085625,11.65544055078125,16.013865625,11.28741455078125,17.337775625,11.28741455078125L17.337775625,17.83859455078125L23.884515625,17.83859455078125Z" fill="#FFFFFF" fill-opacity="1"/></g><g style="mix-blend-mode:passthrough" transform="matrix(0,-1,1,0,1.5150146484375,35.1763916015625)"><path d="M26.912633125,16.8306884765625C26.912633125,17.9657484765625,26.695263125,19.0575284765625,26.260513125,20.1060384765625C25.825773125,21.1565084765625,25.206743125,22.0810784765625,24.403433125,22.8836884765625C23.600133125,23.6862984765625,22.673703125,24.305958476562502,21.624123125,24.7407084765625C20.574553125,25.1754484765625,19.481743125,25.391838476562498,18.345703125,25.391838476562498L18.345703125,16.8306884765625L26.912633125,16.8306884765625Z" fill="#888888" fill-opacity="1"/></g><g style="mix-blend-mode:passthrough"><path d="M11.798518875,30.94091796875L28.920821875,30.94091796875C29.198221875,30.94091796875,29.424421875,31.16653896875,29.424421875,31.44485496875C29.424421875,31.72317096875,29.198221875,31.94878796875,28.920821875,31.94878796875L11.798518875,31.94878796875C11.521146875,31.94878796875,11.294921875,31.72317096875,11.294921875,31.44485496875C11.294921875,31.16653896875,11.521146875,30.94091796875,11.798518875,30.94091796875Z" fill-rule="evenodd" fill="#666666" fill-opacity="1"/></g><g style="mix-blend-mode:passthrough"><path d="M11.798518875,35.47637939453125L39.496321875,35.47637939453125C39.773721875,35.47637939453125,39.999921875,35.70200039453125,39.999921875,35.98031639453125C39.999921875,36.25863339453125,39.773721875,36.48424939453125,39.496321875,36.48424939453125L11.798518875,36.48424939453125C11.521146875,36.48424939453125,11.294921875,36.25863339453125,11.294921875,35.98031639453125C11.294921875,35.70200039453125,11.521146875,35.47637939453125,11.798518875,35.47637939453125Z" fill-rule="evenodd" fill="#666666" fill-opacity="1"/></g></g></g></svg>