<svg xmlns="http://www.w3.org/2000/svg" xmlns:xlink="http://www.w3.org/1999/xlink" fill="none" version="1.1" width="45" height="45" viewBox="0 0 45 45"><g style="mix-blend-mode:passthrough"><g style="mix-blend-mode:passthrough"><g style="mix-blend-mode:passthrough"><g style="mix-blend-mode:passthrough"><g style="mix-blend-mode:passthrough"><path d="M6.755859375,9.3445960546875C6.755859375,7.9212760546875,7.892099375,6.7674560546875,9.293729375,6.7674560546875L30.417259375,6.7674560546875C31.818859375,6.7674560546875,32.955059375000005,7.9212760546875,32.955059375000005,9.3445960546875L32.955059375000005,31.8182560546875C32.955059375000005,33.2415560546875,31.818859375,34.3953560546875,30.417259375,34.3953560546875L9.293729375,34.3953560546875C7.892099375,34.3953560546875,6.755859375,33.2415560546875,6.755859375,31.8182560546875L6.755859375,9.3445960546875Z" fill="#0C46E2" fill-opacity="1"/></g><g style="mix-blend-mode:passthrough"><path d="M6.964677,6.979604Q6,7.95921,6,9.34458L6,31.8182Q5.999999879877,33.2036,6.964677,34.1832Q7.9293499999999995,35.162800000000004,9.293610000000001,35.162800000000004L30.4171,35.162800000000004Q31.7814,35.162800000000004,32.7461,34.1832Q33.7107,33.2036,33.7107,31.8182L33.7107,9.34458Q33.7107,7.95921,32.7461,6.979604Q31.7814,6,30.4171,6L9.293610000000001,6Q7.9293499999999995,5.999999878018,6.964677,6.979604ZM7.5115,31.8182L7.5115,9.34458Q7.5115,8.59498,8.03347,8.06493Q8.55544,7.53488,9.293610000000001,7.53488L30.4171,7.53488Q31.1553,7.53488,31.6773,8.06493Q32.199200000000005,8.59498,32.199200000000005,9.34458L32.199200000000005,31.8182Q32.199200000000005,32.5678,31.6773,33.0978Q31.1553,33.6279,30.4171,33.6279L9.293610000000001,33.6279Q8.55544,33.6279,8.03347,33.0978Q7.5115,32.5678,7.5115,31.8182Z" fill-rule="evenodd" fill="#0C46E2" fill-opacity="1"/></g></g><g style="mix-blend-mode:passthrough"><g style="mix-blend-mode:passthrough"><path d="M10.5703125,10.875808384552002C10.5703125,9.452488384552002,11.7065525,8.298668384552002,13.1081825,8.298668384552002L36.4625125,8.298668384552002C37.864112500000005,8.298668384552002,39.000412499999996,9.452488384552002,39.000412499999996,10.875808384552002L39.000412499999996,36.422868384552004C39.000412499999996,37.846168384552,37.864112500000005,38.999968384552005,36.4625125,38.999968384552005L13.1081825,38.999968384552005C11.7065525,38.999968384552005,10.5703125,37.846168384552,10.5703125,36.422868384552004L10.5703125,10.875808384552002Z" fill="#0C46E2" fill-opacity="0.20000000298023224"/></g></g></g><g style="mix-blend-mode:passthrough"><path d="M11.794921875,16.232560408203124C11.794921875,15.808713408203126,12.133281875,15.465118408203125,12.550669875,15.465118408203125C12.968061875,15.465118408203125,13.306421875,15.808713408203126,13.306421875,16.232560408203124L13.306421875,17.767438408203127C13.306421875,18.191288408203125,12.968061875,18.534888408203123,12.550669875,18.534888408203123C12.133281875,18.534888408203123,11.794921875,18.191288408203125,11.794921875,17.767438408203127L11.794921875,16.232560408203124Z" fill="#FFFFFF" fill-opacity="1"/></g><g style="mix-blend-mode:passthrough"><path d="M15.3203125,13.162797224609374C15.3203125,12.738950224609376,15.6586725,12.395355224609375,16.0760605,12.395355224609375C16.4934525,12.395355224609375,16.8318125,12.738950224609376,16.8318125,13.162797224609374L16.8318125,17.767445224609375C16.8318125,18.191295224609377,16.4934525,18.534885224609376,16.0760605,18.534885224609376C15.6586725,18.534885224609376,15.3203125,18.191295224609377,15.3203125,17.767445224609375L15.3203125,13.162797224609374Z" fill="#FFFFFF" fill-opacity="1"/></g><g style="mix-blend-mode:passthrough"><path d="M18.84765625,10.093034041015624C18.84765625,9.669187041015626,19.18601625,9.325592041015625,19.60340425,9.325592041015625C20.02079625,9.325592041015625,20.35915625,9.669187041015626,20.35915625,10.093034041015624L20.35915625,17.767452041015623C20.35915625,18.191292041015625,20.02079625,18.534892041015624,19.60340425,18.534892041015624C19.18601625,18.534892041015624,18.84765625,18.191292041015625,18.84765625,17.767452041015623L18.84765625,10.093034041015624Z" fill="#FFFFFF" fill-opacity="1"/></g><g style="mix-blend-mode:passthrough"><path d="M22.375,9.069779646484374C22.375,8.645932646484376,22.71336,8.302337646484375,23.130748,8.302337646484375C23.54814,8.302337646484375,23.8865,8.645932646484376,23.8865,9.069779646484374L23.8865,17.767447646484374C23.8865,18.191297646484376,23.54814,18.534937646484373,23.130748,18.534937646484373C22.71336,18.534937646484373,22.375,18.191297646484376,22.375,17.767447646484374L22.375,9.069779646484374Z" fill="#FFFFFF" fill-opacity="1"/></g><g style="mix-blend-mode:passthrough"><path d="M32.3501375,16.488373044921875L32.3501375,32.58427104492188L27.9227375,26.402271044921875L24.4194375,31.484371044921875L22.3054575,28.941071044921877L18.3158975,31.819271044921877L13.2045685,28.492671044921877L13.2045685,32.86047104492188C13.2045685,33.08647104492188,13.0241095,33.269771044921875,12.8015025,33.269771044921875C12.5788955,33.269771044921875,12.3984375,33.08647104492188,12.3984375,32.86047104492188L12.3984375,26.995671044921878L18.2926775,30.831871044921876L22.4431375,27.837571044921873L24.359837499999998,30.143471044921874L27.910137499999998,24.993031044921874L31.5440375,30.066871044921875L31.5440375,16.488373044921875C31.5440375,16.262322044921873,31.7245375,16.079071044921875,31.9471375,16.079071044921875C32.1697375,16.079071044921875,32.3501375,16.262322044921873,32.3501375,16.488373044921875Z" fill-rule="evenodd" fill="#FFFFFF" fill-opacity="1"/></g><g style="mix-blend-mode:passthrough"><path d="M13.810251875,27.744176748046876C13.810251875,28.309296748046876,13.359101875,28.767426748046876,12.802581875,28.767426748046876C12.246067875,28.767426748046876,11.794921875,28.309296748046876,11.794921875,27.744176748046876C11.794921875,27.179043748046876,12.246067875,26.720916748046875,12.802581875,26.720916748046875C13.359101875,26.720916748046875,13.810251875,27.179043748046876,13.810251875,27.744176748046876Z" fill="#FFFFFF" fill-opacity="1"/></g><g style="mix-blend-mode:passthrough"><path d="M19.3512675,31.32556712890625C19.3512675,31.89068712890625,18.9001175,32.34881712890625,18.3435975,32.34881712890625C17.7870835,32.34881712890625,17.3359375,31.89068712890625,17.3359375,31.32556712890625C17.3359375,30.76043412890625,17.7870835,30.30230712890625,18.3435975,30.30230712890625C18.9001175,30.30230712890625,19.3512675,30.76043412890625,19.3512675,31.32556712890625Z" fill="#FFFFFF" fill-opacity="1"/></g><g style="mix-blend-mode:passthrough"><path d="M23.3825175,28.2558039453125C23.3825175,28.8209239453125,22.9313675,29.2790539453125,22.3748475,29.2790539453125C21.8183335,29.2790539453125,21.3671875,28.8209239453125,21.3671875,28.2558039453125C21.3671875,27.6906709453125,21.8183335,27.2325439453125,22.3748475,27.2325439453125C22.9313675,27.2325439453125,23.3825175,27.6906709453125,23.3825175,28.2558039453125Z" fill="#FFFFFF" fill-opacity="1"/></g><g style="mix-blend-mode:passthrough"><path d="M25.3981425,30.813939931640626C25.3981425,31.379059931640626,24.9469925,31.837189931640626,24.3904725,31.837189931640626C23.8339585,31.837189931640626,23.3828125,31.379059931640626,23.3828125,30.813939931640626C23.3828125,30.248806931640626,23.8339585,29.790679931640625,24.3904725,29.790679931640625C24.9469925,29.790679931640625,25.3981425,30.248806931640626,25.3981425,30.813939931640626Z" fill="#FFFFFF" fill-opacity="1"/></g><g style="mix-blend-mode:passthrough"><path d="M28.923533125,25.697667958984376C28.923533125,26.262787958984376,28.472383125,26.720917958984376,27.915863125,26.720917958984376C27.359349125,26.720917958984376,26.908203125,26.262787958984376,26.908203125,25.697667958984376C26.908203125,25.132534958984376,27.359349125,24.674407958984375,27.915863125,24.674407958984375C28.472383125,24.674407958984375,28.923533125,25.132534958984376,28.923533125,25.697667958984376Z" fill="#FFFFFF" fill-opacity="1"/></g><g style="mix-blend-mode:passthrough"><path d="M32.954783125,31.837194326171876C32.954783125,32.402314326171876,32.503633125,32.86044432617187,31.947113125,32.86044432617187C31.390599125,32.86044432617187,30.939453125,32.402314326171876,30.939453125,31.837194326171876C30.939453125,31.272061326171876,31.390599125,30.813934326171875,31.947113125,30.813934326171875C32.503633125,30.813934326171875,32.954783125,31.272061326171876,32.954783125,31.837194326171876Z" fill="#FFFFFF" fill-opacity="1"/></g></g></g></svg>