<svg xmlns="http://www.w3.org/2000/svg" xmlns:xlink="http://www.w3.org/1999/xlink" fill="none" version="1.1" width="45" height="45" viewBox="0 0 45 45"><g style="mix-blend-mode:passthrough"><g style="mix-blend-mode:passthrough"><g style="mix-blend-mode:passthrough"><path d="M6.755859375,9.3445960546875C6.755859375,7.9212760546875,7.891419375,6.7674560546875,9.294619375,6.7674560546875L30.415559375,6.7674560546875C31.818759375,6.7674560546875,32.954359374999996,7.9212760546875,32.954359374999996,9.3445960546875L32.954359374999996,31.8182560546875C32.954359374999996,33.2415560546875,31.818759375,34.3953560546875,30.415559375,34.3953560546875L9.294619375,34.3953560546875C7.891419375,34.3953560546875,6.755859375,33.2415560546875,6.755859375,31.8182560546875L6.755859375,9.3445960546875Z" fill="#666666" fill-opacity="1"/></g><g style="mix-blend-mode:passthrough"><path d="M6.964337,6.979604Q6,7.95921,6,9.34458L6,31.8182Q6,33.2036,6.964337,34.1832Q7.92867,35.162800000000004,9.29449,35.162800000000004L30.4154,35.162800000000004Q31.7812,35.162800000000004,32.745599999999996,34.1832Q33.709900000000005,33.2036,33.709900000000005,31.8182L33.709900000000005,9.34458Q33.709900000000005,7.95921,32.745599999999996,6.979604Q31.7812,6,30.4154,6L9.29449,6Q7.92867,6,6.964337,6.979604ZM7.51145,31.8182L7.51145,9.34458Q7.51145,8.59498,8.03298,8.06493Q8.55451,7.53488,9.29449,7.53488L30.4154,7.53488Q31.1554,7.53488,31.6769,8.06493Q32.198499999999996,8.59498,32.198499999999996,9.34458L32.198499999999996,31.8182Q32.198499999999996,32.5678,31.6769,33.0978Q31.1554,33.6279,30.4154,33.6279L9.29449,33.6279Q8.55451,33.6279,8.03298,33.0978Q7.51145,32.5678,7.51145,31.8182Z" fill-rule="evenodd" fill="#666666" fill-opacity="1"/></g><g style="mix-blend-mode:passthrough"><path d="M10.5703125,10.875805537109375C10.5703125,9.452495537109375,11.7058725,8.298675537109375,13.1090725,8.298675537109375L36.4618125,8.298675537109375C37.863012499999996,8.298675537109375,39.0005125,9.452495537109375,39.0005125,10.875805537109375L39.0005125,36.42287553710938C39.0005125,37.846175537109374,37.863012499999996,38.99997553710938,36.4618125,38.99997553710938L13.1090725,38.99997553710938C11.7058725,38.99997553710938,10.5703125,37.846175537109374,10.5703125,36.42287553710938L10.5703125,10.875805537109375Z" fill="#999999" fill-opacity="0.20000000298023224"/></g><g style="mix-blend-mode:passthrough"><path d="M11.79296875,16.232560408203124C11.79296875,15.808714408203125,12.13147075,15.465118408203125,12.54869375,15.465118408203125C12.96591875,15.465118408203125,13.30441875,15.808714408203125,13.30441875,16.232560408203124L13.30441875,17.767438408203127C13.30441875,18.191288408203125,12.96591875,18.534888408203123,12.54869375,18.534888408203123C12.13147075,18.534888408203123,11.79296875,18.191288408203125,11.79296875,17.767438408203127L11.79296875,16.232560408203124Z" fill="#FFFFFF" fill-opacity="1"/></g><g style="mix-blend-mode:passthrough"><path d="M15.3203125,13.162797224609374C15.3203125,12.738951224609375,15.6588145,12.395355224609375,16.076037499999998,12.395355224609375C16.4932625,12.395355224609375,16.8317625,12.738951224609375,16.8317625,13.162797224609374L16.8317625,17.767445224609375C16.8317625,18.191295224609377,16.4932625,18.534885224609376,16.076037499999998,18.534885224609376C15.6588145,18.534885224609376,15.3203125,18.191295224609377,15.3203125,17.767445224609375L15.3203125,13.162797224609374Z" fill="#FFFFFF" fill-opacity="1"/></g><g style="mix-blend-mode:passthrough"><path d="M18.84765625,10.093034041015624C18.84765625,9.669186041015625,19.18615825,9.325592041015625,19.603381249999998,9.325592041015625C20.02060625,9.325592041015625,20.35910625,9.669186041015625,20.35910625,10.093034041015624L20.35910625,17.767452041015623C20.35910625,18.191292041015625,20.02060625,18.534892041015624,19.603381249999998,18.534892041015624C19.18615825,18.534892041015624,18.84765625,18.191292041015625,18.84765625,17.767452041015623L18.84765625,10.093034041015624Z" fill="#FFFFFF" fill-opacity="1"/></g><g style="mix-blend-mode:passthrough"><path d="M22.375,9.069779646484374C22.375,8.645931646484375,22.713502,8.302337646484375,23.130724999999998,8.302337646484375C23.54795,8.302337646484375,23.88645,8.645931646484375,23.88645,9.069779646484374L23.88645,17.767447646484374C23.88645,18.191297646484376,23.54795,18.534937646484373,23.130724999999998,18.534937646484373C22.713502,18.534937646484373,22.375,18.191297646484376,22.375,17.767447646484374L22.375,9.069779646484374Z" fill="#FFFFFF" fill-opacity="1"/></g><g style="mix-blend-mode:passthrough"><path d="M32.350337499999995,16.488373044921875L32.350337499999995,32.58427104492188L27.922337499999998,26.402271044921875L24.4192375,31.484371044921875L22.3055175,28.941071044921877L18.3163175,31.819271044921877L13.2053315,28.492671044921877L13.2053315,32.86047104492188C13.2053315,33.08647104492188,13.0242725,33.269771044921875,12.8018845,33.269771044921875C12.5794965,33.269771044921875,12.3984375,33.08647104492188,12.3984375,32.86047104492188L12.3984375,26.995671044921878L18.2926975,30.831871044921876L22.443237500000002,27.837571044921873L24.3601375,30.143471044921874L27.9104375,24.993031044921874L31.5434375,30.066871044921875L31.5434375,16.488373044921875C31.5434375,16.262322044921873,31.7245375,16.079071044921875,31.9469375,16.079071044921875C32.1693375,16.079071044921875,32.350337499999995,16.262322044921873,32.350337499999995,16.488373044921875Z" fill-rule="evenodd" fill="#FFFFFF" fill-opacity="1"/></g><g style="mix-blend-mode:passthrough"><path d="M13.808238750000001,27.744176748046876C13.808238750000001,28.309296748046876,13.357558749999999,28.767426748046876,12.80059875,28.767426748046876C12.24364875,28.767426748046876,11.79296875,28.309296748046876,11.79296875,27.744176748046876C11.79296875,27.179043748046876,12.24364875,26.720916748046875,12.80059875,26.720916748046875C13.357558749999999,26.720916748046875,13.808238750000001,27.179043748046876,13.808238750000001,27.744176748046876Z" fill="#FFFFFF" fill-opacity="1"/></g><g style="mix-blend-mode:passthrough"><path d="M19.3512075,31.32556712890625C19.3512075,31.89068712890625,18.9005275,32.34881712890625,18.3435675,32.34881712890625C17.7866175,32.34881712890625,17.3359375,31.89068712890625,17.3359375,31.32556712890625C17.3359375,30.76043412890625,17.7866175,30.30230712890625,18.3435675,30.30230712890625C18.9005275,30.30230712890625,19.3512075,30.76043412890625,19.3512075,31.32556712890625Z" fill="#FFFFFF" fill-opacity="1"/></g><g style="mix-blend-mode:passthrough"><path d="M23.3824575,28.2558039453125C23.3824575,28.8209239453125,22.9317775,29.2790539453125,22.3748175,29.2790539453125C21.8178675,29.2790539453125,21.3671875,28.8209239453125,21.3671875,28.2558039453125C21.3671875,27.6906709453125,21.8178675,27.2325439453125,22.3748175,27.2325439453125C22.9317775,27.2325439453125,23.3824575,27.6906709453125,23.3824575,28.2558039453125Z" fill="#FFFFFF" fill-opacity="1"/></g><g style="mix-blend-mode:passthrough"><path d="M25.396129375,30.813939931640626C25.396129375,31.379059931640626,24.945449375,31.837189931640626,24.388489375,31.837189931640626C23.831539375,31.837189931640626,23.380859375,31.379059931640626,23.380859375,30.813939931640626C23.380859375,30.248806931640626,23.831539375,29.790679931640625,24.388489375,29.790679931640625C24.945449375,29.790679931640625,25.396129375,30.248806931640626,25.396129375,30.813939931640626Z" fill="#FFFFFF" fill-opacity="1"/></g><g style="mix-blend-mode:passthrough"><path d="M28.923473125,25.697667958984376C28.923473125,26.262787958984376,28.472793125,26.720917958984376,27.915833125,26.720917958984376C27.358883125,26.720917958984376,26.908203125,26.262787958984376,26.908203125,25.697667958984376C26.908203125,25.132534958984376,27.358883125,24.674407958984375,27.915833125,24.674407958984375C28.472793125,24.674407958984375,28.923473125,25.132534958984376,28.923473125,25.697667958984376Z" fill="#FFFFFF" fill-opacity="1"/></g><g style="mix-blend-mode:passthrough"><path d="M32.954723125,31.837194326171876C32.954723125,32.402314326171876,32.504043125,32.86044432617187,31.947083125,32.86044432617187C31.390133125,32.86044432617187,30.939453125,32.402314326171876,30.939453125,31.837194326171876C30.939453125,31.272061326171876,31.390133125,30.813934326171875,31.947083125,30.813934326171875C32.504043125,30.813934326171875,32.954723125,31.272061326171876,32.954723125,31.837194326171876Z" fill="#FFFFFF" fill-opacity="1"/></g></g></g></svg>