<svg xmlns="http://www.w3.org/2000/svg" xmlns:xlink="http://www.w3.org/1999/xlink" fill="none" version="1.1" width="45" height="45" viewBox="0 0 45 45"><g style="mix-blend-mode:passthrough"><g style="mix-blend-mode:passthrough"><g style="mix-blend-mode:passthrough"><path d="M15.59375,13.73998466796875C15.59375,12.33955466796875,16.71117,11.20428466796875,18.09197,11.20428466796875L35.002449999999996,11.20428466796875C36.383250000000004,11.20428466796875,37.50065,12.33955466796875,37.50065,13.73998466796875L37.50065,38.464284667968755C37.50065,39.864684667968746,36.383250000000004,40.99998466796875,35.002449999999996,40.99998466796875L18.09197,40.99998466796875C16.71117,40.99998466796875,15.59375,39.864684667968746,15.59375,38.464284667968755L15.59375,13.73998466796875Z" fill="#0C46E2" fill-opacity="0.20000000298023224"/></g><g style="mix-blend-mode:passthrough"><path d="M8.244140625,7.290796435546875C8.244140625,5.890366435546875,9.361560625,4.755096435546875,10.742360625,4.755096435546875L27.652840625,4.755096435546875C29.033640625,4.755096435546875,30.151040625,5.890366435546875,30.151040625,7.290796435546875L30.151040625,32.01509643554688C30.151040625,33.41549643554687,29.033640625,34.55079643554687,27.652840625,34.55079643554687L10.742360625,34.55079643554687C9.361560625,34.55079643554687,8.244140625,33.41549643554687,8.244140625,32.01509643554688L8.244140625,7.290796435546875Z" fill="#0C46E2" fill-opacity="1"/></g><g style="mix-blend-mode:passthrough"><path d="M8.448938,4.963853Q7.5,5.92771,7.5,7.2908L7.5,32.015100000000004Q7.5,33.3782,8.448938,34.3421Q9.39788,35.3059,10.74188,35.3059L27.6523,35.3059Q28.9964,35.3059,29.9453,34.3421Q30.8942,33.3782,30.8942,32.015100000000004L30.8942,7.2908Q30.8942,5.92771,29.9453,4.963853Q28.9964,4,27.6523,4L10.74188,4Q9.39788,4,8.448938,4.963853ZM8.98732,32.015100000000004L8.98732,7.2908Q8.98732,6.55325,9.50052,6.03173Q10.01372,5.5102,10.74188,5.5102L27.6523,5.5102Q28.3805,5.5102,28.8937,6.03173Q29.4069,6.55325,29.4069,7.2908L29.4069,32.015100000000004Q29.4069,32.752700000000004,28.8937,33.2742Q28.3805,33.7957,27.6523,33.7957L10.74188,33.7957Q10.01372,33.7957,9.50052,33.2742Q8.98732,32.752700000000004,8.98732,32.015100000000004Z" fill-rule="evenodd" fill="#0C46E2" fill-opacity="1"/></g><g style="mix-blend-mode:passthrough"><path d="M12.876063125,12.555012783203125C12.889623125,12.555012783203125,12.905113125,12.554772783203125,12.918673125,12.554292783203124L14.475703124999999,12.554292783203124L14.475703124999999,17.202792783203126C14.475703124999999,17.217042783203127,14.475703124999999,17.231312783203126,14.475703124999999,17.245582783203126C14.475703124999999,17.946202783203127,15.035383125,18.514152783203123,15.724813125,18.514152783203123C16.414253125000002,18.514152783203123,16.973933125000002,17.946202783203127,16.973933125000002,17.245582783203126C16.973933125000002,17.231312783203126,16.973933125000002,17.217042783203127,16.973933125000002,17.202792783203126L16.973933125000002,12.554292783203124L18.532903125,12.554292783203124C18.546453125,12.554772783203125,18.561943125,12.555012783203125,18.575503125,12.555012783203125C19.264933125,12.555012783203125,19.824613125,11.987052783203126,19.824613125,11.286442783203125C19.824613125,10.585830783203125,19.264933125,10.017868145803124,18.575503125,10.017868145803124C18.561943125,10.017868145803124,18.546453125,10.018113947203124,18.532903125,10.018590187203126L15.767423125,10.018590187203126C15.753863124999999,10.018113947203124,15.738373124999999,10.017868145803124,15.724813125,10.017868145803124C15.711263125,10.017868145803124,15.695763125,10.018113947203124,15.682213125,10.018590187203126L12.918673125,10.018590187203126C12.905113125,10.018113947203124,12.889623125,10.017868145803124,12.876063125,10.017868145803124C12.186633125,10.017868145803124,11.626953125,10.585830783203125,11.626953125,11.286442783203125C11.626953125,11.987052783203126,12.186633125,12.555012783203125,12.876063125,12.555012783203125ZM19.106133125,18.359572783203127L26.230953125,18.359572783203127C26.641453124999998,18.359572783203127,26.974553125,18.697642783203126,26.974553125,19.114682783203126C26.974553125,19.531712783203126,26.641453124999998,19.869782783203124,26.230953125,19.869782783203124L19.106133125,19.869782783203124C18.695573125,19.869782783203124,18.362473125,19.531712783203126,18.362473125,19.114682783203126C18.362473125,18.697642783203126,18.695573125,18.359572783203127,19.106133125,18.359572783203127ZM13.408633125,22.828952783203125L26.232853125,22.828952783203125C26.643453125,22.828952783203125,26.976553125000002,23.167052783203125,26.976553125000002,23.584052783203127C26.976553125000002,24.001052783203125,26.643453125,24.339152783203126,26.232853125,24.339152783203126L13.408633125,24.339152783203126C12.998073125,24.339152783203126,12.664973125,24.001052783203125,12.664973125,23.584052783203127C12.664973125,23.167052783203125,12.998073125,22.828952783203125,13.408633125,22.828952783203125ZM26.232853125,27.298352783203125L13.408633125,27.298352783203125C12.998073125,27.298352783203125,12.664973125,27.636352783203126,12.664973125,28.053452783203124C12.664973125,28.470452783203125,12.998073125,28.808552783203126,13.408633125,28.808552783203126L26.232853125,28.808552783203126C26.643453125,28.808552783203126,26.976553125000002,28.470452783203125,26.976553125000002,28.053452783203124C26.976553125000002,27.636352783203126,26.643453125,27.298352783203125,26.232853125,27.298352783203125Z" fill-rule="evenodd" fill="#FFFFFF" fill-opacity="1"/></g><g style="mix-blend-mode:passthrough"><path d="M31.271896249999998,31.544009365234373C31.271896249999998,34.28383936523437,29.07771625,36.504909365234376,26.37227625,36.504909365234376C23.66683625,36.504909365234376,21.47265625,34.28383936523437,21.47265625,31.544009365234373C21.47265625,28.804169365234376,23.66683625,26.583099365234375,26.37227625,26.583099365234375C29.07771625,26.583099365234375,31.271896249999998,28.804169365234376,31.271896249999998,31.544009365234373Z" fill="#FFFFFF" fill-opacity="1"/></g><g style="mix-blend-mode:passthrough"><path d="M31.271896249999998,31.544009365234373C31.271896249999998,34.28383936523437,29.07771625,36.504909365234376,26.37227625,36.504909365234376C23.66683625,36.504909365234376,21.47265625,34.28383936523437,21.47265625,31.544009365234373C21.47265625,28.804169365234376,23.66683625,26.583099365234375,26.37227625,26.583099365234375C29.07771625,26.583099365234375,31.271896249999998,28.804169365234376,31.271896249999998,31.544009365234373ZM30.28034625,31.544009365234373Q30.28034625,29.906999365234377,29.13581625,28.749039365234374Q27.99127625,27.589899365234373,26.37227625,27.589899365234373Q24.75326625,27.589899365234373,23.60873625,28.749039365234374Q22.46419925,29.906999365234377,22.46419925,31.544009365234373Q22.46419925,33.181009365234374,23.60873625,34.33896936523438Q24.75326625,35.49810936523438,26.37227625,35.49810936523438Q27.99127625,35.49810936523438,29.13581625,34.33896936523438Q30.28034625,33.181009365234374,30.28034625,31.544009365234373Z" fill-rule="evenodd" fill="#3662EC" fill-opacity="1"/></g><g style="mix-blend-mode:passthrough"><path d="M29.66270425,34.66024562890625L31.62255625,36.644434628906254C31.71550625,36.73899462890625,31.76779625,36.86725462890625,31.76779625,37.00100462890625C31.76779625,37.27902462890625,31.54508625,37.50440462890625,31.27202625,37.50440462890625C31.14033625,37.50440462890625,31.01445625,37.45157462890625,30.92149625,37.35747462890625L28.96165225,35.37317362890625C28.86869465,35.27866262890625,28.81640625,35.15040362890625,28.81640625,35.01664562890625C28.81640625,34.73862562890625,29.03911625,34.51324462890625,29.31217825,34.51324462890625C29.44386725,34.51324462890625,29.56974725,34.56608422890625,29.66270425,34.66024562890625Z" fill-rule="evenodd" fill="#3662EC" fill-opacity="1"/></g></g></g></svg>